<mxfile host="app.diagrams.net" modified="2024-04-21T19:14:05.011Z" agent="Mozilla/5.0 (Windows NT 10.0; Win64; x64) AppleWebKit/537.36 (KHTML, like Gecko) Chrome/124.0.0.0 Safari/537.36" etag="bbXFLYXYm5ea2MAHh71v" version="24.2.7" type="device">
  <diagram name="Page-1" id="SZFi_UBmzwb3c7TnXBTQ">
    <mxGraphModel dx="1434" dy="898" grid="1" gridSize="10" guides="1" tooltips="1" connect="1" arrows="1" fold="1" page="1" pageScale="1" pageWidth="850" pageHeight="1100" math="0" shadow="0">
      <root>
        <mxCell id="0" />
        <mxCell id="1" parent="0" />
        <mxCell id="S7IZpB0op00duPQ5i5Fw-1" value="" style="shape=image;verticalLabelPosition=bottom;labelBackgroundColor=default;verticalAlign=top;aspect=fixed;imageAspect=0;image=data:image/png,iVBORw0KGgoAAAANSUhEUgAAB4AAAAQzCAIAAAANdqbXAAAACXBIWXMAAA7EAAAOxAGVKw4bAAAAB3RJTUUH6AQVEwgX8e4gxAAAACR0RVh0U29mdHdhcmUATUFUTEFCLCBUaGUgTWF0aFdvcmtzLCBJbmMuPFjdGAAAACJ0RVh0Q3JlYXRpb24gVGltZQAyMS1BcHItMjAyNCAxNDowODoyM139Lz4AACAASURBVHic7N17bN13fT/+z7n5XGzHduKkTT8u6229j6IWPFpGv1BRYEysamEaDKWwixCgWpUmJgWQVrSBFiqksUXThtDEBIOpSGs2KrYBhVJKS5eW0jbpJW1JL7Hj5monqRPb5/b74/3LZwfbcZzEx8c+fTz+iOzP+Vze55P+UT376vOdqtfrEUtrZGTkhhtuGBwc/OY3v9nqtQAAAAAANEu61Qt4PYrj+Lbbbmv1KgAAAAAAmksA3Rq33HLLyMhIq1cBAAAAANBEAmgAAAAAAJpCAA0AAAAAQFMIoFsjjmMVHAAAAABAexNAAwAAAADQFALoljEEDQAAAAC0NwE0AAAAAABNIYAGAAAAAKApBNAto4IDAAAAAGhvAmgAAAAAAJpCAA0AAAAAQFMIoFtGBQcAAAAA0N4E0AAAAAAANIUAGgAAAACAphBAt0wcx8PDw61eBQAAAABAswigAQAAAABoCgE0AAAAAABNIYBumYGBgZGRkVavAgAAAACgWQTQAAAAAAA0hQC6ZeI4NgENAAAAALQxATQAAAAAAE0hgAYAAAAAoCkE0C2jggMAAAAAaG8CaAAAAAAAmkIADQAAAABAUwigW0YFBwAAAADQ3gTQAAAAAAA0hQAaAAAAAICmEEC3khYOAAAAAKCNCaABAAAAAGgKAXQrmYAGAAAAANqYABoAAAAAgKYQQAMAAAAA0BQCaAAAAAAAmkIA3Uo6oAEAAACANiaABgAAAACgKQTQrRTH8fDwcKtXAQAAAADQFAJoAAAAAACaQgANAAAAAEBTCKBbaWBgwCaEAAAAAEC7EkADAAAAANAUAuhWiuPYBDQAAAAA0K4E0AAAAAAANIUAGgAAAACAphBAt5IKDgAAAACgjQmgAQAAAABoCgE0AAAAAABNIYAGAAAAAKApBNCtpAMaAAAAAGhjAmgAAAAAAJpCAN1ihqABAAAAgHYlgAYAAAAAoCkE0C1mAhoAAAAAaFcCaAAAAAAAmkIADQAAAABAUwigAQAAAABoCgF0i+mABgAAAADalQAaAAAAAICmEEC3WBzHw8PDrV4FAAAAAMDiE0ADAAAAANAUAmgAAAAAAJpCAN1iAwMDNiEEAAAAANqSABoAAAAAgKYQQLdYHMcmoAEAAACAtiSABgAAAACgKQTQAAAAAAA0hQAaAAAAAICmEEC3mA5oAAAAAKBdCaABAAAAAGgKATQAAAAAAE0hgG4xFRwAAAAAQLsSQAMAAAAA0BQC6NYzBA0AAAAAtCUBNAAAAAAATSGABgAAAACgKQTQraeCAwAAAABoSwJoAAAAAACaQgANAAAAAEBTCKBbTwUHAAAAANCWBNAAAAAAADSFALr14jgeHh5u9SoAAAAAABaZABoAAAAAgKYQQAMAAAAA0BQC6AXZtWvXvffeu2PHjhOd8MILL9x7772PPfbYadx8YGDAJoQAAAAAQPvJtnoBK8A999yzadOm66677he/+MVNN910++23zzjhC1/4wo9//ONrrrnmueee6+zs/PrXv57P51uyVAAAAACA5UMAfRLVavWOO+74zne+c9FFFx08ePCGG2646aabzjvvvOSEZ5555q677nrggQd6e3ujKHr/+99/zz33fPCDH2zZigEAAAAAlgcVHCfx05/+tLe396KLLoqiaPXq1ddff/3PfvazxhN6e3u/+tWvhvQ5iqLzzz9/9+7dp/SIOI5VcAAAAAAA7UcAfRLj4+OXXnpp8mtXV9dzzz3XeML69euvu+668PPLL79833333XjjjUu6RAAAAACAZUkAfRLVajWd/r+3lE6na7XanGfu2bPnYx/72Kc+9anLLrtsqVYHAAAAALB8CaBPIp/PV6vV5NdarZbNzlGcvW3btptvvvnWW2/95Cc/eaqPUMEBAAAAALQlAfRJrFu3bvv27cmvY2Nj11xzzYxzHnrooT/5kz/5/Oc//8d//MdLuzoAAAAAgOVLAH0Sb3nLW6Iouv/++6Moev755x966KFrr702iqInnnhidHQ0iqJdu3bddtttd9555zvf+c5yuVwulxsnprds2dKihQMAAAAAtNgcbRI0SqfTX/7yl//8z//8oosueuqpp770pS/19/dHUfSVr3zl937v9z74wQ9++9vfnpiY+MQnPpFc8pGPfOQv//IvoygaGRnZvHlzHMeDg4PzPEIFBwAAAADQllL1er3Va2hnW7Zsufvuu7/5zW/Of9oll1yyY8eOpVkSAAAAAMDSUMHRXGH2eevWrfOfZggaAAAAAGg/AujmiuN4aGho48aNrV4IAAAAAMBSE0A33eDgYBzHdiMEAAAAAF5vBNBLYWhoaPPmzfOcoIIDAAAAAGg/AuilYAgaAAAAAHgdEkAvkU2bNs0/BA0AAAAA0GYE0EskjuPBwcET7UaoggMAAAAAaD8C6KUzNDS0detWQTMAAAAA8DohgF46YQhaEQcAAAAA8DohgF5SYQh669atM47HcTw8PNySJQEAAAAANIkAeknFcTw0NHT33Xe3eiEAAAAAAE0ngF5qg4ODcw5BAwAAAAC0GQH0UgtD0DOaoAcGBmxOCAAAAAC0GQF0CwwODkZRZAgaAAAAAGhvAugWCEPQGzdubDxiAhoAAAAAaDMC6NYYHByM43jLli2tXggAAAAAQLMIoFtmdhM0AAAAAEA7EUC3TOMQtAoOAAAAAKD9CKBbadOmTYagAQAAAIB2JYBupTiOBwcHG3cjBAAAAABoGwLoFhsaGtq6dWsURSo4AAAAAIA2I4BusTiOb775ZkUcAAAAAED7EUC33i233BKGoAEAAAAA2okAuvXiOB4aGoq0cAAAAAAA7UUAvSwMDg62egkAAAAAAItMAL0sxHE8ODhoAhoAAAAAaCcCaAAAAAAAmkIADQAAAABAUwigAQAAAABoCgH0chHHsQ5oAAAAAKCdCKABAAAAAGgKAfRyEcfx8PBwq1cBAAAAALBoBNAAAAAAADSFABoAAAAAgKYQQC8XAwMDNiEEAAAAANqJABoAAAAAgKYQQC8XcRybgAYAAAAA2okAGgAAAACAphBAAwAAAADQFALo5UIFBwAAAADQZgTQAAAAAAA0hQAaAAAAAICmEEADAAAAANAUAujlQgc0AAAAANBmBNAAAAAAADSFAHoZMQQNAAAAALQTATQAAAAAAE0hgF5GTEADAAAAAO1EAA0AAAAAQFMIoAEAAAAAaAoBNAAAAAAATSGAXkZ0QAMAAAAA7UQADQAAAABAUwigl5E4joeHh1u9CgAAAACAxSGABgAAAACgKQTQAAAAAAA0hQB6GRkYGLAJIQAAAADQNgTQAAAAAAA0hQB6GYnj2AQ0AAAAANA2BNAAAAAAADSFABoAAAAAgKYQQAMAAAAA0BQC6GVEBzQAAAAA0E4E0AAAAAAANIUAGgAAAACAphBALyMqOAAAAACAdiKABgAAAACgKQTQy4shaAAAAACgbQigAQAAAABoCgE0AAAAAABNIYBeXlRwAAAAAABtQwANAAAAAEBTCKABAAAAAGgKAfTyooIDAAAAAGgbAmgAAAAAAJpCAL28xHE8PDzc6lUAAAAAACwCATQAAAAAAE0hgAYAAAAAoCkE0MvLwMCATQgBAAAAgPYggAYAAAAAoCkE0AAAAAAANIUAenmJ41gFBwAAAADQHgTQAAAAAAA0hQAaAAAAAICmEEAvLyo4AAAAAIC2IYAGAAAAAKApBNAAAAAAADSFAHp5UcEBAAAAALQNATQAAAAAAE0hgF52DEEDAAAAAO1BAA0AAAAAQFMIoAEAAAAAaAoB9LKjggMAAAAAaA8CaAAAAAAAmkIADQAAAABAUwiglx0VHAAAAABAexBAAwAAAADQFAJoAAAAAACaQgC97MRxPDw83OpVAAAAAACcKQE0AAAAAABNIYAGAAAAAKApBNDLzsDAwMjISKtXAQAAAABwpgTQAAAAAAA0hQB62Ynj2AQ0AAAAANAGBNAAAAAAADSFABoAAAAAgKYQQDfFrl277r333h07dpzGtSo4AAAAAID2IIBefPfcc8+HPvSh73//+5/85Cf/7u/+rtXLAQAAAABojWyrF9BuqtXqHXfc8Z3vfOeiiy46ePDgDTfccNNNN5133nmtXhcAAAAAwFIzAb3IfvrTn/b29l500UVRFK1evfr666//2c9+dkp3UMEBAAAAALQHAfQiGx8fv/TSS5Nfu7q6nnvuuRauBwAAAACgVQTQi6xarabT//dW0+l0rVZr4XoAAAAAAFpFAL3I8vl8tVpNfq3VatnsKRdta+EAAAAAANqAAHqRrVu3bvv27cmvY2Nj11xzTQvXAwAAAADQKgLoRfaWt7wliqL7778/iqLnn3/+oYceuvbaa5NPN2zYsJDRZhPQAAAAAEAbEEAvsnQ6/eUvf/mzn/3sRz/60Q9/+MNf+tKX+vv7k09vueWWzZs3t3B5AAAAAABL5pTriTmp3/7t337wwQfn/GhwcPDuu+/eunXr4ODgEq8KAAAAAGCJmYBeUnEcG4IGAAAAAF4nBNBLbXBwcGRkZOvWrfOcowMaAAAAAGgDAuilFsfx0NCQIWgAAAAAoO0JoFsgFEDPMwQdx/Hw8PASrggAAAAAYPEJoFsgDEFv3Lix1QsBAAAAAGgiAXRrDA4OxnG8ZcuWVi8EAAAAAKBZBNAtM08T9MDAgE0IAQAAAICVTgDdMoagAQAAAID2JoBupU2bNs05BB3HsQloAAAAAGClE0C3UhzHcRyfqIgDAAAAAGBFE0C32KZNm7RwAAAAAABtSQDdYnEcDw4Obty4ccZBFRwAAAAAwEongG69oaGhrVu3SpwBAAAAgDYjgG69MAStCRoAAAAAaDMC6GUhDEFv3bq11QsBAAAAAFg0AuhlIY7joaGhu+++O/lVIwcAAAAAsNIJoJeLwcFBQ9AAAAAAQDsRQC8XYQg6aYI2BA0AAAAArHQC6GVkcHAwiiJD0AAAAABAexBALyNxHN9yyy1hCNoENAAAAACw0gmglxdD0AAAAABA2xBALy+hCXrjxo2tXggAAAAAwJkSQC87g4ODcRwbggYAAAAAVjoB9HI0NDQURZEOaAAAAABgRRNAL0eDg4OhDBoAAAAAYOUSQC9Tg4ODw8PDrV4FAAAAAMDpE0ADAAAAANAUAmgAAAAAAJpCAL1MDQwM2IQQAAAAAFjRBNAAAAAAADSFAHqZiuPYBDQAAAAAsKIJoAEAAAAAaAoBNAAAAAAATSGABgAAAACgKQTQy5QOaAAAAABgpRNAAwAAAADQFAJoAAAAAACaQgC9TKngAAAAAABWOgE0AAAAAABNIYBevgxBAwAAAAArmgAaAAAAAICmEEADAAAAANAUAujlSwUHAAAAALCiCaABAAAAAGgKATQAAAAAAE0hgF6+VHAAAAAAACuaABoAAAAAgKYQQC9fcRwPDw+3ehUAAAAAAKdJAA0AAAAAQFMIoAEAAAAAaAoB9PI1MDBgE0IAAAAAYOUSQAMAAAAA0BQCaAAAAAAAmkIAvXzFcayCAwAAAABYuQTQAAAAAAA0hQAaAAAAAICmWKIA+vbbb//MZz4z50e7d+9+5zvfuTTLWFlUcAAAAAAAK1p2aR7z1FNP7dq164knnviv//qv2Z/u2bNnaZYBAAAAAMCSWboKjsHBwV27dl1yySU7d+5csocCAAAAANAqS9oBvW3btje96U2/+7u/u2XLlqV87gqlggMAAAAAWNGWehPCu+6669Zbb924ceNf/dVfLfGjAQAAAABYSksdQEdR9LnPfe5v//Zvv/Wtb/3BH/zB0j99ZTEEDQAAAACsXC0IoKMoet/73veTn/zk6aefvuKKK+xACAAAAADQlloTQEdRtH79+qeeeurKK6/80Ic+1Ko1AAAAAADQPNmlecz3vve9OY/fddddX/ziFx988MGlWcaKEyo44jhu9UIAAAAAAE7ZEgXQ+Xz+RB997nOfW5o1AAAAAACwlFpWwQEAAAAAQHsTQC9roYKj1asAAAAAADgdAmgAAAAAAJpCAA0AAAAAQFMIoJe1OI6Hh4dbvQoAAAAAgNMhgAYAAAAAoCkE0AAAAAAANIUAelkbGBgYGRlp9SoAAAAAAE6HABoAAAAAgKYQQC9rcRybgAYAAAAAVigBNAAAAAAATSGABgAAAACgKQTQy5oKDgAAAABg5RJAAwAAAADQFAJoAAAAAACaQgC9rKngAAAAAABWLgE0AAAAAABNIYAGAAAAAKApBNDLnRYOAAAAAGCFEkADAAAAANAUAujlzgQ0AAAAALBCCaABAAAAAGgKATQAAAAAAE0hgAYAAAAAoCkE0MudDmgAAAAAYIUSQAMAAAAA0BQC6OUujuPh4eFWrwIAAAAA4JQJoAEAAAAAaAoBNAAAAAAATSGAXu4GBgZsQggAAAAArEQCaAAAAAAAmkIAvdzFcWwCGgAAAABYiQTQAAAAAAA0hQAaAAAAAICmEEAvdyo4AAAAAIAVSgANAAAAAEBTCKABAAAAAGgKATQAAAAAAE2RbfUC2sGuXbt27Nhx7rnnXnLJJSc654UXXnjppZdWr1599dVXn9LNdUADAAAAACuUAPpM3XPPPZs2bbruuut+8Ytf3HTTTbfffvvsc77whS/8+Mc/vuaaa5577rnOzs6vf/3r+Xx+6ZcKAAAAALCUBNBnpFqt3nHHHd/5zncuuuiigwcP3nDDDTfddNN5553XeM4zzzxz1113PfDAA729vVEUvf/977/nnns++MEPLvwpYQg6juPFXTwAAAAAQFPpgD4jP/3pT3t7ey+66KIoilavXn399df/7Gc/m3FOb2/vV7/61ZA+R1F0/vnn7969e6kXCgAAAACw5ATQZ2R8fPzSSy9Nfu3q6nruuedmnLN+/frrrrsu/Pzyyy/fd999N9544yk9RQ00AAAAALASCaDPSLVaTaf/7x2m0+larXaik/fs2fOxj33sU5/61GWXXbYkqwMAAAAAaCUB9Cn7whe+cPXVV1999dVvf/vb8/l8tVpNPqrVatns3LXa27Ztu/nmm2+99dZPfvKTS7VSAAAAAIBWsgnhKfujP/qjG264IYqibDZbr9e3b9+efDQ2Nva+971v9iUPPfTQ7bff/sUvfvHd73730i0UAAAAAKClTECfsgsuuOC666677rrrBgcH3/KWt0RRdP/990dR9Pzzzz/00EPXXnttOO2JJ54YHR2NomjXrl233XbbnXfe+c53vrNcLpfL5WRoevPmzVu3bj3pE3VAAwAAAAArkQD6jKTT6S9/+cuf/exnP/rRj374wx/+0pe+1N/fHz76yle+8uCDD0ZR9O1vf3tiYuITn/jElcd98YtfDOcMDAxs3ry5ZasHAAAAAGimVL1eb/UaXr9GRkY2bNiwadOmwcHBeU4LIfXQ0NBSrQsAAAAAYBGYgG6lOI6HhoYMQQMAAAAAbUkA3WJh9nkhTdAAAAAAACuLALrF4ji+5ZZb5h+CHhgYsAkhAAAAALDiCKBbzxA0AAAAANCWBNCtF5qgN27cOM8JJqABAAAAgBVHAL0sDA4OxnFsCBoAAAAAaCcC6OVi/iFoAAAAAIAVRwC9XIQh6C1btrR6IQAAAAAAi0MAvYwMDQ1t3rx59nEd0AAAAADASiSAXkYMQQMAzGPfvn0/+clPnn766VYvBAAAWKhsqxfAr9m0adOGDRtuvvnmVi8EAKCV9u7dG0XR9u3b9+zZ89RTTx04cGD//v3p9P8/PHH22WdfeeWVZ5999oUXXnj55Ze3dKUAAMB8UvV6vdVr4Nds2LBhcHBwaGio8eAll1yyY8eOVi0JAGAR7d+//7vf/e7BgwdrtdrY2Fgul+vv7w8f9ff3v/rqq48//vjExEStVstms/l8Pp1OZzKZxj+TW9VqtWKxeNNNN/2///f/WvRtAACA+Qigl52RkZENGzb8+Mc/bjwogAYA2sD+/fsfeuih7373u40HU6lUNpvNZDKpVCoJl2u12rFjx8JHqVRqnnvWarWpqamurq6LL774Ax/4wPr165v4BQAAgFMkgF6ONm7cGEXRpk2bkiM33HDDN7/5zTiOW7coAOB07Nu3L/y5ffv2er2+f//+6enps846K4qidevWhXPCr2eddVZypJ2Mjo7u379/x44duVxuRvQcpFKpxog5xNBh2DmEy9VqNZvNZrPZpIIjkU6n0+l0Nput1+vj4+PZbPbd7373Bz7wgeZ+JQAAYMF0QC9HQ0NDGzZsGBkZkTgDwAqyd+/e8fHxZ599Np1OP/300+l0OvxcLBZDSJrL5cKZ+/btm56ejqKoXC5HURR+TqfTfX19F1544bnnnrt69eqrr766hd/lTIyOjm7fvv3o0aO//OUvn3322c7OznlODtFzMhKRSqXq9XqlUqlUKsmnnZ2dq1atOnLkSL1ez+fzURTlcrkQPSdXpdPpUql08ODB733ve+l02o4aAACwTJiAXqZmDEGbgAaA5Wnv3r179+599tlnX3jhhZdeeimkoiFobkycFy4ksMeOHSsWixdffPGFF17Y2dm5nMPo0dHRkDj39PScKHGev0NjTjMuKZVKZ511Vq1WO3DgQCqVanxEOp1OTq5Wq4cOHSqXy729vX/zN39z6t8GAABYZALoZSo0QSeh84YNG4aGhgYHB1u9LgAgiqJoz5499957744dO1588cXu7u58Pn96cfMMjalrvV6v1+vT09NHjx7t6uo655xzLr/88ve85z1n+IgzF+Lm0dHRnTt3PvbYY6VSKYmDTyNobhQuD40coQy6UCik0+mOjo6Ojo6DBw/29fV1d3dPT09PTU1NT0+HUo4ZDw0ZdLVaXb169V//9V+fyXoAAIAzJ4BevjZv3jwyMhKGoAXQALAc7Nmz50c/+tEzzzyza9euVatWdXV1LeLNT5TehiS6VqtNTk52dnb+xV/8RV9f3yI+d37JgHMul9uxY8e2bdt6e3tPO2hujJhn/JzJZEKxRojyk0+Tqo1KpfLaa691dHSsXbs2iqJarTY9PR06TILkX2srlcr4+Hi1Wl2zZo0MGgAAWksH9PJ1yy23bNiwYevWrXJnAGi5f//3f3/yySd37tyZz+dXr159zjnnLO7954l0k4i2VCpVq9WvfvWrb3rTm9773vcu7gISo6Ojjz322IEDB7Zt27Zjx45SqdSYs8+ffZ8oX46iaMb+gaGoJGksCZ8mlyR3C3PQQTab7e3tnZycfPHFFwcGBnK5XKFQCNsPzl5JZ2fnnj17Dhw48I1vfOPWW2893ZcBAACcKQH08hXH8dDQ0N133z04OBjH8cjISKtXBACvR9u2bfvnf/7nAwcOFIvFtWvXFgqFRbz5wkeJQ5KbTqcPHTp03333PfLII+edd96GDRvOcAFhwPmxxx7r6OgIA86dnZ1Jpca6devmXPCcI8zzfJd0Op3JZEJjRtKRPeOrzbgkk8nMecMQOo+Pj0dRtHbt2kwmU6vVarXajGuz2Wx/f//4+Pgvf/nLKIpk0AAA0CoC6GVtcHBw8+bNW7dubfVCAOD1aN++ff/wD//wyiuvlEqlxY2ez6QrOWS4R48e3bp168svv/ze9773zW9+88IvD3FzaNXYsWNHLpdrTJzPOuus6NcT4WRyuXEY+aQrDBFwdOKdGGcMO8/+gvPcP5vNhgx63759a9euDTXQtVotjEInyXWxWKxWqxMTE9u2bbvrrrv+8A//cIHrBwAAFpEO6OVuy5YtYQg6iqKhoaFWLwcAXhdeffXV//iP/3j00Uc7OjoKhcJiRc9nuEffbNVqNYqid73rXe9617vmPGF0dHTfvn2PPfbY+Pj4/v37n3zyyWKxmM/nC4VCY9PFQqaYTySExfl8Pjpx3Jw46SNONPg8p0qlcvDgwYGBgRCO12q1MCSenFCtVg8fPjw9PR1F0cc//vELL7xwgXcGAAAWiwB6uRsZGdmwYUMcx4ODgwJoAGi2V1999b777vvBD35QLBbPPHpexMR5zluF9olyubxu3br3vOc9ITHPZDLFYnHbtm0PP/xwR0dHb29vPp/PZDKNyewZjmA37hZ4otUmjwj/thkmlBv7oBsT8Oj4foOnuphKpRLy5TVr1uRyufCskMsH1Wp1//79URT19vZ+5jOfOdX7AwAAZ0gAvQJs2bJl48aNt912mwAaAJrqW9/61t13393T09PV1VUqlU4jDw1OO94NFzb+69n8t6rX6yHYHR8fD/XQIRqu1+vT09NHjhxZs2ZNGHY+7e/SGDfPmWLP/jOsP6ytcanB7MvT6XSxWGys+DjRamcfT47s27fv7LPPjo7PUFer1Wq1Wq/Xq9XqsWPHDh8+XK/Xb7zxxhtvvPH03gMAAHB6dECvAIODg4ODgzYhBIDm2b59++bNmw8dOtTT09PX1xcKJU7VGc47N16+wFuF9LZarXZ3d09PT/f19R07diwcLxQK09PT69atm5iYqFartVptIRn07N0CT5Qyz5ak4bPnG8KROS8MGfGhQ4dKpVKhUMjlch0dHQv57skbCLH4sWPHxsbG1qxZU61WM5lMcpNqtVooFOr1+uHDhx999NE3v/nNfX19C78/AABwhjKf//znW70GTmLVqlWpVGpkZORE9Y4AwJn44Q9/eOedd6bT6c7OztDkcNJLGismTrs9efY9Z/yw8KvCzG+pVJqcnAwJci6XW7VqVdhgMJPJ1Gq1arU6485hrjmfz+dyuVKp1N3dHYpHwpEw+BycqCQ6nU6H0DmMG5/0f62b56tNTk6Wy+VarTY1NTU9PV2tVk+6G2EqlUoi8lKpND09/dprr/X19ZXL5ej4cHSI1AuFQqVSmZqa2rlzZ9haAwAAWBomoAGA17Xvf//7//iP/7hmzZpSqZTJZBqLIGabkZ8uSsXzmd8kdG6USqUoitasWZOMG2cymRAKhzLrcrl89OjRjo6OVCqVsKvDaAAAIABJREFUzWbDjHAqdcJCthMdD5PRURSFQelQwdxYeTH/aud8YlhtuVyuVCph48fp6enp6emQQYc8PZv9tX9xDccbj3R1dR04cGBqaqqnp+e1116rVCrJCZlMpqenZ3x8fHR09Lnnnrv44ovnXyQAALBYBNArQxzHKjgAYNF94xvf+M///M9zzjkn1DiEDHe2RdxLsEm3DVnz1NRUR0dHmB1OkvRarRZ+zuVyvb29Mx66kO1AQgocBqtnZL7lcjkZNA6pdOh9DqUfIY9ubII+kdAlkkqlKpXK5OTk9PR0qVTKZrNhl8VwMEmi0+l0oVCYPRydz+fXrFnz0ksvXXbZZaGTJFleFEXFYvHo0aNRFP3bv/3bHXfccdIlAQAAi+I0t6MBAFjp7rzzzi1btoT0OYqiQqEw+5xF6daY856Le9tcLpfP50MRR0dHRzabbSzNSFLmhbRkBOl0Op/P5/P5np6e7u7uzs7OQqEwI30OEfPsC0MYnc/nQ5vH7Juf6LuH0exUKlWr1V577bWjR482hte1Wm16enpiYuLYsWP1en3Oquh8Pn/eeec9/vjjIaTO5XKNd+jt7Y2iaGJi4u///u8X8hIAAIAzJ4AGAF6PPv3pTz/88MPr1q0Lv3Z0dMwu32jS4HMzZDKZVCp1ohaRBY45d3R05PP5zs7OEDqH4o7khNQsc7ZtJNl6mFxONkWcfdqcR0IGHY6ETufJycnG00Lvx+HDhw8dOrRq1arZ/9kgZNAPP/xwFEWFQqGrqyt5ViaT6erqyuVyIyMj27dvP+k7AQAAzpwAemVQwQEAi2jjxo3PPfdcV1dXyGozmUzjoG4zJpQbb764dwtC0UT4OZPJhL0Ewyh0yKYbM+jwcxhVDhFtb2/vqlWrSqVSsVgM2/rNNuPRofF59kpC7hw+nZqamn3CPPdMzkwy6FqtNjk5efjw4UqlEkVRaEoJH01OTo6MjGSz2dkx9KpVq9asWfPss89GxzcqTD4KzR7lcvnpp58+1bcNAACcBgE0APD68ulPf/rpp5/u7e3t6OgIaWYSXzYvd07uv1j3aVxqY91z0jgRkuhcLtfR0VEsFru6uhoLNFatWtXb29vT0zO7WGOBwoMaVxKi52QB5XI5+XnOEex53vaMDQZDI8fExMSM+1QqldHR0UOHDhUKhRBDJ/F0HMeZTOall14Kv/b09Jx99tn9/f09PT1xHOdyua1bt57GtwYAAE6VABoAeB357//+72effbazszM0CCe1Fc2OnqPFSJ9PNDgcAujQyDwjok2lUiGADvUa4fJ8Pp/L5cKGfkHotVj4CsOzwvn1en1G9BxFUbVaLZfLC/lG0a8PRycfNe6jGJTL5QMHDoyNjTWeVqlUxsfHx8bGkmnuMOMcRVF/f/+BAwdefPHFcG1/f39XV1d/f/8555yzbt26Wq2mhQMAAJaAAHplUMEBAGfuySef/PKXvxxqjqMoCgPCpzf/u3CnUegx4+ST3iGM/c5In3O5XLFYLBaLyRdMfigUCo2D0qHB45Ty6ND+HKLnarXaGD2H443lG8nBOb9IMrM8+4vP7rOu1+uvvfba3r17q9Vq4wrHx8dHR0ej403WIYbu7Oy84IILxsbGBgYGqtXqzp07L7zwwiiKOjo61q9fXyqV7rnnnhN9QQAAYLEIoAGA14uvfe1rHR0dfX194dd0Ol0sFhf9KTOmek/pwuSSkxYlz7gwqTkOg8OlUilUOTeelk6nJyYmQit0yI5PtIb58+jacTOi52TB09PTc64zyccX/lpmZNDh/qH9+cCBA2GpycFdu3aFqugoikIMvXbt2ksuuWTXrl1XXXVVtVrdt2/fhRdemEqlVq1a1dXVFUWRIWgAAGg2AfSKYQgaAM7E9773ve3bt/f19aWPK5VKi3j/GfHx6V14GnK5XD6fT/ZRTLZVnHOEef369UePHg0PnbOXec61NebRob6jo6Mj/JwIR3K5XNiBcM67zdi0cM6fZy87/GUlLzZJnMfGxvbs2VMul5NFVqvVV199dWxsLFxYKBQuuOCCt771revXry8Wi29729tGRkYymcwFF1yQz+fXrl2bSqV27tx50pcAAACcieb+P6cAAMvEv/7rvxYKhVKpFKLM0Pt8erdKLkx6kFslk8l0dnZmMplKpZLMKVcqlSTRrh+XnJ8MfS8kgJ4hdHrMaGFuNDExcezYscZWjcTsSxpD8BmB+Ox4Ogm1s9lsaJfO5XJHjhw5duxYd3f3mjVrwpnVavXo0aOlUumtb31rT09P+Jr5fP6BBx740z/907PPPvvBBx+8/vrroyianp4+ePDgtm3bfv/3f/9U3wMAALBwJqABgPb3P//zP2NjY6F9Ijo+ZrvAKeDE7FHlM0yfz2TwOVy+atWqXC4XtgSMoiiXy2UymRm1GKGUIxkiXr16dRj9nr1j4TzS6XR3d3cIr6vV6pwXTk1NjY2NJV3Pc37N2XskJh/N8yrCCPaMcpJ0Oh0Grg8ePHjgwIHk5Eqlsn///j179iS37evrGxgY2LFjR1dXV5iDPueccy699NKurq5jx44988wzC3wJAADAaRBArxgqOADgtN11110hhI2OZ7JRFKXT6VMKYRfRGUbP4Q69vb2h+jl8hVqt9tprr9VqtTm3VUyS6MOHD09PT4cLT9SVMUOxWAzPSqVSye6CM97b1NTUvn37ZufOC/maqQbRCZLoVCqVZNBJK3TIoFOp1MGDB1966aXQCh1mwB955JHGeo2rr776/vvvj6Koq6vroosumpiYOOecc6677rpUKvWDH/xgIS8BAAA4PQJoAKDN/fCHPxwdHU2lUh0dHalUqnFTu4U4w47mZtwqnU4n6XMURWE/wMnJyVqtNs8XTKfT+Xw+juOwBd+cRRmzL0kGn4NQfzHDjPR5/kx/nk/nfzMhg45+vSc6nU6Hv9Zyudw4+FypVH7+858/99xzyW3f9KY33XPPPcm3KBaLF198cUdHx69+9StbEQIAQPMIoAGANhdGXMP8b2M4GxLYEw1BL8PcOQihcEifU6lUSJ/r9fr4+HipVKpWq0lLcnJ+Pp/v6enp7u4uFArhYCaT6e7urtfr8wxBJ4PPjQcb7xze29TU1P79+xu/3WkMlSfvZ/5YPMmgG/8ek/+0kE6nx8bGdu/eHW5VqVS2b9+eZNDnn3/+6OhoUtYxNja2a9eudevWFYvFhx9++FQXDAAALJAAesVQwQEAp+fhhx8OG/SdKNycHZguVli8iLlzEHYdLBaLoX0i2UpxYmKio6OjVquVSqXVq1dnMplsNjs7dw6SwuhSqTRnWDx78DkxO7Dev3//jCMnDaCTnugZ0Xxjy/OJrm3sg06EDDr8FR88eHD37t3h7/rIkSPPPvvsI488Ek57xzveEYagC4XC6Ojo6OhoCOJfeeWV+RcMAACcNgE0ANDOfv7zn9fr9Uwmk8vlGgPoGUXJSWa6KJHx4o48J/fs6Ojo6upatWpVGOVO1jw9PT0xMVEoFI4dOxZS6bVr1/b19c3InRuFa/P5fDabnREHl0qlvr6+MFM846oZ/RupVGrv3r2VSmXOm884c8bdThRSL+TVhQx6xn9OSKVS4a84n8/v2bNnZGQkpPNjY2P79+9/5JFHUqlUX19fZ2fnjh07isXi6Ojorl270un06tWrDx069Pzzz8/zRAAA4LQJoAGAdva1r30tm82G8dgwvRuS3Gw2G5orkjMXsXBjUW6S+vUN/QqFwtq1a7u6umafPDExkcvlarVaFEWhMaOjo6Ojo6NUKs2ZI0fH899sNtvd3R0ujOYafJ6xjMbx52RLw9ABMuf9Z9yh8ef5m6BP+g4zmUxHR8fsC8OehKVSaWRkZHh4OLRFHzx4cGJi4pFHHpmamrrqqqvuueeeQqHQ19fX19dXr9c7Ozuz2ewzzzwz/xMBAIDTI4BeMeI4Hh4ebvUqAGCFef7558OQb61WC6PQ+Xw+DM+G4DUkoSdqgl5isyspQqja39+/evXqOS957bXXpqenS6XSsWPHOjs7w8HwBcMGfcViMZ/Pz9iZMEw9R1GUyWRCqD1n4/OMVSUT0KHs4tChQ+HXOTPo6ARZ/EIC+rDyXC6XPbFCoTC7JCS8rmw225hB1+v13bt3T01Nbdu2rVQqDQwM7NixI4qiQqEQ/mGI4/jpp58+6aoAAIDTkD35KQAAK1atVmvcbLBarSYZa0ilQ0CZSqWSTPZMnN4d5rmqu7u7u7t7xsEkK5+cnDx06FBof05GvGeMBoewOJfL1ev16enppDEj+b75fP6SSy5ZtWrVxMTExMTE0aNHJyYm5lxMuVxOpVJJlt3Y/hxeb+OA8zzbCYbTZrzwkHGHmeVk5TMmphv/jKIol8sVi8VarTY5OTk5OZncJ8TT5XI57J8xMDBQq9X279/f39+/bdu2K6644l/+5V8+/vGPj42N9fX17d+/f82aNWGvQgAAYNEJoAGAtvXLX/4yxM3VajU0AlcqlVqtlkwZJ/F0NCtCPakkRZ1xZOHm32qvWCz29PQk89qpVKqzs/PYsWNHjhwJ50xOTo6OjkZR1N3dfejQoXK5vGrVqvkfl8/nOzo6yuVyuVxu/LJdXV1XXHFFcmYIoEMYvXfv3vDzvn37arVakj6HJyZvMoT7yaaICx8nD/l4spKQJjcOqkfHe0Vm/Fmr1cbHx6emptLpdFdXV5JE12q1crmczWY7OzsPHTqUZNBjY2O/9Vu/1dnZefjw4WuvvfaZZ57J5/NTU1O1Wi2fz9dqtaeffvryyy9f4LIBAIAFEkCvGAMDA//7v//b6lUAwMqThJvZbDaUSISsOcw+N4aqIQwNBxd4z9Memp7zwnQ6XSgUOjo6Ojs7C4VC48K6urpyudz4+Hg6nQ5J6+joaDi/UqmUy+UQLkdRNKNtY/ZzQ7tFR0dHkmWHlDkRqjzCn+edd144+NRTTz3wwAPJOUn/RiJk0DN2d5xnGdlsNryEVCoV+rjr9Xp3d/fv/M7vHDlypFKpNPaBzEi0w6/pdHp6erparU5OToZUPay5VqtNT09HUdTd3X3kyJGQQa9du/ahhx76yEc+sm7dujVr1vzTP/3TW9/61mPHjoUb9vX1HThwYCErBwAATokAGgBoW8lQczKc21hVHEahkwA6k8mExDPUcdSOm3HPRdljcIaQI4dQOGyZGB3PkcNHpVIpfJ1QoFEul/fs2RPi8mw2OzExUS6X+/v7wyVhI74TvZBSqfSGN7zhsssui6LoRz/6UTLgfNJFvvTSS5VKJeTLR48ePXr06Jz3D696nnHy0AeSTD2HMef+/v4rrrjibW97Wzhn165djz/+eONV4S9lzoVlMpnwfqrVarlcnpqaKpfLxWKxUCiExpWDBw/u3r27XC6vWbNmx44dF198cW9v77p168bHx5M563q93tgoAgAALBYB9IoRx3GY3wEAFi6knCEVjaIo9DPMqIGu1Woh/E0OhqbjJEgNm+wtSvTceJMkd05qJZI1hBA5n8+HHQKDUHN8+PDhw4cPh0A27D04NTVVqVT6+/unpqai45HuDCF3fsMb3hCy2hlC+3Oyh+GcXnnllSSAnierDZH9nHPQmUwmSZ/DkZ6ensbcOXHuueceOHBg165djQdnZ9D5fD5MOoePwl9ZyJ3L5fKhQ4fq9fqaNWsymcy+ffvGxsZ6enoeffTRiy++OIqidevWHThw4Nxzzw0tHOl0esbjAACARSGABgDaWchDG3s2Jicnk0nn5JzGtoeoYX+8EJWG4egw3ruQgo7ZGnfYCzlpPp9PlhR+baz1yOVy3d3d4aHR8caJqampV199NQxBZzKZbDYbwtNKpXL22WdHUZTL5ZI9BoP5c+fGk08aQB86dCjEyuVyec7x50TI6xubnUP0nPRu9/X1XXHFFVdeeWVPT8+JbnLxxRcPDw83Js4z6rbnqZkObziVSu3fv79ara5duzaKon379h04cCCXy4Uh6DiOn3zyyQsuuKBSqYQijqSOAwAAWEQCaACgnVUqlUqlkuyVFx2PpBuLkrPZbGNlRLKN3oxR4lBbHDXMTSdJdJJWpxok4XXj5UnxcXQ85g5JdJh07u7u7urq2rNnT2dnZ71eD1sFhqR1bGzs5ZdfTgax0+l0JpOZmpqqVqu1Wm3NmjXR8aro6GS5c+LCCy8cGxsL99+zZ8+6detOdOa2bduSV7eQqookgw7Rc7Lsnp6e97///b/xG79x0juUSqWrrrrqiSeeOFHQHMqs579Jb29vpVIZHx9fvXp1FEX79u1bs2bNL37xi4svvjgMYk9NTRWLxTBGXalUnnnmmVBOAgAALBYB9IqhggMATkPSnjE5ORnS2FqtduzYsWKxGKLhxmw6GTcOB+dvMY6OjyqHPDr8Ofv8kDsnUWwURWE4t7Oz86qrrjr//PMbSzaiKBofH3/00UeTadwkHd67d28SxYbsdWxsLDxuzZo1HR0dIao+++yz3/GOd8yfOye6urpGRkbOOeecaNY+hDO88sor4dVVKpXZ2w/OFpba2Ebd09Pzxje+8frrr1/IwoJzzz13eHg4ybtnTz0n/z1gnjVks9n+/v4jR44Ui8W1a9e+8sor2Wz2Jz/5yeWXX97X1xf+Sejq6got2IagAQBg0QmgAYB2FuaIC4XC9PR0iGXT6fSMDHp2aXIyEB0aM5Jx5rDvX3La7DHn+nFRFOVyuVCUEXLS5JxkG8DOzs7ZXcnPPPNMaJAI+yVOT08PDw83bhIY0udQAx2OdHV1VSqVUGR89dVXLzB9jqLo7LPPvvLKKw8ePBidbB/CEEBHURROPqlsNhsKPSYmJrLZ7Lve9a5Tip6jKBo/bufOnaHbOpora56cnOzs7DzpV+7u7q7X64cPH87lcjt37ly9enWtVuvs7HzhhRcGBwdzuVxPT8/+/fsF0AAAsOgE0ABAmwsVHMn2g0kT8bFjx3K5XKFQmHPMOWSdIe1tDJ3nqR5Op9MhUC4Wi8ViMTR7TE5Ohig5uPTSS0PJQ1Lo0ejxxx8POw1ms9lqtTo1NfXiiy+GgoioobLj6NGjoQ0jlUoVi8VCoRBWVSgUQhn0wq1bty6bze7du3diYmLv3r0nauE4dOhQGPceGRlpLHeeU0dHR6lUqlQqhw8fPuecc/7sz/5snq7nGcbHxx9//PGXX375pZdeCkeSqpM533ytVhsbG8vlcsVicdWqVfMk0WHqPMTiO3bs6O7uTv5mQ91KKpXyf5sBAMCiE0CvGCo4AOD0JMHlxMREb29vYxl0uVyOoihJLRsjzjCGHP36BoZJPXRyWgids9lsck4y/BsGqEulUq1Wm56ezuVyb3/725ON/mZsezg1NbVv377du3fX6/VcLler1V577bWdO3c2fovw0dTU1PT0dLh5Npvt7u4On+ZyuUsuueRUX8769evjOP7Rj340zznbtm1Lp9MdHR3j4+NTU1Mh9W58IY06OzvDImu12kc/+tE3vvGNJ11DCJ2jKLr//vtnf3rSOpSOjo7p6elyuRwGnOdMosNfWYibS6VSZ2fn3r17QwB94MCB1atXh1H3I0eOnHS1AADAKRFAAwDtL3Q45HK5UMeRHK9Wq/V6PYxCJ/PIIYtMpp6TnQYToXkj/JnNZpMoOZ1Oh8Hn6Hg9dMhDS6XSeeed19/fH+5Wr9er1eqePXsymcyhQ4empqZCpvz0008nT5ycnJyYmEimsMPxjo6OSqUSQvNwsLFFpFAo/OZv/uapvpkwMb1u3bq9e/eeaB/CX/3qV2G7v6T9eXp6es4NAEMafujQoXw+/453vOOk6fP4+Pjdd9+9a9euec4J77lxinzGp+GvNbyrcrkckuhsNpvP5+ecvK5UKvl8fnJyMpfL9fX1HTx4cPXq1eH+u3fvDr/Ov2wAAGDhBNAAQNtav359Pp+fmpoKTdCVSiWdToc64OScdDod5mfDPoHFYjGEy8nIbZICh+Mz5nBD+XI+n89ms729vdlstnRcODOXy11wwQXJXoXhzrt27XrllVcap3STXf4mJyenp6cbV5hsplepVKrVamgUiaKoUCiEyet6vf7/sXfvwXGV9/34nz33vUkrWbIsr41lczGmOBeZmExbCBA3pSWT0KTphLY06W/gmyEpbabpZJKm5Zb+kSb9NaRk2kL74xJ6yTSNaaYwTSdpuJm08RC+hgCyjADZyBaWVqu9nvs5+/vjUz3z+JyzRyvbYMl+v6bD7O657pFmSt768H5oJHml/Rvczp07/+u//itxHULehlGr1XhPdBAEQRBEKkSKxaIkSb7v9/f379y50zTNAwcOvOtd70q8Yq1We+655x5//HEWa9aO40PQiVspfI/UN/u+77puq9Uql8uR/TudjuM4uVwuCALDMKjVmn40tm0jgAYAAAAAOL0QQK8l1MIR/99RAAAAkOiNN96gAJpqNGjYeX5+fnBwUGzMoBfUNUzFzTwP5SGyODfNUSRKB27ZsoViaHHP9evXDw8PB0HAR3QZY7Va7fDhw4wxx3F0XWeMTU1NNRoNip75aSN9ILSJsmkq36DQmV7LsnzBBRec9INav379+vXr4+sQUkxMr/n4M/E8j5ZnZEuj32EYBkFQLBYvuugi2mdhYSHxcj/60Y8oeiYU/qb3SqcMQTPGaA6dZsPFQxzHOXTo0NatW/mUOq+TplIU+qsDYywIAlmWLcuampo6lScJAAAAAAARacMmAAAAAGva1NQUJbwc1V9Uq9VWq8WEomee9tIOvHaDmpc9z6MSjzhKMGVZbrfb1Wp1bm7u2LFjs7OzlUqFKiBc16UT0iVs237hhRfozNQXMT09XalUGo0GX2xQRH0gdBI+BRyGIXVJK4qSyWQo8h4dHV3p8wnD0Pd9Wvbwve99L61DyLfWarUXXniBapHb7TbF0zwmpvUV6Qn09/fTgyoUCjx9ZozRELR4xVqtdv/994vpMz9b+q3SBHrKDomVILqudzqd119/nX8v/pOlEWn6uVSrVUq3fd9Pvw0AAAAAAFgpTECvJZiABgAAWJGpqanE4DgIAgqgxbIFsXOD4khKPOmflA6LcTaf/6UT8s9d1zVNk/JNalXesmULv8TBgwcpbHUcp1KptNvtRqMh3ps4/kypK7V80JAvpcD5fF5RFBoc5gPXvczt0rC2v4RmrnVdNwwjn89v3bqVD0HzoJwC6Mj4s/jE+vv7KbeNpM9kYWHBNM1cLid2bkRQsN5tmUFOkiTardtWwzAoExflcrlGozE/P88YGx4eFv+0QIUbtA5hX18frRg5NTWVcg8AAAAAALBSCKABAADgbFYqlSIJL9dqtShzVFU1cVCanVhPTBXSmqZRGbS4v+/71CxMQ7X8c9u2jxw5cvz48ZGRkZGRkSNHjszMzDQajWPHjvF9xFNFyqkzmQzlxbquU1c1Y0xV1Xw+T3Gtrus0wd0tfaab8TwvDEOx3yMIAsuyaCsf+925c+drr73GhPS5UqlQQXatVks8P63yF4ZhYvrMGDNN89ChQ9VqNTF6jnz9dDQMnjKkTC0ckaYOWZZzuZxpmvPz87VabePGjXxTEAS2bS8uLmYymQsvvFCSpFwuR5XQAAAAAABwuiCABgAAgLMWZYviJ5H5Wd/3HcdxHMc0TVVVxa5nnkHTfC4VHLuuGwmg6UUmkzl8+DB1cfBQmDiOMz8//+qrr7quW6lUerltPv4chqHneZQ+M8ZovJfSZ8YYBaZ0iNi/QUcxxmjFQvGc9EVs2xY/56/z+XyhUGCMTU5O0rVoTrxarSbGxP39/bIsLywsbNiwIZ4+86HmRx991DRN8Zlw4mnDMIwn+/G3sizzPpM4wzBM02Qn/qAVRaElHD3Pm5mZWb9+PT+t4zi1Wq2/v5/WMPR9v9ufKwAAAAAA4OQggAYAAICzVvp0bST9pCSaYlDGGAWmNCJNy/3Rh57nUTNGJIam3JNQWUSlUqH+Cr5Pyv3wwJRaMugMlD7zo8IwNAyD1tPj6/7RmQcHB6knOggCsc9afEFD0LSMYWQH27Yped+6devzzz9PhRudTqfZbA4NDR08eDB+w9RwbZpmf38/pc+JofDzzz9fq9X4Wn+JD198CDzQ7/agUh4jrR6paZrrurwvmy0NQVOyHARBs9ksFou0SVGU4eHhSPt2tVoVu1kAAAAAAOBUIIBeS6gD+kzfBQAAwNrw0ksvRT6Jj9NG6hrE1JIW/WOMWZblOI6u63zcmC9USLkq7UafiAsYRuZ5u3Uci7ktxceUgAdBwMex2VIJNSWniqLQIDZtGhsb03U9kqJGUmaK1+OfR0xOTr744ovFYrFQKNRqNXohJrZcf3+/53nVavWKK64QTyV+TZ5lU5GIoij8OccvzZaGptMXG6T0P/KDE0+rKAoF8bzRmzEmyzJviLYsK5fL8UA8m83ys1HPSeLJAQAAAADg5CCABgAAgLOTmN6KCSmfcY7HoNR6waNJCkOptoIakylCjSSkuq7Hw1yefvbYcUxX4b3PQRDQpDPnui6lwFQVIt7/zp07I7Gy+JZHz6xL+kzL8dHjmpyc9DyvXq+3221VVQuFwuuvvx6Jjxlj/f39hmEcO3Zs8+bNx48f37RpU+RumZA+E2rQjpdsxJ/Dsg+NhqBTViPUNI0qNZjwg6DJaHq2lUplZGSEH0J/M6AT2rbd7cwAAAAAAHAS0gZMYLUpl8szMzNn+i4AAADWBmpRSA8TI1sp/E3ZmQQnosLlHi+RiEqNaZia9hfTXn5vhmHous6jXopWt27dKo5mi1f0fb/dbsfT5/jt0Wjw5OTksWPH6BPf92k5vvn5eSYsVEj31t/fX6vVSqWSYRie57355puR00bSZ7oQtZekPwr+kNN3S5mSzmQyiqJEAnEqj+YPKgxDsetZ/Ak6jrN+/fr0qwMAAAAAQO8QQAMAAMDZaWBg4Pzzz49/zpf4SzwqHn2KU8OJk840vHxyN8kHfvngM7UORXywAAAgAElEQVRwRC7kum6hUIgsb0gh7KWXXhq/8zAM2+22aZq8TSIy8hx5MTs7yxh79tln2VIaTmPRjLG5uTnGmNhKQX3TrusODQ3RJ5ZlLSws8B3i6TO/KzHITn8m6ftQEUfKDmJFCT9EVVVN0+gtX4mRAnp67bpuL3cIAAAAAAC9QwANAAAAZ61Go9Hf30+v4wXQbGnFv8QdEg+JB838PCnHdotTqTCaj1SzpUyZEm2+lTGmqmo+n4+v47d169Z8Pi9eIggCx3FarZa4GqEocYlC3/cnJydpyUT+uWVZ09PT7XZb/IL5fF6SpFqtxtNn0mg0aBnGF154IZ4+86fh+36PBRe9DEGnzFNTEUf8NgzD4BXbtVqNLY0/e55HNR3o3wAAAAAAOL0QQK8lmzZtwiKEAAAAvfuN3/iN/v5+nkGLeHbJA0deFpwYQXbbyj9PX7kuchTNAvPpaWqNiI/00tZOp1MsFuPpM1saf6aTh2Fo23ar1YosNsi6hM7ii3w+/+1vf5vfG2PMtm2xmILXQBeLxVqtZhhGoVAQz+N53vHjx9PTZzpPemNJj5XZNDMeeSYRqqrGd6DVCOm167qO40TuZ3h4uJcbAAAAAACAHmERQgAAADhrDQ4OOo6zZcuWl156iX8oLjMoEiNpes3DZXFr5HDxqMiBiShQppJiij6p+jnlW+i6Tul2pH+Dxp/p9milwV5Gni3LMk1zcXGRMVatVi3LonFpap3mdSJ0xYMHD/Lz+L4/ODhIU9KlUil+oUqlsrCwQBPZKWjcu5cfQWQ1wsQRdVmWU6J/wzBogls8RNM0z/OokLpardKgtGVZuq4zBNAAAAAAAKcbAui1pFwuYwIaAACgdwMDA5Ik9ff39/X18bX4WGwmNxIB975uYeQoHuN2OzAMQ0mSKHuliozI/pFLdzqdXC7H96dbpUHpTCZz6aWXUnuGbdu8rIMfaFkWY8w0TVpLsFqt0ovIDfP0NpvNOo4jViRLktRqtagTmcorfN8PgqBQKPAhYibk9fPz877v67oufql4akz3HC/QiLwVM+iUgJ7KoLs1d0uSZBgGlVmLh2SzWV4G4rqupmm2bQdB0G63lw3QAQAAAABgRRBAAwAAwNlsZGTkZz/72UUXXTQ5Oem6LhMCUxKvb45H0iyWWSeugCcOQUc+ZIzxkg2qG5ZlOb1BotPpGIYh7kPRLR24bds2Gu8NgoCy5oWFBWphTsyaxddiuzRnmmYul6PZZNqkaZppmnwyOp/P08i22P7MTzI/P09b2+12YueJiBqueU6dmC/Hn2QiCqDjQ9B8el2WZUVRxKUF6ZBsNmtZFl2FDq9Wq67rbtmyZdmLAgAAAABA7xBAAwAAwNms2Ww2Gg3G2Pbt23kGHZ93FgPleCQdz6z5GHKkoINy1UhhNGW+/NK6ridGz5GuDFmWVVWN70bxsWmaP/7xj/mAc6L4PLU48hyRz+epoFmW5TAMHcehfJbvUCgUjhw5ct555yVeqFKp8IdjWVY2m2Xdq0joTqhAIyVlTiziiKMR6W5z65Ik8Q4Tvg996HkezUH7vk/JPkv66QMAAAAAwKlAAL2WoIIDAABgpdrt9vDwcLPZnJub2759+8LCAo9KSWLcvOxpI9UQPIbmHcqMMUmSaPaWomd6yys4up2Wp8+5XC5xH1qxcH5+Pv32xLe+78dHnuOnZUuzyfTtaLCao+pkiqd5Xk/nnJ2dFS9NpRbLznenN5YwIfdfNoNOHIJmSz8RSZI0TXNdVyz1ZozlcrlGo0H7WJalaZokSVdffXXKhQAAAAAAYKUS/utRAAAAgLOG4zjT09OUTh4/fnzjxo0bN27s5cDIlHQkAE2ck6XdqCJDVVVZln3fdxxHlmVN01RV7aVTgjEmSVI8fc4sYYzxpub4DfAImy1VdjiOQ5lyL5dmjLmuS2msZVk81R0cHKzX68ViMQzDVqslfn3P8+r1uniGIAhM00z/shSIU2tHCj5Cnr4btWp025TJZFRV5TvwhSKpIZot5ddBENRqtZ07d6ZfCwAAAAAAVgQBNAAAAJzlbNuu1WqUmU5NTcmyvHXr1g0bNlDIG4Zht9ZmUXyfyFbeLMy7nqnYgRblE2ell41TxSX++Mn5WxrUjd9wpOiZJq+7FW7EiXcYBIEkSeLafYVCod1uU7GGmEF3Oh1x/JkLgkBc9TERb6NO34deLNuMEV/VMLJVfKo8zdc0jaawZVlut9vj4+PpVwEAAAAAgJVCAA0AAABnP9u2Dx8+3Ol0CoXC4uLisWPHHMcZGhratm3b4OBgvAgiJSOmoFmWZZ54UumEaZrtdrtSqVSr1Xa7TbO96RUT8St2Op1cLkflFeLIs0gcf47H2ZQ7ryh6jqvVaoyxarXKTz44OGiaZl9fH73lGbRpmrTyYfzrpN8Db21OH4LmHdAp4TJ/UOmlH/FObfpR8mHzMAw3b96ccgYAAAAAADgJ6IBeS9ABDQAAcCoOHz68detWttQaUa/XVVUtFovr1q3jJcJ8mT4xzVQUhYfCYgMy7ez7PltKM1VVjcwvd5OYcauqmpJZdzodOnn82PQFBlfKcRzTNC3Loth3cHCQxeayKYM+fvx4t5P4vm/bdj6fT7kQz6ATl1uMT53zTxLzaMqgUx4C1VhHDqHhaNu2M5nMf//3f3/sYx9LuWEAAAAAAFgpTEADAADAOaRarbKlKNN13Xa7/eabb05PT9dqtWazaZqm4zjU9uD7PlUnK4oShqHneZ7nua5L5cVivbIsy4qiUHZ8KukzfW7bduK6iJ1Ohy4UOfYk2jYS8UjX8zxJkmgImq5VKBQYY9S/EbluSgBNmXhiEUdk8cbEIo5IBzd/sew0NE2mi/jWSBEHvwpvNVlYWLj33nu7nRwAAAAAAE4CAug1BkPQAAAAKxIZraXGZ1mWM5mMruu5XE7Xdc/zGo0GbQ2CwLKsRqPRaDTq9fri4mKlUmk2m7ZtU8KbyWSCIPA8r9Pp0NKCVMdB5+9xmcEUVF7BB3XFko1I+cYptm3QmWmCmxYepM/p0pVKhbc8FwoF3r/R6XTCMKQUvlqtep6X0vVMJ++l5Tk+mBzfJ/46LnE1QjGGpp9X/BAq4shkMs8888zLL7+ccgkAAAAAAFgRBNAAAABwNhsaGhLfivEl9WlkMhnDMCRJ8pZ0Oh1JkpQlkiTx1JWiXtqa2Di87AKDKcS5YOqvEGNZWZbpiuLIc8rlIvmy67qO49i2bdu2aZqtVqvVajUajWaz2Wg0Wq0Wz5HptLIsm6ZJ31rTNE3T6CHErxjvgI5/kcStfB++J4utuBjZjfXwhLudgX+YOAStKArl+5Ik3XfffemXAAAAAACA3qEDeo2hCehyuXymbwQAAGBNio/HMsY8z6M+jb6+vngZMQWUhmGIA8iJTn38WUSZbBAEqqpKkqTrOk0T88SWMUZv+agyb7TodkLec93topS/M8ZUVaU1BsvlcqfTWVhYKBQKkX7qVqtFZ2u32926nim15y3P3cJl+mOA2PKcuE/8dSLe6N1tq67r4uC2JElhGBqG4bouY2xxcfG73/3uRz/60ZRLAAAAAABAjxBAAwAAwDmE6oYTY+h0PY42L5uNdtstUoss7uk4jqZprVYrPV/uds800Zzeg8HxWJby4jAMaTC5VqspipLL5cRHRwE0Y8y2bV3XE5dPpEu7risWlcT3oTFzz/N0XU/5OvSU6Hst2wSd0iutqiqt2cifNhWz5HI50zSpiOPKK68cHh7udgkAAAAAAOgRKjgAAADg3JIYJfMh3G77996tsWwAzQeWI1cR657Fs8myTE0alJmmn5zXbtCSidTU0WP6HM+p6X4olaaBaHErzQuTdrvd7bTU4+G6bsqT4c+E8u5ut5f4OhHVfHfbSkPQTOjroH/quk7JO1YjBAAAAAA4XRBAAwAAwDkkZfb5FAs0Tm//BpEkqZdhbcptqUXEdV2KqnsPnUm73Y6sBEghb7Va5Z+EYcjXKhQ/Z4z5vt8tg6ZMnPq1U26DXqTfOZ99zmQyiWE9xxhLLOnmZFnmdStibXQul6O3hw4deuqpp1LOAAAAAAAAvUAAvcZQB/SZvgsAAIA1rMcZW1G34ei3Dg0+pxQiUzmG53kUOvcyHC0enjhwzSeaO52OoijZbJYxxhNnQldkQv+GuKnbs6VribXLcXwIOiWnZl2C/sSFB+kZppxK0zQx36fXkiRRBi1J0t69e1MOBwAAAACAXiCABgAAAGDsNKXMPNLtnKiXQ/htJNYlR7o1PM87iTFnfjP0wvd913Vt226325VK5c0332w2m3RIGIa5XI7FAmjGmOM4juPEA2hajbDbMoNUxBE/W+LOiUG2WADN90yMnsVD0os4IgtL0s6KoiiKkslkFhcXUcQBAAAAAHCKEECvMeVyeWZm5kzfBQAAwBrWbUo3PcdcNkoWD4+fKjGMjiymF4+eKYrlY84n160RhiHPmnnc3G63m82maZqmadq27XmeoihBELRarbm5ORpVLhQKvIUjssCg4ziJc8pBEHSLmHnknTipHQmXxeUBxR1YLK9PD/f5IHkE30FVVXFKmjbREDS92Ldv38TERMolAAAAAAAgHQJoAAAAAMaWUuZum1hvqxGe9Aw11T0ndmusKHGmw+lYypopZabImDJoKoymkWR+OC9E9n3/+PHjjuMoikI7RKozwjAMgiCxT4N6Nrqt5Uif27ad8hX4Cx5wx6eYIyH+shl0YjsHf20YRnyTJEn0uSzLGIIGAAAAADgVCKABAADgHEIhb+KmlAloOoTnqvHQUzz2JDo3qF6D0uHeuzV41uw4jmVZNNfMJ5rpPPyKVN9BuXPi7fGJadd1M5nM8ePHDcOgQWC+uiBFz3R4Lpfjn4snpDHqbjdMIhl05OmJ1+pW6JHyNi59IUeeNUduRtM0XsTx3e9+N/0SAAAAAADQDQLoNWbTpk1YhBAAAKB369at62U3ih27xb6Jw9HLDt72cl0KkcVgt9tuPKGmrLnVaiVmzeLt0cqEtDZgt9xZvARbyogZY5IkVSqVXC5Hk8t9fX2RWLyvr8+27cTrUiyeeBXaP2XJRB7fZzKZlGey0iKOeAYtTkbLspxYxEHBNIo4AAAAAABOBQJoAAAAOJtFVpljQsYq4llkyqbEDHrZ8dseJfYUO47Ds2bLsiiATo+qI8POK60E4QXZhmFQTzStHMgjY35pTdNo1cHEe7Asq1sRByXafAg6ffC8W2F3Ypt2N7wJOnETbc1ms+KH9EJRFPr9wRA0AAAAAMBJQwC9xpTLZUxAAwAAnKJ4XtnLwHK3MLfT6aSE1MvqdukwDBVFUVW1l3vrpWQjfn7an2JuipjDMOSXK5VKkiRlMhnLsgzDoDCaLX1HXdcZY7Ztu66beDOJqxHSXDNdvduUtBgup8xKi+eMj6jHlxwUZ5zjJEnSdZ3vTF+cMWYYBr0+dOjQU089lX4nAAAAAAAQpyy/CwAAAMBZIb0LmJxcNp0oZVXDXm6DjpVlWZIk3/fjg898Wb/EZJyPP/MXtL/4VpySLhaLkXFjXdcNw+h0Ou12u7+/v1arNZvNYrHIe7SLxWKz2Ww2m/GeE1qNUNM0vrZh5KtlMhnf9xVFUZRl/nXU9/3E7JhO0m2uOfFDWZZT4mxVVemBsKVfA+ruMAzDNE1Jkvbu3btjx47h4eH0GwYAAAAAABEmoAEAAOCcEy926HHK+LTsExe/upgpZzIZVVV1XaesloJj13Vt27Ztm5qgbdumbuhms1mv1+v1erPZpGUJLcuihQpphUPf9z3PsyzLtm2et1L2Gr/5XC4ny7KiKNVqNZ/Ph2HYbDb506N6iiAIGo1G4qNILOhgS03Q8dUIxWP5zXQ6Hc/zenloKZE0PyRlq7gaId8zk8nQk6fVCPfu3dvtcAAAAAAASIQAGgAAAOAkO6D5DqexDJp1qZbmyyQuLi7WarVGoyGGy5Qv80A5fkLP8xzHsW3bcZx4/k71HfEDFUWhO6F1CKnZma7Lllo4GGOe5yUWcdDOiffDp7NTijjE24t8L3oa8QfVYxl0vKCDiKsRipvy+TxjTJKkp59+GqsRAgAAAACsCALoNQYd0AAAAKcuZQJ6pav2iU4lhhbjzsg9UHxsmqbneWEY5vN5nvymC8MwPuws3ipHc81i83Kz2Tx+/PjCwgJ9MjMzo6pqLpej07qua1lWsVjk+3cLmh3HSZxf5jdDXyrxWPFhiicRn1U8gF42g46EzpG3fAiaCZ0tkiRRBq0oyr333ptyfgAAAAAAiEAADQAAAOeKlA7o9N4GetFLNh1fCi9xHy6+SVxCsNPpUNRL8SttoqYIykMTT07DzjQczaP2SOLMlrqhqZGj2WzOzc01Gg3P8+r1+vHjx5vNJhVlSJKkqurc3NyhQ4dGR0f5o7BtW3wgdJ+JT4Nn05HgmA9Bd1uuUHw+vIgjsXkj5W1cehW4WMQhXk7TNCriWFhYQAYNAAAAANA7LEIIAAAAZ7OhoaH4hykx8UmMMJ/0KoXx8/B0mMqaU6JVRVGKxWK73RZXFKSFCiNrD3ZbitDzvCAIgiCgVgrf9+fn5yMhu6Zp5XJ5fHx8y5Ytl1122Q9+8INXX301m83S1iAICoVCq9Wit+12W9O0yIKBdDnLsvhRXBiGlAUHQeB5Xny5QrZU68z3F98m7tPtExEtLRhp2RYfLxVxUP4u5uD5fL5er8uyPDExMTExsWPHjm6XAAAAAAAADgH0GoMKDgAAgBXpJVAWR2ITu4Z7P9UpymQytFRgfFN8YlqSpFwut7i4WK/XaQfKTLsRQ2fxJJlMpr+/v1qt0ncfHR298MILL7rool27do2Pj4tnWLdu3U9+8hNqbab7GRgYoH4PtlTE0dfXF7ntTCbjOI6iKLRoobiJ4m/GmOu6sizzH4TYuy3+CDzPS6wfSU+cRbSbLMvx58nPIMuyYRji4DbtSUUc7XZ7cXHx3nvvvfvuu3u5IgAAAADAOQ4BNAAAAJxzaAS4WxVDSprZe9DJRaoklqVpGsXQ4kXZick4zTv7vu+6bhiGhmGYppnYEJIYOov3ls/ny+VyGIY33HBDp9O54YYbUu6tVCp9/OMff+ihh/ictSzLAwMD8/PztINlWYZhxINmWo0w8jlbSrEzmQz1SovdF+I+Yh6dOCst7sPHmdO7nmVZTlx3kW/VdZ2idvEnqCiKqqqe51UqlaeeeurKK6/sdgYAAAAAACAIoNceGoIul8tn+kYAAADWgNdee42/FhPnbqEw76mgvDKSWoZhGKmYiJc/xM+5othakiSqG6YWDh4r05kpeqYR6SAIXNfNZDKyLOdyOap+ZkLoTAErP1BRlOHh4U2bNr3zne9897vfPTo6+sMf/vA973nPxRdf3OO9McZ++Zd/ed++fYcOHeKf6LpuGIZt2/S20WhEak94xBwv4qBsmh6p53myLKuqmtinIRZxJP7xILIbfZLe+s17NhJR0EzPn1d20NR5o9FQFGXv3r07duwYHh7udgYAAAAAAGAIoN8Kb7zxxuTk5ObNm7dv356+5/PPP79x40b87xYAAIC3yIMPPnjkyJFldztdJc4pehyCpqCWMSZJkq7rqqpSPzL1QdMLvjNv6qBSY0VRLMviiwcyxrLZrK7rw8PDu3fvvuaaay699NLI5W688caT+C6/93u/d/fddx88eJAmmhVFGRoampmZoa1BELRarUKhEPn6VMSh63okFOZD0Iwx13XjU9IsaQg6sYijl3royP4p8+mSJGWzWdM0aQc+WE2rFNq2Xa1W9+7d+6lPfarb+QEAAAAAgDGWtgg4nIR///d///jHP/6f//mft9xyyze+8Y2UPaempn77t3/7+eeff9vuDQAA4NxRq9UefPDB6enpbjOwYpKbuI8YO0Y+FCWGnsvu0yNJklRVzeVyhmGEYRhJn3nQLMuy67qNRqPT6RSLxf7+/l27dl133XXXXHPNL/zCL1x00UWMsU2bNp3cPcSNjIx89rOfveiii9rtNnWAKIpSKpX4DrZtRyaLeYsIX7FQ3MSnvGlKOn7F+GKMkfaMyCqC3Q6MoCHojCCyA5/I5lvpn5qmSZIky/K+ffsmJiZSLgEAAAAAAAigT6cgCG6//faHHnroa1/72r/+678+8MAD09PTiXt6nve5z30u8h+o9gjrEAIAAKSr1Wr/9m//Rv9fOLEZOUKMKSOv4xUcvZwtYkU3kEiSpGKxODAwUCgU+Fi0pmmapuXzecZYJpPRNE2W5ZGRkR07dmzYsEE8vFarfetb31r2Nno3MjLyh3/4h5s2bXIcx7Is27az2ayi/O9/WhcEQaPRiBxC39H3feoJiWziDzYy5R05nAuCgB8iDkcve2BEJHeOZ9CUNYubaN48l8tRfn3fffelnB8AAAAAABBAn05PPfVUqVS64IILGGODg4NXXnnlvn37Evf8y7/8y/e///00kQQAAACnUa1Wu/vuu6enp4Mg6HQ6lM/GiSlnpIchnmy+RcSEOiWt5jm4LMuGYfT395dKpVKppKqqqqo0NawoSqFQGB4e9n0/l8vFT1Kr1R566KHTePMjIyN33nmnrutUOR1ZQtB1XXEdRf4FGWPxGedOpyNOTPM6aVEk+udD0MuOqPcS7qdv5a0gfM9MJqOqKi0XWalU7r333vRLAAAAAACcyxBAn061Wk1cxqdQKIhL9HD79+//yU9+8vu///tv460BAACcE6anp++++27GmGVZlDyKaWxioByfn+UvEus1xJg48YQ91j33Ll5AwRij2WeqQh4YGBgaGurr60vPUuv1eq1W6/Gi02ya/1+3fUZGRr74xS/yOmZaO5Fv7TYEHYZhu92Ob+Jfs8cijkgnSeI+fM9uX4EtTTSLbyM7qKrKV54Ut2azWVmWFUU5ePAgijgAAAAAALrBIoSnUxAE4v+A4QumixqNxm233fa3f/u3J30VVHAAAAAkmp6efvDBB+k1nw6OZ50kPUSO7MPx/8+evrpdXGTIekWHd8tPaQ6X91fw3bLZbOL+tVrtG89/o/O+zmF2mD7h4XL8hWiMjX2CfeIOdkd80+7du2+55ZZ//ud/Pn78OGOsUCjwjJuKOPr6+vjOfL1Bx3E0TVNVVTxVEARiiYfv+2KczZIeGh0SH4KOfNLtUfPPZVlO+btCp9MxDIN+kcSfI61S2G63FxYW7rvvvq9//euJVwEAAAAAOMchgD5Vf/Znf7Z3717GWD6f//znPy/+B6RhGMZXcv/qV796ySWXHD58+PDhw9Vq9aWXXtq8efP27dvf1psGAAA4Gz3xxBM8OqT0OaWCI1Eku6S0UfzkpEPkkyb2gYh9HfxDfg9UOZJ+tvrz9a+/b8U56TSbvpPdyRhLzKA/8IEPvPOd7/zmN7+5f/9+SZLy+TwP/amIQ/zXIf7Q2u22uG4hE+Jp+ta2bRcKBb6VLzMYeebUhR05T7zWedlUWpblxO5ptrRWYTabpblsMYPWNM1xnE6nMz8/v3fv3o985COJZwAAAAAAOJchgD5Vv/mbv3nNNdcwxhRF6XQ6L774It+0uLj4q7/6q5H9h4eHX3755X/6p39ijB09evTJJ5/s6+tbUQBdLpdnZmZOx70DAACcPQ4cOHD48GF24lgrW0oeKTEU/0OlMAzDMJQkKT7uGoYhr1xgqUHz2xBAxxdIjKTMPGDllSOWZXUbgi7VSmPTY9Nj0ydxJ3eyOxMDaMbYyMjIl7/85e9///sPPvjg7Owsf+A0BC2uusxTZhpO538eoG8hDkGHYeg4Du/34IfHl4UMgkD8eYm7Rf54kFJRQimzOEkQIcsy7RAZZs/n8/V6XVGUp59++oorrhgeHu52BgAAAACAcxMC6FO1bdu2bdu20WuaUXryySff9773vfLKKz/+8Y+//OUv06bnn39+/fr1o6Ojf/AHf8CP/dSnPvWxj31sz5499PaRRx4pl8u7d+9+e78BAADA2ra4uHjgwIFnnnmGR7GRHTZv3nzkyJH4gbRnYtEzvYjUQ0eSx25nOL0d0Ck1ICKenGYymW7pM7n6yasfGHvg5G7mCfbEVeyqbluvvfbad73rXd///vfvv/9+x3H4jUUCcZ7ve57neZ5YxEHpP4+JPc9TFEWW5UiOHAmXfd+P/CGB9kn8yab8zYAO6fbjo8KNVqvFYkUc+Xy+1WpVKpX77rvvS1/6UrfzAwAAAACcm7AI4ekkSdJf/MVf/PEf//EnPvGJG2644c///M/5yM/dd9/9zDPPpB9eLpe/8IUvvPW3CQAAcFZ56KGHnnrqKSqgSEwPy+VyeuzY46bEAWR24gJ6KU4xp47fJ31Cca3v+zThWywWE4/lBhoDK7ruimzYsOGTn/zkv/zLv4yPj/MP2+12ZLI4ZTVCMV6nIo7IDonPv1t7xrLHimgIOjG5JpIkUVwe2UFRFFVVFUWZmJjAaoQAAAAAABEIoE+zyy+//JlnnnnooYeeffbZa6+9ln/+wAMP/Pqv/3pk53vvvZePPzPGdu/eXS6XH3nkkfRLbNq0CYsQAgAAcMv2YBiGEaloIN1Sy26L/rETE8x4oNwtoU4/T4R42sQ7SazgoMFhwzAGBgYOvOtA5kTi/qVaqVQ7oXy5R2NsLGX8WbRhw4bbbruNvw2CIBI08+8VhiEVK3N8TUW+g+u6kfMnrkYolmWnDDIvm0Hz8erE3ytd1+l3SZy5piHoTCYjSdJ9992Xcn4AAAAAgHMQAujV5dZbb73nnnvO9F0AAACsJbVaLX2HbDY7ODiYmEGzpPyaosxuuXZKPM16nobuUWLWHHmdyWQoSVcUZePGjc1mc9nT1krLPLG4MTb2AFtBccfo6KiYQVuWFcmR+VdzHMfzPHFT5Al7nhf5JPEJ00m6rRgpfpj+A0rpiaatmqbFc2oq6JBleX5+/t577005AwAAAADAuQYB9OrS4xA0AAAA9GhmZmZmZub888+ngliqWUUAACAASURBVAVxk+/7b8MqgqKVXq5bhBr5hBZUpOKvWX126+GtJ32HiT7JPvk6e73H8WdufHxcLOJoNBriVv4t4j0bnU6HKjv4cHdkSpol/Rmg0+lEguyTHoLmvyeJPy9VVWkH8W8AjDFN0zRNUxTl4MGDKOIAAAAAAOAQQK86yw5Bl8tlVHAAAACQZcefLct65ZVXaAhaVdXIfGtiwthtcUJxay87nKJ4xpq4yqIkSa7rlsvlXC7n+/7rW15Pb9joffz5KnbV7ez2DuusaPaZGx0dvfnmm/nbIAhoBT+OfxHP8/iihZFN/NhewmWxiCNlt5TPaaJZrNdIbDIxDIPFBtKpAkWSpIWFBRRxAAAAAABwCKBXHQxBAwAA9G7ZAHpwcNCyLNM0L7jgAlmWZVnmGfTJJcWnsWFjpRfiAbTYPux5nmEYuVyOMVatVk99/Jnnzo+zx+9gd5zKqcbHx6+77jr+1rZtsYhD/IKmaYrZMR+C5hzHiYTLiV0o3Yo+uMRy53jEnFjYwneTZTmbzbIT+zoymYyqqlQSPT8/v3fv3vgZAAAAAADOQQigV6OvfOUraIIGAADoRbycIbL+3tDQ0Lp161555ZVcLqeqKmNMlmVFURhjYRgmTjH30gH9Vnd39NIlLcsyzXRv3ryZMeY4jmma9NVSTjuXm0vcdBpzZ1FkCDqyGqFYxGGaZmST+ATCMEyfkuZSZqUjDdGJizTyPbuVhhP6YwaL/SZks1lFUWRZfvrpp+fn51POAAAAAABwjkAAvRqVy+WUIWhUcAAAAHCu61ar1cSeBG5wcLBarc7MzFxyySUjIyO2bfu+ryhKJpPpFmKmrDS4bC68bMXwsuFyyg68HoTqhhljAwMDjDHHcRYWFhRFGW4PdzswDEPXdY1ZQ/z8LcqduchqhK7rin8zEL9mZDXC+BC053niDt1+fNSIHb9E/Hdj2Z9Uyp8ZaNXB+GklScrn87IsVyoVFHEAAAAAADAE0KsWhqABAAB6sX79+ldeeSV9HxoQfvXVV2dmZsbGxt7xjndkMhnLshzHSYkgT2XGudNFjzuz1GxUURRN0+j2ZFnOZDKu6y4sLNAhraFW/JAwDKkfOZPJBGHA3vrcWXTdddeJqxFGhqDFsDheEh35S0B8CDo+4Jy4GmG3su/0X4D0IWhJknRdZ7FfFUVRdF2n1QifeuqplDMAAAAAAJwLEECvUuVyeffu3cigAQAAlrWwsLCwsJCyQzabHRoaYoy9+uqrU1NTAwMDu3btGhsb63Q61WpVkqT0nDHiVCo4xMRz2VQ68gkN/Jqm2Wg0qtVqtVptt9uSJAVBQF+fYtYRayRyHt/3eYybyWR83//pcz99G3JnkTgEHQRBo9FI3C0MQzGDjg9Bh2FIA9Tpz5++dS83tuwQNC1I2O1yVIES35rNZukorOoBAAAAAIAAevW69dZbE/9HCyo4AAAAItIDaMZYuVxmjEmS9Oqrrx4+fNgwjK1bt15yySWKoszPz9NMMU0Tn/rNLNvRkX6VeLMEjeKGYTg3N2dZVhAEiqKMjIwMDQ1lMplarcaHpsUDKb2NBLiMsXXNdeLSeW+P0dHRm266ib91XVdcLVAcc44XcUSGoD3PE8Nl/q0jT5UmvpkwFt3t3tJ/XvxZJf7UJEkyDIOduBohvS0UClTEce+996acHwAAAADgrIcAevWiIegvfOELZ/pGAAAAVi9aV3BmZiZ9t3K5fP7559OM8JEjRw4dOuS67ujo6K5duzZu3Li4uJjJZBRFUVVVURRJkk46r+zRsh3Q9IKWGVRVtdVqzc3NMcYMwyiXyxs2bFBVlfqUxYiZJ9E8eqb5bvpqqqpqmtZqtd7qFRQTffCDHxwdHaXXQRDU6/Vue0aKOOJ93LZti28THyYVcfBvetI/0GWLOOivFyzWGa1pmqZpkiTt27dvYmIi5QwAAAAAAGc3BNCr2q233rp///745xiCBgAAILQQn2VZL774Yvqe559//vnnn5/JZGzbbjabk5OTx44dy2az27ZtGx4e5sUO1KhA2WW3SeFTz6CXjYBlWaah7CAI5ubmGo0GRc8jIyOKooRhaJqm67pBEEQmfOkFD9NlWY50RIijx2+n0dHRm2++mb8NgkAMmsWUmb4dfxsvKuFFHOkiZdAnkUFTpswfYLeFLqmSm+/DP6fVCBljWI0QAAAAAM5lCKBXNQxBAwAApFhcXJyamrr44ovf/e53B0Hw2muvpe9//vnnb9u2jSJC13VnZ2ePHTvGGDvvvPO2b99eKBQsy7Jt2/d913VrtZrv+7qua5pGY9H8PD3OL6+UJEk0sKyqKgWXvu/Pzs5mMhkePVOo2m63acCZAlYeeq5fvz5yqxGzs7ODg4O5XO7k7vAURVYjTBzfJpEijniRSBAEkSKOxCvyIo5u+8QD5YyAfxgZgs6ciIo4+P78WCriUBSlUqns3bs38Q4BAAAAAM56ypm+AVjGrbfeeuONNx49epTKKwEAAM5Zi4uLx44do/8G6MiRI6+++mo2m9V1/bLLLlMURVGU73znOwMDAwMDAyknoSHoubk56u44evTo4uLi6OhoX1/f+vXrBwYG2u12u92u1+tBEDSbzSAIisUiRbo0ihuGIf0zZW26ZfGAkiVloKRer7uuWy6XacqbMRaGYRAEpmnSIUEQ8PrjTqfT399PfcTd0AKGW7dupcqIM+K22267/vrr6TUNQff399NbKkih17QaIf9R0gMX65jDMLRtu1Ao8B3EwznK63Vdj1+CnTit3Ol0UoJ7KuKI5+B8q6ZpnueJw9r0Q6FR9CAInn766SuvvJIWwwQAAAAAOKfId9xxx5m+B0jT19c3MTGxf//+PXv28A9/+MMf7tixA5E0AACc3RYXF3/6058ePHjwP/7jPx599NEDBw5MTk4uLi6apilJ0vDw8PDw8MDAQD6fpyS6Wq2+8sorw8PDFC7HUW47ODjIGGs2m5QVep5nWRYti6eqarFY7OvrK5VKhmH4vt9ut03TzGaz1MNAkWWwxPd9CoV5Kk0vstksdV/wCmb6J40n27Zdq9VM07Rt23VdCi593+90OnzS1nXdbDbb19dHqShdpdPpOI7DI046hF6rqrpu3br05/nmm296njcyMnLllVemR9VvnWKxuHHjxieffJLe+r5PTSN8B7G1OZPJqKrKP4msB8jLRuLHxsXXEkzcOf0vCumz7Yqi0I9SPJskSaqqOo7TarWOHDlyxRVXpJwBAAAAAOCshAnoNQBD0AAAcC6YnZ01DON//ud/CoXCsWPHaMA5m80yxhRF2bhxoyRJ1IYhZo68sEJV1fe+970TExPPPvusGPMlRoqbN29ev379a6+91mw2GWOO41iW5ft+s9nMZrODg4OGYZRKpVKpRH0XrVar0+kUi0U+dMyW4kjewixeSJze5YIgaLfbdEX+CQ3VUi+zpmmO49DidRQQU6jNr0Wlz3Ssrus875ZleXh4mDEWhqHneZTnzs3NFYvFYrFI+zcaDcuyNE17xzveUSqVVv7zOW3Gx8fHx8efe+45eluv1+nmWWxC2XEcXm0RGYIm9GXp96HbEDRjLAgCWZb5edKrvbtl0DQELfZ+REiSpOu64ziRVRNlWc7lcq1Wa2Ji4umnn0YGDQAAAADnGgTQa0C5XL711lvvueeer3zlK2f6XgAAAE6nI0eOHDt2bGJiYmpqamhoiOJmQnPKkdBZlmWeONMm8WwDAwOdTsc0zQMHDlxyySW8eCGRrus7duyoVCpHjx6lAVWKjC3Lmpub0zRN13Vd13O5HE+i+Zgzbxbms89MiC8zmYzruq1WixdENBoN0zQpO5aX0HA0LTYYuTfKQG3bptiUn59qkXVdp3hakqRaraZpGg+U6/W6qqoUsFKeTgF0EATz8/O0z5YtW1b+gzqdaDXCW265hd4GQVCv11OKOPr6+vjbSHYcL+KIFzqzpUdHz3nZ/u6UIWiaaI4visipqkpj6ZEdDMNwHMdxnL179yKABgAAAIBzDSo41oa+vr5vfvObvHZj//79fX19O3bsONP3BQAAcPIWFxe/8Y1v2LYdBEF/fz/vzaBJUkVR+vv7C4VCoVAwDKNQKPT39+dyOQqpfd93HKfZbJqmubCwcPjw4ePHjx89enRqaoox5jiOaZq+7/PssptcLjcwMKAoSqPRCMNQ0zQadKVODNu2m82mZVk0Nkt3paqqruvZbNYwjFwul8/nDcOgDhBVVfkZfN+nf9L0NN05/wq0tiFfbJAtJde86IMW6KN0m1JXx3FUVc3lcvxB0bHid6RyZNrB87xcLmcYhuu6CwsLrut2Op2BgYEPf/jDZ6p/gxsdHZ2dnX3llVfobafTiTwK/iIMQz7jTOgR8bdiEUd8FD1S6MGPTa/aSM+gU0JquoRYjcI/V1WV/ixRqVR27dqVcnUAAAAAgLMMJqDXBhqC3rt37+7du8/0vQAAAJwe1Wq1Xq+/+eabGzZsoKpcCp2pF5gx5nkeVSQTes0Y830/CAJnCZ3NcZxarcZP7jgOLVe4adOm9NvQdb1cLg8NDVUqFargYCdOwtIosSRJuVyO2pwZY3yEmS0FwTSazRiLxLt8PjcuCAJFUeJpJh+X7nQ6VPpBV493R+TzefEtTdq6rivL8tDQkCzLrutWq1Xaqqrq+Pj4me3f4G6++ebHHnuMXtNqhDTzzmJjyKZpiqsIxk/leR7Pr8VjIw+W/iQQP39EehEH/Qi6rUbIGKM/UVDcH/ncMAzTNKmFA2MEAAAAAHDuwAT0miEOQf/whz/ctGkT/qcLAACsaZqm/dqv/drk5CTVUGQymWazWa/Xm81mrVar1Wo04EyL9VmW1Wg0HMepVqvNZnNxcbFer8/Ozsqy3Gw2f+7nfm5iYuK1117jg64UWTabzUqlksvl0us4GGOKohSLxVKp1Gq1EhNMSZJoGpe3cPi+T0sX0qBuZB1Cyo4pX45MN9NpXdelQmFxCT4mpM9saXLWMIzEnLrbF6EoX5Iky7J4KO+67ujo6Ec/+tFVEkBHViOkmmY+3C3OKdNTFYtKIkF8fIduY87iMo/pY87xrfxDXoqSuBtjTJZlsSucUxTF933f9ycmJq699tpuVwcAAAAAOMtgAnrN4E3QDz/8cLlcnpmZOdN3BAAAcEpoNHh2dnZoaIgPMnN8zJly52azmclkGo2GYRg///M/PzIysmXLlne/+920c61W++lPf8rX3xM5jvPaa68NDQ2tX79ezCjTu4BZbE6WUmaqEhaLHTqdjuu6lJyK6xP6vk9JdLzvotPpUK0HY8zzPN/3s9ksnZPS58SG65VqtVqtVou/1XX92muvPeMF0KLIaoStVouXgFPdM/8ROI5DDSesy2KD9McA3vLcLRqmVhPxzBGRyo5uIbW4GmG8D4T+/mFZFjvx14zG2D3Pq1Qqe/fu/chHPrL8MwIAAAAAWPsQQK8lu3fvvueee/bv33+mbwQAAOC02bVr1+HDh+m17/uLi4uu67755puKoszPz2/btq3T6Vx11VWdTkdMnCNKpdKXvvSlP/mTP5mamqKkWNzqOE6lUqGC5l7mf3k6yV+IdRw0lUxjsBQv8siY78NHmB3H6XQ64uKK1F4duZxlWZqmBUEgSVIvBc1i6EmNw7wlmTbV63XTNMVDLr744iuvvHLZM7+dRkdHb7vttuuvv57eRlYjjOCrRPLR8sgOjuPQ3DdLLdlwXZeecLcVC3tB8+yRXzPxDJqmUW8M/0Xin1M2/fTTT+/YsQP/NRsAAAAAnAsQQK8lfAgaTdAAAHB2eP755x977DFZlqni2XXdUqn0zne+833ve9/Y2NjFF1/c+6m2bNnyW7/1W3/1V38lNkGL4nFhCkonedMCD5ep7YFKh8XhVs/zdF3ng8/iqahqI5/PS5LkOA5NzvJSDrZUJ81izRJct2CULletVsUlHMMwbLfblmXx+6dLrM5529HR0Ztuuunv//7v6a1lWdlslgaZaVSZ7xmGYavVoql5+ilEHlcYho7j8ArvblfsdDr8x5e4XKG4Z0okTWPUKRfKZrN8NULxZ1EoFGgI+pFHHkEADQAAAADnAgTQawwNQdOqSgAAAGvdli1brr766g0bNui6rut6twHnHlGv7le/+lVaqzAiJS7kY86appXLZdu22+22bdvdahwymcz8/PzY2BhjjHo2+CXik7mE6kFkWV62zbmXOVyKninL5nk3JeOu6zqOQ4knP9WVV165qso3RB/84Acfe+yx2dlZeluv14eHhxP3pJliyo5pWjy+A1Vgs9T4mE+sxyfcI1JOkslkxCKOOCrcaLfbfH86oSRJhUKhXq9PTEzQgoTdzgAAAAAAcHbAIoRrTF9fH1+NcM+ePWf6dgAAAE6JYRiXXnrp2NjYpk2bRkdHT/2EQ0NDjLEXXnghUmQhSZKqqqVSidLJyJKAYtsvlS8XCoVCoaCqqiRJlDgzIaaUJGlqaqqvr4/mmuUlSneyLEcuRDIx6V+QQlhxztq27WKx6HmebdvBEiZMAX/4wx/+4Ac/eGrP9S1ULBaLxSJfjZBum7c5iykzDS/zPpPEh8lXI4wcG9+N/lRAvwbpd5iSQbPUaevM0uqUkUMURaFFLA8fPnzZZZflcrn0GwAAAAAAWNMQQK89fX19ExMTzWZzdf63tAAAAGeQYRgXXHDBwYMHFxcXI5uCIGi1WmEYFovFXqaMKYnO5XL5fD6fz1PvM+XRnU6nUqkcO3Zs27ZtK7q9lcbNHM1ZO44TLxJRFCUMQz6Ky2sfOp2OLMu/8zu/84u/+Isrusm330UXXfTcc8/xIeggCAzDoPg48pToq/EZ58iakzT3HYYh/zND/AmLywzyvwqk317KDmK3RuJWRVFc1418SDXilmWZptlut3ft2pV+AwAAAAAAa1ryYAisZuVyGdEzAABAN6VS6a677kqMBV3XPX78+MTExPz8fMoZqLWZinrn5uYoqcxms6VSaXBwcHh4uK+vb926daZpHjhwIP1mTi5uJjQ8SxPNVDoR34e+Jk+lgyDglSCKonzmM5+57LLLVnTRM+W2227jr2k1QnodD9wdx6GKlW6dKjQhnnisiB5USnzMpUfMkRA8otuqkrIsF4tFxti+ffsmJiaWvQcAAAAAgLULAfSaVC6Xz/QtAAAArF6lUun+++/fuXNn4lbXdSuVyuHDh+fm5izLiu9AuWQmk6E+5Z/97GfiVgqjt23blsvl3njjjYWFBXHrqSTOLBY6i9FnYpwqfiiG1IODg5/5zGcuvPDCld7AmUKrEfK3tCIlvY7kv2EY0k8tk8kkhvKMMdu2WdJ4cmSYmi7RSwYdx3/EkiSl93ioqpoYUhuGQdn0fffddxI3AAAAAACwVqCCY6166KGHPvGJT5zpuwAAAFilCoXCzp07C4UCxcdUhsC3UgWw67rNZrPZbFJpA68Mnp+fz+VykiQ1m01JkrZs2RJfWlBV1f7+fgqgBwcHs9nsihJn3pLBpSxnRzccD1upbkJ8TbH1tddee9NNNw0ODvZ4M6vExo0bDx06xIs4XNfN5/Msqc05DENq3GYnljiL9RpiEQc/MPEHlB4fi8Xf3f60QF3PKVtlWY4UcdDnvIijUqmgiAMAAAAAzlYIoNekZrP5yCOPIIAGAABIQRn0+9///tdff31+fj4SIsuyTLFmGIa2bdfrddu2aZ9cLmeapq7rhmGUSqV4+kxyuZxlWfV6XZKkTqejaVpwIip54LkwE2ofItPNtFvKunmJ8XRkJjoIglKpdNNNN11++eUre1KrQ7FY3Lhx42OPPUZvaaCb91dEUl3f9zVNoyfPH1pkH/4jzpy4hqSIDu/WFh2PkhPvPL4aYWQQnu4zPsNOl3Zd1zTN8847b3h4OPH8AAAAAABrGio4AAAA4Gw2MjLy2c9+9oYbboh8Hh8otixrbm6uXq83m03GWLvdpiKOxNNSsLh9+3ZN0xhjnueFMUEQ+Es8z0upeqBoslslMa91Tv9wz549t99++wUXXNDtKqvf+Pj4ddddx9/yIo7Er2+aJjtxDDyyAzV1pDdsUBFHfJ/4zz39PClj1PRblM/ni8Wipmm1Wk3cms1mFUWpVCp/93d/l3J+AAAAAIC1K23lbljNtm/fPjk5eabvAgAAYM2Yn59//PHHv/Od79BbqnKO75bP5yMjz5IkqaqqaZosy9TqIKpUKm+88cbg4OCGDRsS/7WKx8q8NSK+g5iGx/dJDK/Fmeg9e/bs2rVrYGAgfvI1Z3Z29vrrr+dvNU2jLhGaI47s3N/fr6oq9ask5r80xp54rEhVVToPvU3/q0P8Q2pQEaNw+oHSbwv9iYLzfb/VatXr9Xa7PTAwIEmS53nUJH7zzTdfccUVKfcJAAAAALAWIYBeqxBAAwAAnAQxhs5ms/HV4SRJKhaLKWfIZrP0r0+0+pwsy41Gw3XdUqkUTznFoWbq/I0nmLygg+8m3lUYhvH+DZqwHhgY2LVr1549e5b91mvLY489dtddd/G3/f399KeC+JSxJEkUT0uSlBjuS5JEI8aJywCKu1GhR3pOzU7MoDudDp2Zpt0ty3IchzEWBIGqqolz2SLP83zfd12XTuh5XqFQ+PznPz80NJR+IAAAAADA2oIAeq1CAA0AAHDSKIb+3ve+xyeaxWSTxmYjh/AomSZq4w0Yuq7H48tICknD1JHTFiqVWqlEb0u12rYjR14YH6f76V9cfMf//b//9Yu/GDmkr6/vrIyeyezs7F133fXcc8/RW1mWBwcHqdA5Ht/rul4sFincTzwb/UUhZQiazilJUuJPMPGE9NOn0eZ2u80Yo9JwTdP4bdAfCVL+Tdt1Xcqg+d8zGGPj4+Mf+9jHlr0HAAAAAIA1BAH0WnXNNdc8/PDD5XL5TN8IAADAWlWpVA4ePHjw4MF9+/YxIYOWJCmfz4tZpDjITHUc1Lcg5suyLEfKFiL5I50/Mo37oUceGZuefu4d73j8yiu3Hj78/zz8MGPskQ99aKDReNeBA6VabbG////9vd/j+2/dunVsbOz973//aXsKq1KkiCObzfb39/M1/SI7UxFHtyFoxphhGLqudxuC5ieMFHEkop94JpPxPM+2bfpl6JZ9p2fQnU7HcRy+RiX/HRsYGBgfH//ABz6QchsAAAAAAGsIAui1CgE0AADA6VKpVCqVyr59+yYnJyuVCmNMUZR8Pk9bI1PMmUwml8vxTWLCKI7QdkseM5mMruv0+sOPPPLOAwfoda1UKp24PB33//3Jn2y9+upSqTQ+Pn4qX3Ntueuuux577DH+dnBwUNf1xACaijhSmqBlWc7lcjRDHd8qVj8bhtFtCJp+oJIkWZYlyzINwqd/BcqUUzJoz/OCIKAMOnJUX1/fpZde+qEPfSj9EgAAAAAAqx8C6LXqxhtvvPXWW3fv3n2mbwQAAOCswpPoN954Q5blxH9TMgyDj9OKo9CKotAwrLgeXZwsy0Ot1of/7d/Gpqd7uqfHH2dXXbXib7LGzc7O3nLLLbOzs/RWluX169ezLisB5nK5XC7XbQiasmnaIXJsvFQ6kix3BI7jKIrC/35AvwPp/y5NvwbdMmgq+KZVKCMZtOu6NIl/yy23jIyMpFwCAAAAAGCVS/4PFQEAAADOTUNDQ1T+UK1WX3nllampqYWFhWq1Wq1W+T6+7/MAmq8ZSHOsPIBOucRVTzzx/n373sLvcFYYHR29+eabv/KVr7iuyxgLgqDZbBaLxU6nEw+geRtGGIaJI8y+73uex7PjbigRph+i53l0KvqQ4uDI/nQn3Ubd6VZpbpq+QmQfHojTrxDfgRqrqST6/vvv37Nnz3ve8570OwcAAAAAWLUQQAMAAAAkGBwcvPzyyy+//HJ6W61WKYmemppaXFw0TXNxcZHvTPUOfBQ6JYC+6R//cduRIyu7lSeeOAcnoBlj11133aOPPspXI7Qsi5o04hl0GIatVmtgYKBbAM0Yo/llWZbFzo34bp7nybJs23YYhpqmeZ6nKEo2m43sxvNlnkHHz0Zb+fizLMvxDFqWZd/3+Z8x+A6KolBoPjs7+4Mf/KBWq/3SL/3SMs8LAAAAAGBVQgANAAAAsLzBwcHBwUHGGI+kCcXQi4uL/AUFkQMDA4yxUqnE96RPBv7P/2FXX816LN8ghw+f8u2vVV/+8pevu+46eh0EQa1WW7duXWLaG4ahaZq5XK5bBh2GoeM42Ww2vbu50+m02226nKqq8alnFht8Tj+hJEk8VpZlOfInCgqp6RuJGTR/6zjO0aNH5+bmnn322S9+8YspFwIAAAAAWJ0QQK9V5XL56NGjZ/ouAAAAznX/GysPDPR+AHv88ZVl0CtKq88uQ0NDn/70p//6r/+a3rqua1lWNptNzKAdxzEMIwiCbkPQruvKstxtMUPCFxvMZrOapsV3iDRE01sKkbt9C3GrJEninhQ0+77PX2cyGXqrKEoYhqqqep7nuu7MzMy3v/3tj3/8492uAgAAAACwOiX/2zkAAAAAvFXGxtjjj7Pbb+91/3M4gGaMfeADH9iyZQt/22w2WZeSEyrioAUDu53NcZxuW2npSFrJUFVVeiueLR5bR6LkbhelrmcushaiGJfTVkVR+J6yLNPKip1O56mnnpqamup2FQAAAACA1QkB9FpVLpdnZmbO9F0AAADASRkbY5/85Aoy6HPY6OjoF77wBV6FQUUcrEsG7Xme4zhi1XK8LdqyrPiBNMtM0TBfYZImkRPPkyhln8gmMYMWr8iWMmhqFafomfdWh2H4rW99SywfBwAAAABY/RBAAwAAAJwJY2Psjjt6yqCnp9+6Ieg77niLTnw6jY+P79y5k791Xdd13UgAzd+appk+BO26rud5kQ91XWeM0SqF8XOyLnl3/MNuGXT8czGDFpdGZCdm0PSWl4HMzc394z/+Y7evBgAAAACwCiGABgAAADhz7riDPf748ru9NQF0QKHaMwAAIABJREFUJsPuvJNt3boGSj7+9E//lIew6UPQYRg2m01xCDqOQmp6LUlSPp8PgoDGjTlKsX3f59FwegYtNmwkXjT+uSRJPGLm+NloApoC8Uwmo6oqbXr55ZcfffTRbl+tWq0+8cQT/O3CwkK3PQEAAAAA3h7yHWti7gVijh07NjExsWfPnjN9IwAAAHBqqI7je99jtVrXfe64g5VKp/eyfOK2Vvvfi1911em9wumUy+VGRkaefPJJetvpdBRFochYDG3pRRAEqqrSWHHiSDL1O+u6nsvlJEmyLEscfOb70ItIMM1S+zT4DtTpkbLaId+TliXMZDJhGDKhaZofTmE6nZMcO3ZsbGxs3bp14qlefvnlW2+99cCBA9///vf37ds3OTn58MMP7927d//+/ZOTk9u2bcvlcil3AgAAAADwFsEENAAAAMCZRssSjo29bReMhKLT0+zOO9nVV6/qUejx8fErrriCv00fc242m5TndqMoSrFY9DzPtu14+syFYRg/z7LVHCy2tGD6cDS1bURaOHjizBgLgiAIAlmWaU1C0zT/5m/+hjG2sLCwsLDw5JNPfu973/uHf/iH88477+jRo5s3b1ZVdWZmJp/Pb9q0qdPpvP7661//+tf37t2b8kAAAAAAAN4imZSCPFjN9u/ff8899zz88MNn+kYAAADgNJmeZg8+yO68M/r52Bh7/fXTe6luU7ljY+wTn1i9xdA/+9nPPv3pT7uuS2+z2WypVBJHhsWddV0vlUqJ4XIYhps2bWKM1Wo1Xdd5u0VkHzonH7WO4BeNT0Bz8X/TpuHrxJ1933ccp9PpBEv4IWKrdRAEvu9blmUYBt083T+NUR87dqxcLtPOdBQF2a1Wy7KsX/mVX/nIRz6SeHUAAAAAgLcIKjjWqqNHj+7fvx//EwIAAODsUSqxsTFWKrGlognG3tb0mTFWq/3vxVdnHcfIyEitVnvppZfore/7uq4ripIYQFNNR2K4rGnawMBArVbzPI/i4/hsMmW4lN4mBtBMGHPufe3BxFslYRiK5RviyoR8Gtr3fUVRDMPo7+/P5XKaptFuFDQ3Go2+vj56ILIsa5qWzWaz2aymaVT08eKLLxaLxa1btybeLQAAAADAWwEVHAAAAACrxtgYu+MO9vrr7Pbb//f/3sb0maOVCYWl7FaRG2644cILL+Rva7WaOB0sCsOw0Wj4vh/53HGc4eHhRqNhWRYd6Pt+fDe2FBN3m1mm2Jd1b+EQTyKKLzzIc2dKzDVNMwwjm83m8/lisdjf318oFHK5XKFQ4LlzvIda0zTP8yhuzufz+Xxe13UaAJckSdf1bDbb39+PIg4AAAAAeJshgF6ryuXy0aNHz/RdAAAAwFuAYmj6vzNkepr97u+uxi6O0dHRG264QdM0ehsEQbPZ7BYBh2HYbrfFrWEY9vX1MaEkmpLcbhk0v0rkE57/RvoxEsXHq+OpNI0/xws9aOrZ9/3IyoSR81M8rapqX19fNpsVp6eJoiiSJNFA9Ne+9rWUuwUAAAAAOL0QQAMAAACcQ26/vdc9aWXCrVtX3cqE11133Xvf+17+1rIs13W7pcCWZdm2zd+2Wq3R0dGFhYV4puz7vud5/K0Y4EYmoPmmMAxpGUPP8zzPo6SYNziHYcjj6UgcHHkrnl/MoD3Pc103CAJxVlqSJEmSZFmm9mdN04rFoq7rjDFd12kHeQntTB8ahtHpdCRJmpycfOGFF9IfMgAAAADA6YJFCNeqo0eP3njjjT/60Y/O9I0AAADAGkPTzb03bKzClQkXFhauv/56vhqhpmnr1q3rthigpmmDg4OSJFmWtX79ekmSms0mbaLZYXFnCnZZrFiDz1zTRT3PC4KAJ7x8KxFvI5PJqKpKe9ICg+IKgYwxyqn5/vQ574NmQm00veD5Ml2aMeb7fhiGtKCiYRiJTyyTyQRBMD8/z/f/+te/nvKEAQAAAABOF0xAAwAAAJxbxsbYAw+seBT66qtX0Sj0unXrPv3pT/O3ruvyQuc42kqRcS6Xa7VaKRMYQRCIc9CMsU6nY1lWfQkfqeYLAFLPcqTTmRYALBQK+Xye7ylJEo0t01u+tCBbiqFpFFqSJEVRqA9a13WKlXkrdDabpaUXxWYPSZJM04ynz3wgmtJ5ytYVRanX62+++eYKnzoAAAAAwMlAAL1WoQMaAAAAThpf7HBsrNdDnniCXX31KpqDvuqqqy655BL+NqUJmrZaljU6Orq4uJi4oqAoCAKaEQ7D0DTNer1OU8+UNWuaRoEy7UxhMQ+dNU0TQ+fIaQnv+qAEmQaZdV3XNI3+ybs1+At6TaEzRcmRBQzZiU3TFDorisKjZwq7+bh3LpdbXFzs+WEDAAAAAJw8VHCsYdu3b5+cnDzTdwEAAABr2PQ0e/BBduedKzjk9ttXSwz93HPP/dEf/VG73aa32Wx2YGAgvuIfY4yC49HRUcdx2IkVGYVCQdyTUuZMJmPbtuu6VIVBy/rJsiyG12EYUnDMGFMUhf9LNVU207KBYpkGH5emdDjeCi22PIsfpj+EMAypz7rZbPb390cWMGRCl4jjOEEQUO5Mw+B33XVX+skBAAAAAE4dJqDXMAxBAwAAwCmiUejHH1/BKDStTNh7hfRbZ3x8XFyN0HVdypcT9fX1Rbo14mic2XGcRqNh2zafg242m7VabXFxsdlsmqZpmibNRIdhSI0cpmnatu04jud51KpBA8u8QyObzVKHhqZpfGKa8mhFUfiAMx9Y5pPOyz4EypfpWBqg5sT6DsMwKPimxFyWZdM0e3zOAAAAAACnAgE0AAAAwLnuqqvY44+vrBX6d393VcxBf+5znxsYGKDXQRDUarV4w0Ymk6EEtlv5RhAEtm3TPxcXF1utluM4nU6HWjVUVc3n86VSqa+vr6+vr1gsFovFfD5vGEYul/v/2bvTIMvq+77/v7PfrZeZZhju9Izcg7GQIhZnJA9xUpZnsFS2M1MVoaQiYofYJOKBUqWqOKlUnNiBwZKdyLErVmyVN7mQhP4Gq2yViAQKEtbMYIQAC8QqxDbTzNazdfft7rudc8/yf/Clf5w5d+nbPb3zfj2YOvfs9/KE+fDl8ysWi4VCIZfLSfibDpFlPUO9X++U0FmXQcu8s5597jN3znxBy7IajUaPoxI9G4ahWzh833/22WcX9SAAAABgCaxD6+GvDliSRx555L3vfe/o6OhavwgAANjwhofVvn1KKXX0aF/nVyrq6FH1xS+qj3xEDQ+v5Jv1VCgUrrzyyu9+97tSQyHjwJK06nNM09y+fbucoJTyfT8MwyAIpqamXNednp4Ow1DamWWRwEKhMDAwUCgU8vm8/JnL5aSLWfJlSY3bk2LdsCEF0GaKJM7pnenCjUyb86LEcWxZVqVSGRoakjUG299HPiZJIi0irVZL+kMcx7n++uuX8FAAAACgf0xAAwAA4C2yMqEk0f0YH1/7lQmvv/76n/mZn9Ef6/V6GIbpE6644oo4jmu12unTp1944YVXX311dna2WCyOjo4ODg7u2LFj+/btO3bsuOqqq0ZGRoaHh0ulku6ySC/i1+0F9LCzXjYwPfusFw9sv2rJoXOGjD/n8/n0znTTtDxIqj+kCUSuevLJJy//6QAAAEBv9lq/AAAAANaRsTF1zz2LWJlwfFzdfbc6elTdc88iiqSXUblc/lf/6l898cQTshphFEW+7w8ODtq2Lc0YjuPoaeUf//EfHxkZkQtltcClPVTXZejKZqWUfOx91dIe102SJLZtK6V0sUaP19BdH6VSqVKpKKUajcbZs2evuuqq5X0rAAAAII0AGgAAAJeQlQl/9VfV/v1qfLyvS44cUfv3q1/5lTWYhp6cnKzVajfccMP09LSsuScjybrgQk6TFfkyvRlS9Nzng/TdHMdJVzb3c+Hiv9biXknTU88dTzYMI0mSOI4LhUKtVsvn8xcvXiSABgAAwIoigN7ARkdHT58+vdZvAQAANqexMXX48KJHoZVapQx6YmLi29/+9ptvvjkxMSG1y9u2bdN1GTpo1mmsJLOWZekqZMuywjDsnQ7rogxpf5Y79PmGK5c7a8PDw41Go9VqqT7mr+WVkiRpNpvSCmLb9n333ffbv/3bK/2eAAAAeCcjgAYAAEBnMgq9b5+6/fZ+R6Hvvlt98Yvq+PEVfKtnnnnmmWeeefLJJ4vFomVZg4ODmZrm9PizXgNQpRblS5IkCAI5WZbjyzxC1zr3P+asL1ymb9nhtnq6WbeLlEqlVqt18uRJKdaQ8ut4Xvt9bNuuVqvylfP5fK1Wk94SAAAAYOUQQG9go6Ojp06dWuu3AAAAm9y+fYsehV4JExMTjzzyyPe//32llOd5W7ZsUamsWc0XIruuK/szo8p6FT69HYahhNFSxCGr9smkc/+Js5qfkr78L6jfTefp6VFupZRpmrpIRL6vaZrFYrFYLObzeVk1Ud9NAugoiiSMluYNwzCazaacYNu2bdsXLlygBhoAAAArigAaAAAAC5BRaKX6yqCTZJmffvHixe9+97t//dd/vW3bNs/zZKfkxSo11+y6rkw6t2vPo2WuWZJZpVSpVFps6KyWOu+cjpjl3fSfWjL/I0robFlWOlxO30cpNTs7Wy6XM0f1uoj6hrZtFwqFs2fP6sA9n8/btn3u3DkCaAAAAKwcAmgAAAD0RVYmvP12deRI13OWN32+ePHiAw888Pjjj+dyuS1btqTnlyV3Tk8r62HhJPUSOp7O3Fn2R1Gk5hcV7Od9+s+d5Rxd3yHv1n9/tGVZnufZtu04Tnp/cunvq0ehpdy5290kepZXKhQKs7Ozcolt2wMDA+fOnevzrQAAAIAlIIDewHbu3Pnkk0+u9VsAAIB3kLExdc89i6jjuBwPPPDAAw884LpusViUPTLmLO3M6TN12qs/pls1ut1fjsZx3G1uOn3/bqFzepxZNtKlGYtimqbjOKZpFgoF2dOeKbcHzYZhDAwMqFQsnj5B7qa/YJIknuflcrlmsyndI8VikQAaAAAAK4oAGgAAAIsgdRy/+qtq//5s3fNyjT9fvHjxM5/5zNTUVD6f1z0bhUJhYGCgY7ZrGEYul7MsS0JVNb+0oK547vYg27ZbrZY8QiqV2++s+ivNWDLTNHO5nOM47Tl4x7lmPeWt+69ljrv9nYvFotxT30QOua4bBIGURBuG8fzzzy/LFwEAAAA6IoDewEZHR0+fPr3WbwEAAN6JxsayKxMuV/r8ta997YEHHvA8TwafpSmiVCq5ritpciYmtiwrn8/Ldmb5Ph28ykYyL71HKSW90pJZK6UktE1PNOtn9ciyF0VaQRzH0cPO3R7RXiqi98uLtSfysjKhbdvp3Flvu67barUKhUK1WlVK+b4/NTW1LF8KAAAA6IgAGgAAAEvRYxR6yX7nd37njTfekNYICVgdxxkcHEyfI/Uasu26ruu6OnSWne2NGR27m6WUeWhoKJfL+b6fPrObjkf7T6Wl2dl1XV0h0k/JhuoSQ+ucPQxD2SPrCurlCtO3ytzWtm3bthuNRqvVqlQqfb4/AAAAsAQE0AAAAFg6GYUeG7vc+0xMTHz+858/fvz40NCQ3pnP52VGOB0uq/kCilwuJ6sR6vMzp2US2PRppmnqeor0goRL0J5KZ5JiedVcLtex4qPPuLn95HTZtDxCRrnVpZ0b3TLoQqEg0bPnec8999yNN97Yz5cFAAAAFosAGgAAAJfl8tPnCxcufOpTn6rVaqVSSa8fWCqVOi42qJSyLKtYLGby3G710OmPlmVJdXJ6ZxAExWKxVqvFcZwer14ySbQ9z5NcOHO0/5KN3ifrAPo973nPtm3bkiTxfT9JkiAIlFLNZlNfks6gHcdJkiSep5TK/MgAAADA8iKA3sDogAYAAJvA888/f9dddw0NDUnpcxRFAwMD6XLkdIGGYRhSYaHXAGyPjNsT5PTIczvJYfP5fK1Wu8zvIomz4zi6B+NySjZ6n6yLR3bv3n3llVdmuq1lQ2JoSaWTJGk2m5OTk+fPn5f7FAqFmZkZ0zSff/55JqABAACwQgigAQAAsGZeeOGFz3zmM0NDQ4VCQeJUXbuRJpGraZqe58kYb+ZQ+8l623Ec27ZlurnjO8Rx3Gg0isWi53m6DLp/esxZxrfbX2ZZ4ub2/TLKffLkyQ984AOSwqfPkY+5XE4vtNhsNpMkGRgY0OfICLnneS+88MLivjMAAADQNwJoAAAArI2XXnrpM5/5jG3bkj7LkHI+n4/jWNdr6BUFbduW3LnPygjJnfWwsExMy2iwjDynyTp+uVwuiqIwDPtp4ZDcWVZB1DsX7M1YcH//J0sAPTU1lTmtPYyWhL39e1mW5bpus9nU4+QAAADAsiOA3sCo4AAAABvX+fPn/8f/+B8S40pALL3JpmlKTJwumnBdVyJpy7Lal/JLM03TcRzHcbpVQkvSnaQopeI4DsPQcZxCoVCtVrvNSstLuq5bKpX0ztWcek6fLL/D9ddf3+MmUgydGetOnywx/cWLFzt+XwAAAODyEUADAABgDXzuc58zDEMak2WYV7JjORrHsezUg89qvk+j4930lPSWLVtkijk95tytpiMdQzcaDcdxZPHD2dnZ9CWWZeXzec/zXNddq7g5c7JeStHzvMz5+qowDBuNRmbcW4q2hYyc53K5N9988+zZs1dddZUCAAAAlhsB9MYmQ9Cjo6Nr/SIAAACL8Ju/+Zuvvfbali1bJD/V6XN6nUCJp9Pzzpn0WRdDy0fTNAcHB03TlNg6SZIwDFutVrd3SI9Um6YpfRr1et00zWKx2Gg0JHfO5/PphgodFufz+cwNpXM5s7N9j1Iqn8+3J8vtN2zfI06fPh2GodSGVCqV9toN3bnR7bunT5aZ7nPnzhFAAwAAYCUQQAMAAGBV/cZv/MYrr7yydetWPb0rzRjpSed07YaQmFj3cugzZUNSVM/z9MCvXn4wiqJ8Pt9qtXR9RybItm37yiuvzOVyExMTssd13Z/6qZ+68sorVZesuU/dqjyWoNFonD59enp6empqKkmSbdu2yf7t27enTzMMo9lsNpvNzE79JukFHvWv4bouLRwAAABYIQTQAAAAWD333Xffyy+/LI0WskeSZanaSC85qOeOdddEpklDf5RrPc9zHCeTvZqmuW3btu3bt586dap9Gtq27cHBwa1bt0o+OzQ0NDMzI7ednp5+17vedZlftmOHxqI0Go0zZ85I+pzePzQ0ND09reYrOORBCw4+d2SapmVZZ8+evZz3BAAAALohgN7YqOAAAAAbyAsvvPBXf/VXuVzOtm0Zv9Vzzfl8Pl2mYdt2ethZzk+HuTp9lnUL1aVlF/qo67o/9mM/Fsfxrl27Mhn0li1bRkZG5J4S4Lquqy88ffr0jTfeuFI/xEJ07nzmzJnMIf0jDAwMzM3NVSoVpVQcx0EQ6PC9Y/AdBEGSJHNzc/oc+bJhGFqW9eKLL67c1wEAAMA7GQE0AAAAVsl/+2//rVAoyGp+SimJnq15+rR0F0d6jy471mfq9NlxHMdx4jjOTEnv3r1boljHcXbu3CkZtOM427dvl8BaZ7VS2VEoFOr1ulJKB7WrTEo2jh07plJZc3uaXCgUfN+fm5vbvn17FEXValX2SwY9MzPTaDSUUr7vN5tN+VNOkOUZjXlhGNbr9TiOqeAAAADACiGABgAAwGr4/d///VwuJ7GvDDjLpLMkyOmZ5UzRs56GVpe2P6dLoqXaOBPU7tixY3BwMAxDucp13V27dvm+r3uQ0+PPsqED6Gq1OjExUS6XV+rnuFSj0ZiYmDh27FiP0Dmz0/O8JEneeOONiYmJ5ryOZ6a3bdvO5XLNZjNJkiRJarWa7Ewv/wgAAAAsI/5Fc2OTCo61fgsAAIAFnD179tFHHx0eHpaPrutKcbN81OPP0sihUkGzalszULWlzzL+rC5NWgcGBnbu3BlFUfrCXbt25XK56elpKVBOR8+yMTw8rGeBlyWA7l0D3Ww2z5w5I/POaqHQOX00l8vJV56YmCiVSqp74tztbkop3/f19oULF1588cXrrrtuoS8EAAAALA4BNAAAAFbc//pf/2toaEi2XdeVAFof1SPPUs2Rlh5/1ien656VUsViUc5Jp6t6kQx9+dDQkFy4ZcsWKVCenp7OZNDSwiGNFiu3Lp/kzsePH1eLCZ3TRwuFgmmaMzMzkj53vLb9o2zLBLR8NE0zjmM5mvmdAQAAgGVBAL2xjY6Onjp1aq3fAgAAoJfnnnvuzTffzOfzEoB6npcpfJAJ6PSkc6b9WUuSxPO8zLXtI9I7d+6UvFvHr7lcTs9fK6Vs25YY+syZM2EYypm6qUPOWfYa6GazOTExcfz48aWFzpk9nudNT0/Lr9Ft5LnjfknhW61WHMemabZaLT14DgAAACw7AmgAAACsrL/8y7/UqbE0b+ihY9lpWZYug07LjD/HcSxRdXopQl3orPcPDg7u3Lkz/QjP87Zv397+YrZt79ixIzMKPTQ0NDU1pZavBlpyZ2lqzhxabOisd+bzeaWUFIz0KNzoeDdJ/1utllJKT0ATQAMAAGCFEEADAABgBT333HNvvPGGBKamaUrWrC5dTlDv1OSo7oZWSkVRlCSJ3CcdLsseIfuvvvpqOSr5rG3bIyMj3V5Pj0KfP39eluaTCWjJo1977bUlB9CZ3Lk9a+5/DrrbJTt27JAy6/Yzu91fKWXbdhzH8uPofwqmaZ4/f/5973tfn98OAAAA6BMB9Ma2c+fOJ598cq3fAgAAoKv7779f58iyYVlWeq7Ztu329NkwDNu29bxzHMeZ8g097Jx53D/4B/9AKiZ0SD0yMpK5f7v0KLSaL6lQSk1MTCz2+0rufPbs2UajkX7bzEbaYuegdea+YN1zt0N63llPQFMADQAAgBVCAA0AAICV8sgjj7z00ktSxywlG5kGZ6WU67od+x90+qxndTM5slQY649JkgwODg4NDaUXFbzyyivbn9jNwMBAPp+fm5uTegqlVLVarVar7Qv9tWs2m2fPns3kzvrF2s9fcvmGmg+gT5w48eyzz46NjfW4JHMoDMNqtTozM1Ov12WPaZpyND1sDgAAACwjAmgAAACslO985zu60UKHxelhWz0NrdPk9PhzOn3WawMKmYmenp7O5XLSK21Z1nXXXafroaMoGhoa6j99FtLIcdVVV124cEGS2bm5uR4BtOTOlUqlUqmo5Z507nHJzMzM/fffLz9O+9HMvLPOnfXOOI7jOE7/QwEAAABWCAH0xjY6Onr69Om1fgsAAIAO/t//+38vvvhiPp83DMNxHMmFdY4s6adM4ErorNcYVEpZlqVDUnXp+LNEz7IdhmGr1YrjOAiCXC73d3/3d1u2bNmyZUs+n9+2bVt7QceCjh079tprr124cEFeKUmSH/zgB+010JI7z8zMVCqVVQud9c58Pv/QQw91u4n+2Gw2m83mzMxM+31kj/zykmKbpnnu3Ln2xwEAAACXiQAaAAAAK+LZZ59VSrmum653cBxHKWWapl5mUMJQz/OazWYYhpZlSUit02d9VTp61oIgkEqKRqMRRVGj0Thz5ozc8Bd/8Rf7ac8Qx44dO3PmTLPZnJ2dlfRZ+pHn5ub0Oc1m89y5c5I+y55VC53TH1988UUZQRgYGGhPn3Xu3O1uSinpfVZKSfqcboUGAAAAlhcBNAAAAFbEo/lrC+73LcvScbNSKv1RNpIkkaoN13V934+iSPao+RFdyYJ13URGkiRBELium272kMnohx9++Md//Md/8id/svd7Tk9P//CHP5Tu5mq1GgSBPmSaZr1eHx8fNwxD0mfVJSxe6dC5407dNy0lG/Jnj8vb79ZqteTXNgyDGmgAAACsBALojY0KDgAAsD797dlgRxA0PC8da2amofV2kiRxHLuu6zhOq9VqtVrpQ7Ztp6eh24VhKJ3REmdLd4dSqlqtPvfcc0qpbhl0s9l8+umnm82mxLVBENRqNTkkt5KNb3/722EYqvlBbBnQTv+ZJIn+qLdXbjhaR+T5fL5SqaRz5x730eTHkfRZMQQNAACAFUYADQAAgOV33/HG9Y9+7dkrcvJRItF0xJkei5Z8OYoi27ajeXp9Qj0lLdPQHR/n+36hUJDt9NJ8hmE899xzb7zxxs///M+n6ziazeYPf/jD6elplYprdfosr6d7KprNptzT9/3+fwHddi2xteM48iDJ2fUhHVjrnWqhnFo7efLk4OCgTIgbl+pxlXyvMAwzNyeABgAAwEoggAYAAMAy++zLtesf+P9+GEyZ5k69U9YbTH/U27JfQmfP83zfb7VaetVBHaf2iKGTJPF9X/LrdHorZ1arVV3H0Ww2jx07NjExkX60Ump6ejpdvqFrQFQq0V4UfbcgCPopxBDpbDr90bIsvS2Ty2p+4FqGvjP3SSfROsqX3zyOY1m5MX1+FEWLitcBAACAPhFAb2xUcAAAgHXob88Gv/Wnv3Fk376tqZ3p8g0Z2tUfdeNzHMemaUoGLXm0SgXQ+mQdQ+uiDKVUGIaZquh07Ct1HNPT0+ngNV1qkUmfL+PbX/Kqi71Eh8t6Q98kjmPf95vNZi6XS49Ld3t0xwA9SZJ6vR5FUeZXbbVa0nANAAAALC8CaAAAACynvz0b/NzD9317x45uhRvq0jBazWes0sIhZ1qWJU3Q3dokpOg5SRLLstIZtHRGp4emZTtJkjAMX3755auuumpoaEilgt0oiqSLI/My6XR7sZYlwk5Hz41GIx2Ry9Fms+l5Xp93830/DEP50dINJ0opGYhe2qA3AAAA0BtFbxseQ9AAAGBdue944+aH//L5renpZ6X7NFTb+LOabyVW80PQSinHcQzDaF97UMJTWahQqqJleUAhe5rNpm690H9KNp0kSaPRuHDhQjognpmZSd+//RstKplNjx4vTTJPcueZmZmZmZmO9SD9pM8yNz03NxcEQXr6W3eV6NUI07/NH0RDAAAgAElEQVQkAAAAsFwIoAEAALBsXqiE55txNP7ShWJR79TzzhKAZsafVWpOWSkl7RCGYdi2nY5EdfScbnmWe+qAWC9aGIahxNBysr5Pq9Wq1+thGF64cEGuqlar7WUX6bv1SafG/V/S7SZqfuR5Zmam2Wy29zuLZrPZ+24SPddqtczotCa/p65+ZgIaAAAAK4EKjhV38uTJV155ZdeuXddee223c6ampp599tlisXjTTTet5rsBAAAsrxenW9K/odNb6dNIn5MZf87QTdCSQUutsxRHdLsk3cUhvRnyZxiGYRhGUVScT8Nt2240Gvl8PoqiqampUqlUq9X0czO3TVdwpCPy9hfu8XX6pG8iVRvdQmchP6DOzdvJMoPdcue0BZ8FAAAAXCYmoFfW17/+9VtvvfXhhx/+xCc+8dnPfrbjOUePHj148OBDDz30e7/3e//6X//rxf4dgAoOAACwfpxvxtc9+5j0b8jccSZ9bh9/Vm0ZbnoUVxLkBUNePR+t5uubdV4so9D6zHq9Lhuzs7Nvvvmm7/sLpts9Hrq8bRvT09M9Rp4zOjZmxHHcbDZ7TD1ntFot+aGiKGIRQgAAAKwEJqBXUBRFd91111e+8pVrrrlmamrq5ptv/mf/7J+NjY1lzvmv//W//sEf/MHevXuVUgcPHvzWt771C7/wC2vzxgAAAJfnXDPe2py9WCrJx0zds8wpd7xQlsWTbVlgUF/YbTFAvbqgvrlpmo1GQ0an5W4STM/NzY2MjCilLMuSRHtubk5W3jNNMwgCy7Icx0kXVaefKBlxemHDJfwyGemRZ5nU7v8SeRPf90vzv7NKrTG44H3Saw/qrL+flB8AAABYAgLoFfToo48ODw9fc801SqmtW7d+8IMffOyxxzIB9NGjR0dHRyV9Vkp94xvfWP33BAAAWC7nm3HLent+WafA+mO9Xs/n85k6i/Z2Cx1AS/Krs+b2C9OxqWEYruu2Wi2JoR3HkReIomh2dnZgYEAp1Wq1Lly4IPsl6VbznRWmaeZyOdu25Z7yXIlo00saXibd8uz7/oI9zt0eqoub+2/bSJPfTW4i2xRAAwAAYIVQwbGCKpXKe97zHv2xVCq9+uqrmXOmp6d37dp155133njjjXv27PmLv/iLxT6FCg4AALB+nG/G51o1GRmWHudMQBwEQcfmisyejrUY/awKKLmz4zhJkgRBIEsOJkkixRRSKq1bOKT7Iv3Qer3ebVnCZWzbqNVqssBgP+d3PBqGoe/7jUajWq0uNn0WMgAuX39Ryy0CAAAAi0IAvYKiKEr/P6emabb/T5Gvv/76ww8//L73ve+555677777/uRP/uSxxx5b3dcEAABYTpIdt4enpmmapilrA6aPZpo0RI+Z3PYh6HTjs5qfg3YcR82P9wZBEIZhs9mUymPJo+VkPUqcfn9Jq33f1//+djnpc6bleWZmpkdk3Dt31iQir1arMkbt+34QBK1WS1o1erdai/YvDgAAAKwEAuhl9ulPf3rPnj179uz5mZ/5Gc/z0n9xiuM4XSwo3vWud/3Yj/3Yxz72MaXUtdde++EPf/ihhx5a1TcGAABYPlfmzNOOI9uS/OpD+j/MS/ibiVnbA9P2/3Kvg+ZM4pw5KnQG7bqupN6S/zqOkxmCbv8WcRxXq9ULFy5MTU31+cU76n/kuc/cWcjwcubyKIqkSzoIAkmlG42GzqaDIJBgWrLpIAjSd5CmkbNnzy75mwIAAADd0AG9zH7pl37p5ptvVkpJe+CLL76oD01PT//Tf/pPM+fLejhaemK6T6Ojo6dOnVrSywIAACyzLWde1MmmLlBWSkkdh2zHcRyGYbpqWXWKmyVUlbLmjh0RHRcnTM9Tu65rWZb0QesgOI7jUqkkQ9CWZcnLmKYpAa4MEcutZEY4n88v9kdItzxnot5uJy9KesXC3penQ235ZyHfUfL39DC4dHMv9k0AAACABRFAL7Orr7766quvlm35y8bRo0d/9md/9rXXXnv88cc/9alPyaHnnnvuyiuvLJfL+/fvv/POOw8fPrx///6pqam/+7u/+93f/V05R5qdR0dH1+J7AAAALMVI44L8K5AEx0EQSKyZ+a/svu/L/xmmU+aOUXIcx5ZldWsoDoKgUqnUajWllAw7F4tFve04jm3blmUVi8UoihqNRhRFsoxhrVZzXbderxeLxTAMq9Vqe92HDo71ofYlENv1v8Dg5XR6yAS0/g0XJCfHcawH0nVHR71el53NZvOGG25Y8isBAAAA3RBAryDTNH/v937vP/7H/3jNNde89NJLn/nMZ6644go59Ad/8AcHDhz4F//iXziO80d/9Ef/+T//5z/90z99/fXX/+2//bc33XSTnPPVr3719OnT//N//s+1+wYAAACLE02fywTQ6tLxZyGdGDo/laA5fYIeZM6MD0vTca1WO3/+vAzwOo4zODhYKBSq1erk5KTEvvpxshqhaZrSvCGXJEni+74k0ZZlRVHkum76KdKkrOarlhfU/8jzZa5kKC5cuKCUajabErh30547a3p4XA5JK/f73//+y383AAAAIIMAemXddNNN3/3ud9v333PPPXr7Ax/4wOHDh9vP+ehHP3rbbbc99dRTe/fu7fGInTt3Pvnkk5f/qgAAAJcvE0CL9PizzBHHcdxqtdIDvN2WHJT9ethZ5p2VUpI76/+6r5TK5/NSmhGGoQwgy8KDcrTVanmep1cmlBYLwzAywbeabwiR7VqttnXr1vSbZ07uc+T5cnJnXZ2hM/E4jtsz/fT7+74vfdC979xoNGRDYug9e/Ys+SUBAACAbgig16/R0dFPfvKTX/3qV3sH0AAAAOtHuVxWqfRZipV17Js+UyfOxrz0UV0PXa/X33jjDdnpOI6sn5HOnTXDMBzHkVzbtm2ZDpYQVq/FF8ex53lJkliW1Wq1giCQS/QEtKS3+p6e53UbZ5Y3bDQaPUae+8md0/myvG0URZnQWV5MLyFo23ZmZFstJnfW0uPPSZLIPzsAAABgeRFAr2t79+79wz/8w95D0KOjo9IWDQAAsB7oPg2JNWu1WsfV7WQI2nXdbpO8YRhWKpW5uTldslEoFHo/2jRN0zTTcbAMWZdKpVKpFIbh2bNnlVLyUMdxZGxZny/VHOkbVqvVXC6XTnv7GXluX/evd7jcjdxHekjSJ6dz7SXkzkL3csidDxw4sKjLAQAAgD4RQK9rDEEDAICNZceOHWp+7lhIZbNuK06Hp1EUdcugm81mpVLJ5/NXX321DFD3wzAMz/OazWbH0WPbtoeHhycnJ4MgKBQKpmnKrLSu9WjvSs7lctVqVVo4JE+P41imnnWgrDdUKmteMFzuRr+5PEuvFpg5R0Lz6elpeVDHKfLedNQuE9DtVSQAAADAsiCAXu/6GYIGAABYJ6TGIYoi3e8suW2z2czMQcvygJLeep6XPjQ9PV2tVgcHB13X7T991mzbltu2R7fFYrHRaDSbzXq9XigULMtqNBqS28p6fe13e/PNNyuViryw7phecr7cUeY920ee20lq3HF1QTWfR2c+puNpqQ3Rv3+SJBRAAwAAYIUQQK93Cw5BU8EBAADWG9/3JVPWoaesB5jL5eSjZVmmaepV9QzDkJqLMAwvXLgQRdHAwIAcarVafWbQ+lm2bcvssOxJx7uGYQwPD1+8eDEMw3q97jiO67q6HrrjbXO5XKvVUt0T6qXpOKMtuXM/zdHdztGtHR3PMQwjiqJmsxlFkfw4OsL+h//wHy7m9QEAAIB+mQufgrW2d+/e06dPP/XUU2v9IgAAAAvYtWuX67rpoDaOYxmzbbVaUpos3Rfpq4IgCIKgUqmcPHkyDMNSqaSz41qttmDs294+kW5tzhyybbtUKjmOY5qmrEMYRVG9Xl8w9u0nF17wDlpmfxRFUuvR51N0C0ePp+g9URRVq9VqtToxMXHx4sV6vZ5eflAptWfPnquuumrpXwwAAADojgB6AxgdHf3oRz/6h3/4h2v9IgAAAAsIw9BxHJ2NSvirK6FbrVaj0ZCJ5kzSWq1Wp6enXdeV2ef0DTMLA6Z1Kz42DCOdcadPMwwjl8vZ84IgMAzD931pdm7Pf3U9yJLHnzuGzvpQGIatVmtpnR76qvZoW4fOZ8+evXDhQrVardfrtm2bpqnm82vdv/GLv/iLS/tqAAAAwIIIoDeGHkPQVHAAAIB1SGorMgG06jJHLKsR5nI5vVZh+vxGoyF3S+u95l6SJLZtZ07Ql9i2LTG3aZoSlxuGkSSJ5OPtxcpq8elzt2FnfVS+cqvVWkKuLff0fX/B0Llarar5kXOJnjWZ/pZ3oH8DAAAAK4cAemOQJmiGoAEAwDpXLpd1vYPemc5YpWtCpZJoWaKwWCxmVilMX57uX+4dPWu6V7p9v+TOUkhtmqZlWfqoxNC6pCK9f8En9g6d9TkSPffZ9dxNFEWyNGIURY1Goz10FjIJno6e5Qs2m81arSbv8M//+T+XpSMBAACAlUAAvWHQBA0AADaEcrksGWt7TJxe+E7Hr77vF4vFHq3NSZJISXSf0bOWCZfTLMvK5/OSzJqmmb6t1FMEQVCr1cIwlHMWLFxeME3WI89La9vImJ6elj8vXLgwMzOTDp01y7L015fcOQgCGSfXX8dxnA996EOX/z4AAABANwTQG0aPIWhaOAAAwPpxxRVXyJyv3iN1wzrkTfdpNBqNfD7fcVQ5LY7jxUa3kgg7jtMts/Y8Txo/ZEw4jmPJkeM4lrDY9/3p6elGoyGH0nfuM3RWqQUGL3PkOU3ieJXqgM6Qzg354vJdJHdOj6WL//N//s+ePXuW5a0AAACAjgigNxKGoAEAwPongWYYhumSjXTorGPTVqvluq6sSdibLo5Y7MuYptkt3ZbVCGWNQclqa7WaLNbXaDR835+dnZ2cnNTzwv2HzvqdL2eBwbQwDMMwnJubm5qaOnPmzMTEhP4KmTN13bPuEvF9v71BW/zxH/8x6TMAAABWmr3wKVg39BD0vffem9l/+vTp0dHRtXoxAAAA7eDBg5///Oel2dl1XUls9ep/rutGUeT7vmEYMsnreV5mfbyOZIy62WxKd3M/kiQxDMOyLNu224d/1XwRh+/78m6WZclpcRzX63XZdhxnsZPXMkPd/yUZEls3Gg2lVLPZlI00+VKZdhHTNHXu3C1xTrvzzjtJnwEAALAKCKA3mL179371q1996qmn9u7du9bvAgAA0EG5XN6zZ88zzzxTq9Usy5JwOQxD13WlBcK27SRJJPat1WpTU1NXXHGFvrxbY4YMFMv6gd2anTP0rXSInJlfNgzDcZxisVir1UzTzOfzc3NzzWYzPWptmmbH8LrjGy4heg7DUPdjyHY/D/J9P71mo2maURT1OSH+8Y9//ODBgyw8CAAAgNVBAL3BjI6OfvSjH20fggYAAFg/JICO47jZbBYKBZVKfmVEt1qtOo4jgenc3NzAwIBUYfQWx7HcU7qbe9DRswxBG4bhuq4sY6gujaEty/I8z/d9nYxnYly9Xl+PZFxebMF2jgVHm/snGbTrujIYvuD58l8FyuUy0TMAAABWGQH0xsMQNAAAWOekhUMpFQSB67qyxF8URXpyWdYGlJX04ji+ePFiuVxesIhDFvQzTbNHEUe3mFhmsSVNNgxDh8WyAmGpVKpUKkqpwcHBubk5HTpHUaS3O75Pj5HnZYybO5LVBTumz7lcbvfu3fl8/uabb37/+99/9dVXL++jAQAAgP4RQG887UPQ0gG9tm8FAACg6RYOpVS9Xh8cHFRK6QBahp2DINDZbhAEs7Ozw8PDC95ZBo3DMEzH2aLHhLIccl1XTzenR6Fl4b58Pt9oNGzb3rZt27lz5+Q0y7I6BtASTOsUW1LgxTZpXD6J413XlcRZKfVzP/dzO3bs+Cf/5J+swtMBAACAfhBAb0gMQQMAgHVOB9CyoF+hUJAaaKWU53mGYUgHtIjjeG5uLp/PL1jEIemzRMm6iKNb9JyhizjSe2TDNE3P8yQ+zuVyuVxOomrf92dmZkqlkoTjMvLs+/6Kjjb3Vi6Xy+XyxMTExMREkiT5fP6WW245ePAgY84AAABYnwigN6TMEPTo6OipU6fW+qUAAADeJi0cMn0sQ8G6YcNxHNmTPj8Igrm5uW7FGmlSuCxFHOmF+HrQQ9DpIg5NWjjiOC4UCnNzc6ZpjoyMyP9eFkVRGIaVSqVardq27fv+KsfNaj5x3rNnz/vf//49e/bIzmeeeeYTn/jE7t27Dx48eODAgS1btqzyWwEAAAB9IoDeqG655RaGoAEAwLolmemzzz6r5oeg0+PPHWPcWq2Wz+dLpVK3e+rejFar5Xleple6T+kijjTJoF3XlcX9hoeHK5WKjqqbzWY/a/0ti3K5fODAAaVUOnHO2LNnz5NPPrk67wMAAABcDgLoDeyTn/zkr//6r3/nO99Z6xcBAADo4NZbb/3BD34gqbFk0LlcrlAoxHHcMcwNw7BWq3me5zhO7zvLELRSKl3E0Zsegm4v4hCmaVqWlc/npWC6VCpNTU3JU7q98LLw/fJP/3R5z549O3bskNR+hR4EAAAArAkC6A1s7969o6OjTz311M6dOxmBAQAA6811111XKpXq9bp8DIIgCALTNPWedrVazXXdfgol9BB0s9nsp7hD9CjiUPND0Pl8vlarOY4zMjIyPT2dJEl7Wn05fL88N7fH98uzs++fm9ujlNqyRf2X/6LGxpbxIQAAAMB6QQC9sckQ9Cc/+cm1fhEAAICskZGRn//5n/+bv/kb+SiNGYZh9MhzJVCuVqs9ijj0mdIEHUVRn0Uc6SFoz/Paa0AMw7Asy/M83/fDMBwcHBweHj5//vyCd+7B98tKqYsXDyildOKcceSI2r9f/cqvqEOHLudRAAAAwHpEAL2xyRD0qVOnZJ0cAACAdeWDH/zgt771rdnZWfno+75SyrbtHo0WzWbTdd1+ijjSQ9ALFnFI9Jz+KGshJkmS3m9ZlvRvVCoVy7JGR0fPnj3b+84Zes3AHTt2/P3fH7j77r6uGh9XciYZNAAAADYZI/Pv3Nhwnnrqqdtuu23v3r333nvvWr8LAADAJaampn77t3/7sccek4+u695www2+7/do4ZCO5lKplCniyCTIwvM80zTlzp7ndbthx4/SrSFFHOl/JY6iKAxD3/drtZpS6tSpU8ePH+/xHSVuLpfLHdcMPHJE3X67Gh/vcYNLjI2pe+5R+/b1ez4AAACwzjEBveHt3bt37969a/0WAAAAHWzduvVf/st/+fzzz+shaKWU67qnTp3aunVrx0uSJAnDMAzDfoo4ZAhaKRWGoW3bmSKOjpl1+qjjODKUbRhvj2WYpimHZFK7XC5fuHChWq3KUT3grJTqmDhn7NunDh9WX/iC6n8U+vbbqeMAAADA5sEE9GZw+vTp22677Tvf+c5avwgAAEAHn/70p7/+9a/L9gc+8IEkSV5//fWhoaFuJRt6CLpUKulzuqXJMgRtGIZhGLqIY8HoWW+3Wq10H4j8u7EMQcdxXKlUlFJzc3Mf+MAH+ombezh0qN8MWoyNqcOHWZkQAAAAG5651i8AAACATe5jH/vYwMCAbM/NzSml4ji+cOFCj0vCMAyCQM8d99BqtWRDKjUkie7/3WzbTp8vl5vz8vm8UqpYLO7YseNy0mel1KFD6vjxRXRrjI+r/fuZgwYAAMCGRwANAACAlfUTP/ETBw4cSO8ZGBjwfV/C6I5kacE4jiWD7pEpx3EsPc5KqTAMoyha8H3S/wugTFtnTjBN07ZtNT9ebZrmD37wg8nJyQXv3Jv0O991V7/ny8qE+/cvokIaAAAAWG8IoAEAALDibr31Vsl5pXNZKRXH8dTUlJ5fbidN0K1Wq8c5Qp8gsfVi3800zUx5tOwUUutRqVS++c1vLvbO7cbG3hqF7r9b48gRRqEBAACwgRFAbwajo6OnT59e67cAAADoqlwu33HHHUqpIAiUUrK6YBiGMzMzPa6q1+t6CLqHJEn0EHQcxzrj7n2Jmi/ckCHo9iFrx3FkNUJZ5/CZZ5559dVXF7xzP6TfebGj0GTQAAAA2IgIoAEAALAaPvzhD//sz/6s7/uGYUikq5Sam5ur1WrdLonjOAiCOI7r9Xrvm0uuLWT9wEW9mwTN7TstyzIMI5/PyzT0fffdt6jb9iCj0ItaZvDuu9Xu3erIkeV6BQAAAGA1EEBvEgxBAwCAda5cLv/ar/3ayMhIuoI5juNKpdKjZEMqNZrNZu8ijswQ9BKKOGzbNs3svxtLNYdlWYVCQSk1MzPzpS99abF37mHfvkWPQt9+O6PQAAAA2EgIoAEAALBKyuXy7/7u787Nzbmuq5f+C4IgsxphJqFOr0bYQ3oIOoqiHkUcUrvRvt/zvMx+GYKWQ47jmKY5Pj6+XEUcQkahF1vHAQAAAGwUBNCbBBPQAABgQyiXy//m3/ybIAh0C0ccx7VarUcRhyTL3Yo4dGScHoJWXYo4MtFzOumWo1IGnT5Hr09YKpUMw5idnX3ooYf6+KKLIysT7tvX18mXvjUAAACwrhFAAwAAYFV9+MMf/uAHPzgyMqL3BEFQq9W6lWzo6Nn3/d5FHOkh6EwRR7ep5wzLsqSIQ59sGIZt20op0zSLxaJhGCdOnPje97634K0Wa2xM3XPPIkahAQAAgA2BABoAAACrTTLo9J7eQ9BhGMpEc+8ijswQdBzHrVard/SctI0T624QfaFpmrLhOI5t25Zlfetb3+rxGksmdRzHj/damZDxZwAAAGwsBNAAAABYbeVy+dZbb73uuuv0HhlY7pZBx3Esnc7diji09BC0UqrVarUXcfQmRRzpj6Zp6iHoUqmkVmA1wrSxsa4rE5I+AwAAYMMhgN4k6IAGAAAby8jIyKc//el01NtoNHqUbARBEIahUsr3/R6ZcpIkURTpj5kijm6XZPaYpilFHO17TNPM5/OWZS37aoRpMgp9+HCvUWgAAABgQyCABgAAwNool8tf+cpX9McFVyNsNBpymi7i6NitkYmwoyjq3RzdLjMErVJN0Eopz/NM05ybm/vyl7+8qNsu1r59l4xCM/4MAACAjYgAepMYHR09derUWr8FAADA4pTL5QMHDuiPYRjKgoQdT5YmaKVUq9XqUcQhQ9DpbDoIggWLOIxLmabpOE76hPQQdLFYVErVarVvfOMbC3/JyyCj0HfdRfoMAACAjYoAGgAAAGvpjjvu0NtxHPcu4tDZdO8ijszlcRxnuqEz2ls4lFK2bWeKOBzH0asRyhz0008/PTk52ePOy+LQoZV+AgAAALBSCKABAACwlsrl8p133qk/ypizLtnI0FFyuoijXZIkMiuttVqtHkUcHas8DMPwPC+zx7IsOTmfzyulZmdnH3rooW63BQAAAEAAvUns3LmTRQgBAMAGdeDAgT179uiPtVqtR74sTdBKqVar1WOBwfa4uWMRhxRuqC5D0IZhZIo4LMuS/VLEIUPQK7caIQAAALDREUADAABg7aWHoKWIo9vMsqxVKNv1ej2Koo43lCbozIXpIg4dPfeWKeKQIWg1Px9t27bjOCu9GiEAAACwcRFAbxKjo6NMQAMAgI0rsxphEAQ9ijjCMJRZ5t5FHO35davVkvUJO0bP3YagXddNX6JbOAzDKJVKalVWIwQAAAA2KAJoAAAArAt33HFHuVyWbRmC7pYvy1HZ7lHE0T4ErZTq0drRjWmaeupZyEellGVZ+XyeIg4AAACgGwJoAAAArAvlcvmOO+7QH2UIulsRh6xVKNv1er293Fm0X5skSY8MuuMQtFLKcRw9AS0BtO7lyOVyjuOwGiEAAADQEQE0AAAA1ov+VyNMD0HHcVyv1zMn6KUFuxVxLOrFMqsRpoegTdOUIejx8fHvfe97i7otAAAAsOkRQG8SdEADAIDNIbMaYRAE3TLo9BC07/sdB6WVUh2z5j6HoI0U27Zt29aH0kPQjuPIHPQ3v/nNXt8NAAAAeOchgAYAAMA6Ui6XP/7xj+uPMubcrYijVqvp7W6rESZJEgRBZmccx73LoDsuVJgeglZKpfPofD5vWVatVvviF7/Y47YAAADAOw0BNAAAANaXgwcPplcj7F3EocPlbufIIdlIZ8o9iji6NUEbhuG6rv6oFydU80UclmWNj4+zGiEAAACgEUBvElRwAACATSOzGqFUbXTLl2WQWSJjXcSRGV7uOAStuhRxdJx91mzb1s0b8lGf7Hmebduzs7P33ntvz+8HAAAAvIMQQAMAAGDdSa9GqNcb7FjEkSnTWHAIuse16ei52xC0UsrzvPQllmXpq0qlkmVZ1WqV1QgBAAAAQQC9eTAEDQAANpP0aoRhGPZYjTA93dztnG5D0FEURVHUe+o5I1PEIS0ccgfTNIvFoqxGODk52ecN1w/DULt3q/HxtX4PAAAAbCIE0AAAAFiPOq5GKJXQ6dOSJInjuF6v6z26iCMjjuP2ueYeqxH2GIK2LEu3PxuGoVcjNAzDcRzbtuv1+je+8Y0e327dGh9X+/erQ4fW+j0AAACwWRBAAwAAYJ1qX41QdSnikJ5o/XFubq79bkmSdAumJd3unwxB67lp0zT1ALVlWaVSyTTNp59+emOtRqhHwMfH1d13MwoNAACA5UEAvXlQwQEAADaZjqsRRlGUGYJWSsVx7Pt++mPHDDqKoo5zzXEcR1HUvr/HELQefJbmDT0ErZSyLCufz7uuu4FWI2wvIGEUGgAAAMuCABoAAADrV8fVCNuLOJRSQRCkh6A7Dkr3GILuVsTRjbRtmOZb/zptmqbeVkrlcjnbtqvV6gYt4hAyCr1/P6PQAAAAWDoCaAAAAKxrmdUIJWXumC+nmzS6DUF3bIJWbTPUWpIkRidKKcMwPM+T09JN0Eop0zRLpZLjOH//93+//lcj7L3+4pEjjEIDAABg6QigNw8qOAAAwKaUWY2wVqvJwoPtQ9CZJmrZZbwAACAASURBVOiOGXS3IWi5fAlFHI7jyHZmCNpxHM/zarXaF7/4xW6Xrwe902cho9Bk0AAAAFgCAmgAAACsd5nVCHURR/vigZlUuuOgdBzHcRzrj3r9wG5FHD0CaKWUbds6d9ZhtCgUCqZpjo+Pr+fVCMfG+j1TViY8cmTl3gUAAACbEAH05jE6Onrq1Km1fgsAAIDlVy6X00UcQRBIguz7fiZfjuM4CIL0x45D0OlB6czl6SKOdOFGN+kh6I5FHOt8NcLDh9Vdd/V78vi4uv12RqEBAACwCATQAAAA2AD27NnT52qEmbHoOI7r9bpsp4ed00PQaVLEkcmdew9BW5alc2fLstLXep7neV61Wv3Sl77Ux7dcA2Nj6tChxWXQMgrNyoQAAADoBwE0AAAANob0ELSefU7ny6I9lW42m5lB6d5D0B2LOHpzHEevTGhZlkqF3bIa4RtvvLGeizgOHVLHjy+ijmN8nJUJAQAA0BcC6M1j586dLEIIAAA2sUwRh06Z24s4wjBMDzjHcVytVjN3kyHojvUamSIO0XsI2jAMz/NkWwJoNZ9BSxFHrVZbt0PQYmxs0XUcd9+t9u9nFBoAAAC9EEADAABgw8gUcUhM3J4vt69P2D4o3WMIWinVarW6dXR0Y5qmbdvSv6EbOSSDdhzH87zZ2dnvfe97i7rnKpM6jkWNQh85wig0AAAAeiGABgAAwIZRLpfvuOMO/VGnzO35chiGmXw5CIL2FQujKOr4oPYIWy00BK3mizikhUPPVhuGIUPQnud985vfnJyc7H2TNbe0UWgyaAAAAHREAL15jI6OUsEBAAA2vcwQdLcijvYEOYqizKB0kiSZSDqtYxFHhnEp0zQdx5H9eghazWfQxWKxWq0++OCDfX3PNSWj0IcPL2IUWlYmPHJk5V4KAAAAGxIBNAAAADaYdBN0q9XSqxFm8uX2IegoitpXLOw2BK3auqRFOnFuv8S2bdM0lVKWZcmGvsrzPM/znnrqqfW8GmHavn2LHoW+/XZGoQEAAHAJAmgAAABsMOnVCNOTzu1FHHo+WvN9P5M49x6Cbjab6T0LtnAopfRqhOkhaKWUZVmFQiGfz6/z1QjTZBR6sXUcu3ezMiEAAADeQgC9eVDBAQAA3jnSRRxhGOoQub2IIwiC9IXtRRy9h6CjKErf0DCMBTNowzBc11VKmaaZHoJWSskQ9Nzc3De+8Y3eN1lXZGXCffv6PX98nJUJAQAA8BYCaAAAAGw8mdUI9aRzexGHzEenU+NWq5WZa24fgk7XawRBEMdxt86NjnQRhyxLmD5UKpVc133iiSfW/2qEaWNj6p57Fj0KvX8/o9AAAADvdATQAAAA2JD27Nlz4MAB2e5RxNG+GqFSqtFopKee4zhu73pOH11yEYdhGJZlpTNo0zQHBwfr9foGKuIQUsdx/PgiViY8coRRaAAAgHc6AujNgwoOAADwTpMegvZ9X4fImSIOGWFOX5gp4jAMo0cTtGor4uiHLuKwLEtdOlLtOE4ulzt27NhGWY0wbWxs0SsT3n33Sr4QAAAA1jcCaAAAAGxUPVYjTOfLHYegM0UcvYeg1aUBd58syzJNU4agVSqDliHoXC634YaghYxCHz68iFFoAAAAvGMRQG8qDEEDAIB3mvRqhOnB50wRR3qhQi1TxKFP6Nj1HMex7/v6Yz8tHIZheJ6XbuFIZ9DFYnFubm6DZtBKqX37+h2F7uOnAgAAwKZFAA0AAIANrNtqhKotj870OCuloijKtEX3nnFutVqLKuIwDMM0TcdxTNO0bVvvlI1cLlcsFl977bWNWMQhZBS6dwZN+gwAAPAORwANAACAjS2zGqGeU84UcXSMj33fT881L5gvp+uk00PQRidyyLZtc54+Wc0PQddqtQcffHCR33h9kZUJ9+1b6/cAAADAukQAvalQwQEAAN6Z0kPQjUZDZ8SZIo72IWilVL1e10UcCw5Bx3EcBEF6Tzpr7kgXceghaH2V4zjFYvHYsWPf+973etxh/RsbU/fc02EUmvFnAAAAEEADAABgw+u2GqG6tIij1WqFYZi5NlPEkcmX27VaLR1Y99MErZSSrDk9BK33F4vFYrH40EMP9XOf9UzqOI4ff3tlQtJnAAAAKAJoAAAAbA7p1QjTbRuZIo50SbSWDqmTJEmvTNiRnqTuPfucZtt2ZghaWJZVLBZnZ2c36GqEMzMzs7OzJ06cOHLkyJEjR3z/lT/5k1f+3b87dfLkqZMnT6712wEAAGDtGX1ObWBD+PVf//WbbrrplltuWesXAQAAWAMTExMf+chHZNu27cHBQX0on88XCgU1P3Tsum7mWsuytm7dKtuGYeTz+fb7p+Nmx3H0OX3G0FEU+b6fbpHWKpXK9PT0f/gP/+Hd7353P7daQxMTE4cPH7766quPHDkyODgof5tI/51CbydJIr/5zp07d+3aNTg4uGvXrjV5ZwAAAKyh7AgGAAAAsEGVy+UDBw7Imn5hGPq+73meHPJ933Ecx3GUUo1Goz2AjuN4bm5uYGBAzQ9BW5bV41mtVstxnPaJ5h4sy7JtO0mSIAgyUyCDg4PNZvPee+/91Kc+1f8NV83ExMTs7Oyrr776f//v//3Jn/xJ27ZfeOGFkZERnbzLRnsQL7/kG2+88dprryVJUiqVBgcHd+7c+Y/+0T9a7e8AAACANWIdOnRord8By+aRRx7ZuXPne9/73rV+EQAAgLXx7ne/+/7775ftKIpyuZxsJ0nSarXy+bxhGEmSxHGcyaANw4iiyHEcyZ3jOJa0OnNO+mMURfomfQ5Bm6YZRVGSJJkA2jAMy7KmpqaSJFlXQ9ATExMPPvjgN7/5zcnJyWq1umvXLtd1LcuSPmvjUu2XG4ZhmqZt25ZlWZYVhmG1Wj19+vTLL798/vz5rVu3dpw0BwAAwGZCAL2pvPzyy7OzszfddNNavwgAAMDaGBgY2LFjx9GjR5VSmaBZMl/HcSSDdl03nZnKtoTUek/7moHpj3J/yan7DKAlqI3jOIqizCWWZcVxfObMmRtvvFGaK9bc/fff//DDD0uZiW3bso5i/7XXmvySOrM2TTMMw6mpqePHj//whz9stVrlcnkl3h8AAADrAYsQAgAAYFPpthqhSi02GMdxo9Fov1aKOPS16UMdg9dWqxWGobq0BLk3SXKluyN9T9M0h4eHZ2dnpUJkbb388suHDh2qVCrlctmyLJl61keN7nrcU09Dy3qMhmHUarWzZ89+9atf/U//6T9NTEys/NcCAADAGiCABgAAwKZSLpfvvPNO2c4EzXEcV6tV2Q7DULLjDB1SS3/xgo9rNpu9T2hPaSXPbe9NNk1zy5YtTzzxxKuvvrrgc1fO0aNHH3rooe3bt0v0vKie6wWDaYmhJYKXjZGRke3bt//N3/zNl7/85RX4NgAAAFhjBNCbys6dO0+fPr3WbwEAALDGZDVC2Q7DMD3LHMdxvV5X3YeglVLdhqA70vdJkqTPoWDDMDzP08Fu+rR8Pl8sFu+9994+v+my+9KXvvTUU0/l8/lcLreo6Lm39p/FsizHcfL5vG3brusGQfD6668/+uijy/VEAAAArBME0AAAANiE7rjjDt0sXKvV0oeazaYky92GoKWIQ6qi+xmClk5ntcgiDhkB1nskg5Yijkql8qUvfanPWy2j//2///f58+cHBwczKzSuEJmGdl3XcRzHcQYHBx955JFPfepT09PTq/B0AAAArA4C6E1ldHSUCWgAAAClVLlcvuOOO2S7vYhDzzhnsmlNl0fLn73bjeM4liKO/gNopVT7iLE8xXXdoaGh1157bZWLOE6cOBFFUaFQWLDNeXlZ8zzPGxwcDMPwz//8z8mgAQAANg0CaAAAAGxOBw4c0KsR+r4fx7E+lC7iCIKg/VodUvc/BN1sNheV2xqGkcvl0kPQaj6DHhgYmJubW83VCKempj73uc+ZpmlZlmmambdaafJQacf2PG92dvbP/uzPJicnV/MdAAAAsEIIoAEAALBpdVuNUCnVbDYlWdYNzplroyiSDLqfJmg5PwzDRQ1By9hvZqcUU2zduvX1119/4okn+r/b5fjyl788PDwsAfTqPFHT3SN6ADyfz8/MzPzZn/3ZKr8JAAAAVgIB9KZCBQcAAEBauVz++Mc/Ltu+72dWI6xWq6rnaoRSxJEkSceqaKGnnnURR/9kCLp9rT/DMPL5/MDAwKoNQZ84cUIpJYPPq9m/oR8nyxLKHs/z8vl8pVJZzRlwAAAArBACaAAAAGxmBw8e7LYaYavVkiKOIAjSBR3aYoeg4zj2fX9RQ9CSQbdnvoZhDA0NzczMrMJqhN/5zndk1UHJ2Ve5f0NLksQ0zTiO4zi2bdswjKeeeuqFF15Yk5cBAADAciGABgAAwGaWWY3Q9/30USni6DEEHUVRrVbrPQSd1mq1+umMTnMcx3Xd9gzacZwtW7aswmqEx44dk9A5SRJpsl7NIWh5VhzHEkDLa7RaLcuyZmdn//iP/7j35bffrsbHV+E1AQAAsEQE0JsKFRwAAADt0qsRZoJmXcQRhmG3MWfp7uh/CLrRaPQ/BC2Nz4VCQXXqvigWi81m8/Of/3yfd1uaixcvJkmi37njMPiK0o+WEmrJ+m3btm07DMOXXnqp24WGob7wBbV/vzp0aHXeFAAAAItGAA0AAIDNL70aYccijt5D0HNzczKWmznUcVK4fc5an9xODqUz6PQ9TdMcHh6u1Wor2oZ88eJFpVSSJJZlWZYVBIFaxSZoGRiXIF6aoOM4lo+SRx89erTjhfoFx8fV3Xe/ozPo8XF15Ig6cmSt3wMAAKATAmgAAABsfunVCNvHmaWIo8cQdBzH9Xq9zxYOeUQYhh2zZlFPkY/nzp27cOGCHE2f7Hne8PDwo48+Ojk52efTF+XMmTO2bU9OTk5OTkZRJKPQvu8vWMTRMU9fVGwt5+vxZ9nwfd80zSRJJIyOoujFF1/sdG12z913q92733F1HOPj6tAhtXu32r9f7d//TvwFAADA+kcAvdnQwgEAANCRXo2wfdhZF3FkhqPTms1mEAQyHbygbvPU9Xr9lVdeefbZZ0+ePHnixIkf/ehHP/rRj7773e/+4Ac/OHXq1MWLF19++eVjx46dOHFidnZWXzUwMBAEwV/91V/1+U0XZWJi4kc/+lEYhkmSTE1N+b4vQXwQBDKDvKigWYLjfp6brn7WBSC1Wk3Gn+Voo9GwLGt6erpHC0fa+Pg7ro7j9tvV3Xe//VF+AXHokLr99rcP7d6tdu9+a9sw3t7ev/+t08bH1Re+wBg1AABYfsaiFunG5Tt58uQrr7yya9eua6+9tts54+Pjr7/++ujo6Hvf+97F3v/mm2++9957R0dHL+81AQAANqEHH3zwt37rt2R7YGDAcZz00UKhUCgU2ver+bTUcZzh4eF8Pp/Z35FhGJ7n5XI5mXE+efJko9HI5XK7du2SOxiG0XG5wiRJTpw4cfHixZmZmSuvvHJwcHBoaKhWq50/f/4Tn/jEddddt8Qv38XRo0c/97nPxXG8a9cuz/Mcx9m2bZtSyvO8QqEghRgyGb2Em3e8Kv2j6UBflnmsVCpySRRFk5OTjUZDClLuuOOOD3/4w6k7LPDcsTF1+LAaG1vCK28k4+Nv58gZ8sPLD7W0bUml77lnZV4dAAC8kzABvaq+/vWv33rrrQ8//PAnPvGJz372sx3Pueeee375l3/54Ycf/rVf+7Xf/M3fXOwjmIAGAADoJr0aYfuwc7PZbG+ITmu1WrVaTWemC476vv7663/7t3/7+OOPnzhxYufOnTfccMO73/1unV9LxUTHC3fu3Hnttddef/31uVzu1KlTTz/99OTkZKFQuPfee/v5movy6quvKqWq1aoMQUdRpJtAms2mUsq27Xw+Pzg4mMvlbNte1M3b56ZlpFr+TKfPSqlGoxFFkeTdUqItwXemF6WfAetNPwp96NBbzRsL0in8vn1q3763t48fV0q9dYeOSfQXvvB2+ry5f0wAALDSmIBePVEU/dRP/dRXvvKVa665Zmpq6uabb/7a1742dulgRhzH119//de+9rWf+ImfmJ2d/emf/um//uu/XtQc9G233fbJT35y7969y/z2AAAAm8LExMRHPvIR2fY8r1gspo+6rjs4OFgsFj3Py1wocbNpmlu2bJGregTQMzMzJ0+evOKKK/S8czvdgNw+By3jwJL/KqWazWalUpmcnDQM48CBA7fccssivvBCfud3fqdSqTz99NO5XE7y8SRJPM/bsmVLLpczTXNgYMB1XZ0ayxKLUnLdz/1N03Rd13Ecx3GSJKlWq3Ec63Ua9V9GarWa3DOKolarFUVRpVLxfT+KotnZ2VtuueW2226TMxe1OOK+feqeezbJKLRUZBw9qg4fVmqh32EJf8mTlQx/9VeVUmr/fnXkSIdgevdutW+f+pVfeTvLBgAAWBAT0Kvn0UcfHR4evuaaa5RSW7du/eAHP/jYY4+1n5YkSS6XU0rl83nTNPvsGQQAAEA/MqsRxnGcPhoEQb1e71jfLOI4np2d7f1vaOfOnRseHt67d2963rkbCXbb99u27bqubOdyue3bt4+NjVUqlSeeeOK1117rfc9F2bZtm+u6cRwHQfD666/Pzs42m81qtXr+/Pnz589fvHhxdnZWomEJi0ul0sjIyPve976bbrrphhtueNe73vWud71re8rQ0NDg4GA+nx8YGNi6devQ0FChUPA8TxqlS6WSaZrNZlP3Piul9PKPlmW1Wq0kSeR95PeRVmj9wsePLyJQPnJkw0/vyjKDSqmxMXX33f12NC9hKcKxsbfSZ6XU4cNvjUgrdUnWLCG47NnQvyoAAFhNi/t/6HA5KpXKe97zHv2xVCrJ//CYZprmXXfd9e///b//0Ic+9Pjjj3/sYx+78cYbV/c1AQAANrmDBw8++OCDExMTslRgZgja9/1cLler1TL7NWkldhynfQK62Ww2m81t27YlSSKL+PVYr0+TADoThSulbNuOokjmo2VG4d3vfveZM2fuv//+//7f//uivnIPxWJxdnb2H//jf/zkk0/6vn/y5Mldu3bZtp0kSbPZzOVylUpFqkIMw7jqqqs+9KEPpS+fmpqanp7WH3O53MjISBAEp0+flqDcNE3HcUqlklLK87xqtdpsNqVaWgLoMAxnZ2dl9jmKonq9blmWzrulKTs9bS39zl/4wiWL7/UwPv7WmRsrMB0ffytnl5YM/fI6fE8StXt316BZX75k+vLDh99+ytjY29t3362++MW3c2oAAIBumIBePVEUpcdbTNNs/2uGUur73/9+oVDYtm3b8PDwG2+8IavW9I8OaAAAgN7K5fKdd94p29ImkT4ax3G1Wm0fjk6r1WrSIJFWqVQajcbg4KB81OXF3Srv0vs75tSmaeomEDl5aGhoZGTklVde+fa3v73Qt+xsZmZmZmbm8ccff/zxx7/yla/8/u///gv/P3t3HhzHfd4N/umeewaDk8RNcCBSACVLSxLUYVl2CEixHVuOnY0SO3Lil0DK2pQrdrJJqpK8rqwJ+s1m4y3HzuVX2dhlgH9kFa+r7HIcxVEpEkHriOXINCVSIikeGJIAcQNzdfd0Tx/7x0P81JwLg5uAvp9yoWZ6erp/M6SryC8ffX9nzkxPT0uS1NnZyWu+fv06f3zOoEUptuM4k5OTP//5z90XrK+vr6+vlyTJ5/M1Nzc3NTV5vd5IJNLd3X3gwIHOzs49e/bs2rWLe0tmZmbm5ua41oOILMtKp9NTU1OqqhqGwUGz4ziaps3OzhqGwal0MpnM+zWKxWhwcHnbDB47Rp2dlY4Pb7q+vuL9zu7BZCo75ry2n1R8z6OjNwtA8hYwMLCSmWsAAAB4l8AE9Pr68z//8+9973tEFIlE/viP/9hd8GfbtvjPKoUXXnjh5z//+bPPPuvxeD796U8PDAx8+9vf/vznP7+hiwYAAADY7np6enp6ek6dOkVEiqLU1ta6X83lcplMxufzlRqC5obiYDAoUuNEIiGiZ/dplmV5PB7HccrPQfOGhGLYWRznAmXR+MEN1Llc7jvf+c4HP/jBJT9mMpmcmJh46aWXDh06dPr0aZ/PNz8/L1YiSRJ/hHQ6ffbs2fe+971TU1OmaRqGceXKlZqamvr6er7p+Ph4KBTy+Xxer/fcuXPNzc11dXXZRfzxu7u7876ujo4O3rZxenp6fHx8dnaWM33ugFZVlUenuYuDV2UYhq7riqJwC4fjOOPj44VZP+vtXfYo9MAAHTlym45Cc7sFr80dHzvOO9muuw1jeLjc1U6eXMu1ufEa4nE6evSdb3J4mEZGMA0NAAAAxSGAXl+f/vSnH3nkESLi/4zx7Nmz4qWFhYWPfvSjeecvLCx0dXWJ/dB37959/fr1Zd2xra1tbGxsdasGAAAA2P6+9KUv8W6EXMQhypo5DNV1XdM03j2v6NsNw0in09XV1RzCFqbPfCnDMPjKolCizJI4g+ZzRAztLuIgIq6zUFX161//+h/8wR/kXYEHnK9du3b9+vVr164R0fXr13Vdf/HFFzVNs207FovFYjHOu4lIluVYLGbb9osvvvif//mf+/bte+ONN4gol8slk0lFUXiieWFhIZ1O81dx48aNy5cvt7a27tmzh29qmqaiKHNzc7t27XI3zvFqL1y4cOHCBU3TeJsTHnCenp42TdM9981Fz5lMxr054fT0tNiJsSgehSZaXh3H8ePLm57eGDzyfOwYOc7Neo3BwXfan5drveeRxTdPiysX6bNYNgAAAABDAL2+7rjjjjvuuIMf88THyZMnDx8+fPHixVdeeeV//I//wS+9/vrrjY2NLS0td99995e//OUrV67ccccdqVTqtddeGxgY2LTVAwAAAGxfXMTx5S9/mYh0Xedd8sSrXMRRJoAmonQ6zTvm8aRwUVxqIS6SNwpdOBkt5qAFHoKWJEns1BeJRJqbm3/605++/vrrsVjs2rVrqVTq+vXr169f548gy7LH44lGo16vd8eOHXlL4thXBNy2bdfX17e1tU1NTY2Ojr7//e9/8cUXeW2maU5NTUUikR07dnAbBofI2Wz2ypUrExMThw4dCoVCvKOgoijnz5+/du3a+9///nA4TESvvvrquXPnUqkU3yubzfr9/rm5OTHRLNbAg9KJRMJxHJ/PxzPRXM1R6ot1Gxyk/n4aGFjGBn19fbfFKDRPPYvQWZJuKbsor/yMczxOIyO3TEyvH55DZ/zbedO/WAAAALitIIDeOLIsf/WrX/3DP/zDvXv3vvnmm1/5ylfE3wf++q//+rHHHvu1X/u1u+6664tf/OInP/nJ97znPW+++ebjjz/++OOP8zl/93d/Nz4+/pd/+Zeb9wkAAAAAthVRxFF0N0JORcPhsNdb/M/M2Wz2xo0bXV1duVzO6/WWmm42TZMTYX665Cg07xTCp4l6Cq6/CAaDtm2bphkIBO67777nn39eDBHLsszr93q94l5liAV4vd7q6uqOjo5QKDQzM/PGG2986EMf+s///E9N03gzwPn5eUVRfD5fNBo1TTMSifB7FUV59dVXq6urRVE1Gx8fb2hoePPNN3mnQfFZiGhubs798WVZlmU5mUxqmsZfOJ/m8XimpqbKzz7nicVoaGjZOxOePElDQ5s5Ch2L3bJgd6nF6m1YAO2ehnbDKDQAAACwd2Yf4DY3Pj7+mc985oUXXih/2ve///1XX30VOTUAAABAJU6dOvW5z32OFgNcMaosEtL6+vq6ujoqFhnPzc01NzcHAoFQKMSlFiKqdifO/F5R8SHwtHLRJNq2bcuy8nZB5Kc8mMx/hpdl2ev1Vpg4i5Xk3ZGXMT09/dOf/pSIMplMKBT6wAc+8PLLL+u6zvGx++P4fL7q6upgMOj+sPwN8FPLsgzDEG/xer0+n0+WZR4YF3dkiUQil8vJssw7EBKRoiiKovCZfHfbtj/72c8++eSTlXxAnm6uvIAiFtuEUejBwZtTz0Q3p55XsIbOziU+Jndkb7B4/Gagz78d1jZSBwAAgC1KXvoUuD20tbU98MADf/qnf7rZCwEAAADYPngImohs21YUJe9V27aTySTvAZg3t5FMJmtqaohI7Bxomqau63kFGoyLOAovnndNaRGnt5wsezweWZZFcGzbts/nC4fD0Wg0EokEAoHK02dazLszmQw/FSF4a2vrQw89ZJpmNptdWFh45ZVXmpubu7u73YPY/BZd12dnZ6empqampvg6XOvM35JlWdlsVgTotm1zWfbExEQ6nTZNkw/ypTh9psWybN6uUFEU93e43HGZWIxOnKCjRys9n0ehNzgk5alnjmgdh0ZHV7KAJUP29a6BLipvnBzpMwAAABAC6K3lC1/4Ak+mlNHW1jY+Pr4x6wEAAADYBr70pS/xA9u2RT2xkMvlEolE3sFsNstjv7Q4mMw4aOZi6Ly3WAV4srhUF4fIoHmC2Ofz+f3+YDAYDod5+liqGA9K+3y+UCi0c+dO3sYwk8nU19cHAoFwOBwKhfx+f2Nj40MPPbRz506v15tIJOLx+Ozs7O7du8WXIz4jp+3ZbHZubi4ej/OGh2x2djabzfKMNg8vZ7PZVCrFFdKWZeVyOVVVU6nU+Ph4IpFQFCWVSiUSidnZ2cJ/AFgZboRY1jaDx45RZ2elFdIrE4/TwMA7oTPRMlLyQpUsdVMCaGF09J3vf8lhbQAAANje0AG9lYghaDRsAAAAAKwV926EmqZxo7F7e8B0Oh0KhaLRqHiLqqpNTU382LZt9zaDRGSaps/nE2/nSWex7x+XdXg8HnFCXgbtDq/dj/m0vJPdT/MuyOk2j1FzXYbjOMFgsKuryzCMRCLR0NAQDocTicTCwkIulwsEAtXV1bFYzOv1zs7OEtH09HQ4HO7s7FQUZWZmpjBVF2E0f2pN00S9Bt/XNM28AW1Ormlxclx8RbTWuIBiNydSuAAAIABJREFUWa3QAwPrWMcRi72zUx/dms+uQIV57obVQBeKxW7uo8i/K/v6lt5WEQAAALYrTEBvMZUMQQMAAADAsixZxLGwsCBC0rm5OZE+M05giYhnfh3H8fv9XEPBk84idA4EAn6/v8yOhSLkFWm1mGJmnlvJLnwXv9/Pc81VVVXc0SHKmiVJ4mSZ551t2w4EAo2NjZ2dnZ2dnbW1tQ0NDfv27du/f78sy1ypoarq6OiobdsdHR3urRHzVkuLYTSfw5PgiqLouq65ZDKZZW0tuEo8Cr3cOo61HdflTmr3knh4eZU7H1YeQG+uePzm94/0GQAA4N0MAfQWs2QTNCo4AAAAAJarpaVF7HHHHRp5J+i6zkUcmUzG7/fzwWw2Ozs7q6oqZ83JZPLy5csTExM+n4/LoDk79nq9HDqLgg7DMHIuXE/BAbc7aM4Llwv3D2SyLHPoHI1Go9FoOBx2h855LMtSFIUvlUwmNU2TJCkQCFRVVbW3t3d1de3Zs+ehhx76wAc+kMvleM2O48zMzMzNzcVise7ubr6O4yKO5N2rkiOlDpY5vlyDgzQ6uoxBYI6M12oOmps93HXPazKSfPVqRaedPLkG91oN/jcA8SvZ2YlWaAAAgHcjBNBbD4agAQAAANZcT0/PY489RkS2bWuaVnhCKpXSdV1RlIWFhUuXLp0+fToej2cymYWFhUwmk8vlOjo67r///r17946NjY2OjnIQzFlwXg2Fe5tBnon2+XzuUo4lybLMF6+pqYlGo6FQKBgMivqL8mm1qLS2bXtsbMxd3BEOh7u6uu68884DBw784i/+ommaNTU1fFlFUcbGxsbHxz/0oQ/t2LHDHT1TsZloztPd51Tes7FW0bMQi9HQ0PJGoVefk/IV+KOsct65UCWjzWt+01WSJIrH6fjxzV4HAAAAbDgE0FvPkkPQAAAAALACYgjaNM3CjQQ9Ho+iKIZhtLa23nfffYcPHz5w4MChQ4fe97737dq1yzTNt956a2RkJJlM7t+/f+/evaOjoz/5yU+mp6fdOwHyRoKBQMDn87mD6UoiV1mWg8FgMBisra2NRqP8uPxbCpNor9fLE9AcsnN1NZ/j8/nq6+t5w8Ndu3ZFIpFDhw7lcjm+F69Q07SXXnopEoncc8899fX14rJlhp3zHqwsXI6vuhSDR3ErbF5efQDe1/dO9zQPPq+t8t9Hfz+dOEGjo3TixBrfdzXQxQEAAPCuJa35fAFsgPHx8c985jMvvPDCsl4CAAAAgPKeeeYZ3o1QluXa2lquSOZZ5qamJs6RuWrZne3yQVmWVVW9fv369evX9+3b197enslkLl++rChKa2vrnXfeWeqmZf5AzvUaRFQqay7z3lAoxD95PpqI6uvrbdu+fPlyLpeTZZkz6Pb29vAid0b8s5/97Ny5c1NTU1evXiUi27ZVVXU3OHd3d1dXV4+Njc3Pz+dtlihJkujFFt+S+wgtbkIo7ujek9A0TdHvwaXSd99997Fjxzo6Okp92MrF40vsTLhWfz2SpHc24ltb8Th1dpY7YWiI+vvX/r5rZf2+GQAAALg9Fe+Gg9ucGIL+y7/8y8KX0AENAAAAsDK8G+GpU6ds225sbGxra6upqeE+ZR5AFjUXTLQz89NIJLJv376Ojo5r16698MILBw4cuO+++3w+XyaTsSyLK5Xdby8aH3PozKUc5VdbNGIWR0pdPxQKjY2NTUxM8NPR0dHDhw97PB4ureYtEx3H6erqmpycVFW1tbX13LlzpmnKsuxeFQfToVCoq6uLk3dxC3fbBl8wbw3LHYJZw6EZHoXu7aWBgbXcbJANDtKxYzcj7N7e9RpA3vStBVeDt2SMxykev+1KQgAAAGCdYAJ6qyoz6dzd3X3hwoWNXxIAAADANnDq1KnPfe5z+/fvr6mp8fl84XA4FArxTn1i0pljaHcYXZixZrPZ8fFxr9e7f/9+InIcxzRNXdeL7tonQue8zQPdEXPeY35aeKnye/rxTLFt23Nzc1euXNE0LRQKPfroo3wOB8eWZfE88vz8/NNPP53JZBKJxNjY2OzsLBFVVVX5fD4xzizWydm3qqpzc3N5DdGcaOd1QPNos1hb3gS0OIF/3nfffZ/+9Kcffvjhoh9tZYqOQq/y70bid8G6/h2LY+4ybucJaN7jEePPAAAA7yqYgN6qlhyCbmtr25SFAQAAAGxpHR0dDz74oGVZtm17PB7HcTRN8/v9HEMTUeGmgm5c0OH1eiORSENDw6VLl15//fUDBw7woHQgEDAMg0NV3kgwGo36fD4OlMPhMC1GzBx8l5mYLkx43Y95qXmhs8iFHcdpaWlpamoaGxt7++235+bmGhoaaDFS50lnItI07eGHH3755Zcty2ptbfX7/Tdu3NA0zefzBQIBy7JEDK1p2tjYWCgUamhoaGhoUBTFPRBNqx5h3rlz57Vr19Y2gOZRaKJbyppXRgzzOg5J0ro3L1+9ur7XX1fu8o3OTjpxAnPQAAAA2x8C6C3sC1/4wmc+85nNXgUAAADAtvLNb34zmUxGIhFN08LhMPcRy7LMHRqyLHOem9fFwbmzx+PJO753715FUZ555pnDhw9zS4bf7w+Hww899FAwGOTEmRUNl93JMhULmvMW7+7QEOPM5EqixU/eXbCrq6u9vV0E0G7Xr19XFCUUCr3vfe97+eWXc7lcW1vbjh07Lly4YBhGMBjkIJ43bOS3qKqqqqosy6FQaPfu3aFQyLKs+fl5nonOu/6SkbQ4obe3d25urqWlpfz5KzM4SP39NDCw8l6LePzm23m9G/Dfl27pCg6Bp8UHBm6vnRIBAABgPchLnwK3KzEEXXgcNdAAAAAAK/DNb37zjTfe4NleXdcVReEY1LZtRVFosWqDB4r5qdfr9fv9wWDQ5/Plpc8sEok89NBDzz//PGfBXOIxOTkZiURKLcNd6JFX7lHqJZ6w5tyZ1y8WWZR4Sew96LawsLCwsCBOeN/73hcIBIgoEAjw3oOcy0uSxOPbfr/f/dk1TRsfH7948SKPRXd1de3atau9vV3E3BUORIfD4cOHD8/MzLz55pt79+6t5C0rEIvR0NDKg+NY7GYizO3GG2DNq6s3XjxOvb1EhPQZAADgXQET0FsbhqABAAAA1tBzzz2XTqcty6qvr49EIlzc7PV6JUniDLquro5DZ1mWI5EIx7Ju7i5jIRwOf+hDHzJN84EHHpAkaW5u7q233iKi97znPSsYdi58iXGmXDhJXfSn+GhEdPbsWSLq6Ojgd4kCDXFyOBz+4Ac/+O///u+6rgcCgYaGBlmWM5mM3++nxRSet1jM5XJcIc2NH4ZhKIrChR6BQKCmpubOO+8kolAoNDMzo2kaEamqyg9oMQ0PBAI7d+5saGiYn58/ffp0IpGIRCLV1dXL+7VcjpW1QLibN/r6NihL3QbpMxHFYrd8XdiQEAAAYHtDAL21lWmCBgAAAIBleeaZZ6anp/1+v+M4iqJ4vV7btk3T5L0HiSibzQYCAQ6dJUny+/2FqWjebG8gEGhqauKfU1NT//RP//SpT33q4MGD3d3diqJwlcfKMmjR6VyYL1col8txAH39+vXq6moOoBVFuXLlSuHJ4XD4wx/+8DPPPGMYhmVZ1dXVgUAglUq5p7DdmwqKBYvGkkwmk0ql+AQu1Oae60gkEgqFgsEgz5irquo4zuzs7MWLF/k7J6KHH354XQPolensJFrs3NjISd7RURoZoZMnaWRky+fR/Nunv5+GhjZ7KQAAALBuEEBveRiCBgAAAFgTp0+f1nVd1/VgMGgYhq7rqVQqGo0ahuH3+3njwampqVgsRkQ83lt4EQ5kA4FAY2NjTU1NTU2NeKmpqek3f/M3n3766U9+8pM7d+6srq7m2oolm53dLxWGzoXKDD67f+q6HgqFiCiRSPDIs2EYV65cKXqypmnZbLarq+u1114Tn7G+vj6VSlmL+AuxbZtnosVctmVZYkCb8cgz/xR7JIqNE/l4IBCwbXvHjh01NTW/+7u/W8Ev4EbjLQc3bPaZ8aRwf//N6urh4Y279Zrjwed4fJu0WgMAAEApCKC3vMIhaHRAAwAAAKzAqVOnOCRVVTWXy/EotLRox44dRGSa5sLCQn19PRFZlpXJZKLRqLiC3+9vbGzkkeeit2hqavr0pz/9N3/zN7/3e7/X1NRU9Jy8PJqIeNiZKkuWK8ex75tvvklEyWSSiMbGxvglTdNUVZ2bmyOi+fn5+fl5cfGGhoZEIsGPPR5PTU3N3NycrusiXxa5M0+Oc8juOA5H0nkVJVzWIZ46jqOqKj/O5XKNjY2macZvsynfeJw6Ozduy8FtLBajo0epv3+z1wEAAADrDAH0doAhaAAAAIDVu3Hjhnicy+XS6TSXFzuOk81ms9lsMBh0HCedTldXV3MxtK7rO3bs4HbjXbt2VXKXxsbG3//93//bv/3bL3/5y2LjvqLlGyuLlZcVVVuWxbPPyWTyG9/4RjQa1TRNbD/ovqAQCoVM08xkMrQ4Bl5VVeX3+7PZrJhoJiIOoN2fyOPxcKWJOFi4TaKmae7vZGJiwnEcn8+33C9hXQ0MEBFJEtLnNSDS585OGh3dzJUAAADA+imyTzdsOWIIWjwV0ysAAAAAUIlnnnkmLww1DCObzeZyOSKyLEtRFK6SME1zfn6eiO6888577rnn4MGD99xzT4XpM2tsbPzUpz71ne98xzTNvGFnWpwgrjxHXnE4y2UX165d46ezs7OXLl0aHx/nXQGz2Sz3kIgdBcUbubuZiHRdp8VNCMPhcF1dHR8n19S2+3Z537B0KyIKhUJer9fj8Xg8Hne79G2FCzd6ezd5GdvG8DBJEsXjN5N9AAAA2H4wAb1NYAgaAAAAYG1ZlqWqanV1tc/n4yLjVCrFRRzpdPqRRx7ZtWuXJEmWZblHfSt07733TkxMnD179p577uHp4CtXrqTTacdx/H4/n5OXL5d6kPczEAgsGVXzA03TJicnFxYWeP2yLIt+DFGjwd+DWLYIi/1+v6Zp4iVZlnnk2ePxhEIhTdO4bYM3OWSFkXSpDQyX+2VuGFH3fJussVQ3CfdEbxUiysc+hAAAANsVAuhtorAJGgAAAABWyTAMVVXFVC/3ctTV1UmSdOLEiSeeeIKLOEzTdCetFdq/f/9f/dVf/dmf/VkoFLJtu7W19cKFC7wLYoWhc9EH6XS6zAmapo2Pj8/Pz4ueDY/H4/f7Q6GQx+Phce8yOJU2TdOyLN4k0LIsfurxeEzTNE3T4/FEIhFFUfLKnfMCaM6s8xZZeDt+0NLSUn5hG2BggEZG0Lyx9mIxfKUAAADbHCo4to8vfOELP/3pT4movb0dmxACAAAArB5vM0hEnLTSYukEEaXT6ddee40jV9GYsSxNTU1/9Ed/9PWvf316enp6elpV1d27d1PFI8+Vn6Bp2sWLF//rv/7r2Wef/fGPf3z58mV3y7Nt21zfXH6Omz9jLpfjUg4i4jlon88XCoXC4XAgEBD9zpIkRSIRIhJH8vYepMXx57yvrujXeJvMRIv53JGRzVzGNiZJaOEAAADYnjABvX2IIegHH3xws9cCAAAAsMV4PJ6ix7PZrKIoHKcSkW3buq4HAgFJki5evNjV1VVdXc0pqqjO4NSVY1ORwPJwMR8Ug8a2bTc1Nb311ltdXV3pdHp6enpiYqK5uZlWnT5rmjY2NjY/P8911Uvixuei2/2JD1IYIvO+gjzIbBgG1zfzTLRt2+FwmLcl5O5s9xvL9Dvn7cdIt0EAHY/fLLVwHBoZQfvzuujrI0K4DwAAsE0hgN5WuAn6wQcfxAQ0AAAAwLJMT08XPW5Z1szMTDAYFD0bhmFwz3I6nT558uQv//Iv27atadrExIRIWsvUNPMD0zTT6XQikairqzt58mRXVxcRnT17NpVKNTc3ryB9VlVVVdW5ubnKQ+e8K+i6btt2XgM1EXHnRtEUWJIkn8+XSCQ4aKbFDQm9Xi93QHs8Hk3T8vYeJNf4c+Xr3ERcvkFEjoP0eb0cPnyzXxsAAAC2HwTQ2woPQf/d3/1dW1vbZq8FAAAAYCvx+XylXtJ1fXp6uqamprW1lZ9Go1Eichznxo0bN27caGpq0nVdlmX37DOVSJ+5SDqRSPDTaDRaW1v79ttv810cx1lYWKitrS11HSoWOnPuvMpvoHACmjs38mJiTpOz2SwRmaaZy+UKJ6NpMYmWZdkwDPfehu6Llw+gb594+sQJkiREz+trcHCzVwAAAADrBgH0dvOFL3zhkUceQQANAAAAsCxlSiF4mDeRSITD4Wg0mlfW8fzzzz/++OOO43CHcpn0maee3f3LfLy9vf3ZZ5/dsWMHH7x69WptbW2p0FlRFE3T5hatyWdnHEBzEM8z2pw1c/8114Zw4pz3Rv5CRNmIwFF74Y3cX3Vh4cZtRRRurOEaBwcRthbHvy96ezEKDQAAsN0ggN5u2traPv/5z/NuhAAAAABQoZ07d5Z6iXNYSZIMw0gkEsFgsKamhsuObdtWVfXll19+6KGHRJZamEGLwo2iG+5Fo9E777zzrbfeamlpIaJEIsFD0Hmh8+zs7JqHzoJhGHzrcDhsGEYul8vlclx4XcnbCzNoTp/5I+SlzOWz/hV/hDUXj98sJl7DRfFHP36cTpy42SsNQm8vjYxQPL7Z6wAAAIC1hgB6G/rVX/3V73//+5u9CgAAAICtpEwATYvRKldJKIoyPj5eV1cXDAb5VU3Tzp07d9ddd3k8HhHCiv0GReFG4TgzEem6nk6nZVmen59vbW3ll6ampvx+v6Ioc3NznDuv+efNw5Uafr//2rVrnBdLksRJsfhZJjimWzNoVVVFK3Se8hcpGtBvFhEQr9XMsvjoHG0fOYJR6Ftg8BkAAGC7QgANAAAAALAEy7K8Xi/vqkdEhmFwYisy6ImJiUAg0NHRIWqgTdNMpVKi65njVF3XU6mUYRi6rhuG4W6oqK6uTiQSPPicTCbPnj0r9u7LC23duXDhCeJx+ajXzTAMvpeu60ULnYve3X0jcVCW5VQqVTg3zaG2KCqhpfJl96uFexhuGMehvr51iYnjcTp2jK5epaNHMQoNAAAA2xwCaAAAAAAA4vqLUkzTDAQChmEEAgGuhDZNM5vNGobh9/v5nHg87jhOU1MTTz0vLCzwdLM7dC5zi5qamkuXLt13331ElM1mq6qqRHi9eqUSasuyDMMQaa/X6+UujjLyakaYbdtcFa3ruuM4Ho+HU+O80yrMxDd99pmIJOlm88ZajeUW/ejDwzQyglHod6AGGgAAYFtCAL0NtbW1jY+Pb/YqAAAAALYt27ZzuZzX67VtO5vNnjt3joiqqqpmZmZ27tw5NTXFcXPlM8iO4wQCgWg0OjY21tLSIkmSyLXXRF61RS6XM01T13WOiWVZDgQCVGwjwfL4e+Cf4iB/ah4Vd1zyvo0yKfOm70w4MMDLoKNH17h8oxCPQhMhgyYiisXQAQ0AALAN3da7TsOKdXd3X7hwYbNXAQAAALCVPPjgg6VekmW5qqrK4/Hs2LGDJ3zD4XAgEPB4PJIkeb1eWkxUvV4vP3XLq8UQP/P+KJ7NZjmAjkQigUAgkUiUalJeAd5RkKPnwlc9Hg9H3oqiVHKpwty5/PmWZRUdmqZbk2hRYOI4Dr+LiCRJ+slPflLJjdZWZyeNjq7NpSr5l4hYbNk7E3Z2Fo9rR0dR6wEAAAC3EXmzFwDrAkPQAAAAAMvV09NT6iXbtk3T5MBUBMcifrVtW1QbFy0sFlPAoqqCSzz4gTji9Xr5oKIoqqpWVVWt8hPZtq1pmqqq8/PzHGeXmnG2LIs/Dk8ul7qaruuapmUyGc6yi57DRRy6rquqmk6n0+m0pmmb2OO8YhuZPtPizoQVzkGPEA0SxUu8eoxouKLLAAAAAGwEBNAAAAAAAERlA+g8HKdy2Cqmm0XpRIUX4Y0KuSF6fn5+cnJyZmbGtm1FUSzLymQyyWSyTBxcRi6XU1U1kUhw6Mz7JS6Jo/DC46Vy57ysmeNmjs4NwzAMw7IsWZb9fr/P5ytsI1nWF1Xhmas3PEySVGlkXKGjRys9k+s4Ss01E1GcaJBIIuojOlb6OsNEA0SdRANEI8tY6eYbGLj5/aOIAwAAYDtBAA0AAAAAQER06NChMq/yzLKYIOasljsiREIqyzJPOpe6CIfOPBe8sLAwOzu7sLCgKEoul+M2j+rq6kQiwbPSiqJUuA8h74uoqipn2el0OpvNLnfo2HEcwzBEUuzOnTVN4+hZ1/VsNls0a+avQigTPd/O+vtvPljDAHRwcHmdGEVHoeNEg0SdZXPn/OsQDRP1EQ0uceJmilOc/zdCIyM0QrvjN4/HN3NVAAAAsLawCeH2xBUcbW1tm70QAAAAgC2jpaWlzKumafp8PsuyOCkWGbFt2+FwmDfZY+4N9zgatizLMIxcLmcYRt5lJUkS9R1E5PV6s4vKNyzzAnRdJ6JKZpw5ILYW0WKkziPMPp+P7x6NRvklVVXF+Xl7GOY9KDzu9/v5W1pyVeSqNBFX4CObtVfNetyW+52Hh2/uN7gkHoU+eZKGhigWoxGivlXc/RjRcaIj65xEc4jMD/jIVboqXnI/iJfsDiEavLnKAYodoSODt3V4DgAAAJVCAA0AAAAAQETU0tISjUbT6XTRVzkPTaVSoVCIB3s5xjVN0+PxyLLMdRk8BG2aJu8fWDR0FmRZLkxpTdNUFMXj8eRyOXc2LQJZ0zT5soUzziJZ5ptaLoV3cXdu8GS3YRilPv6SeHm8JSNn1vy4VIvIbbgX+hruOlgoFqPBQervp76+Ssd7R0aor49iJ2gkttq7xxdHpwdXe6WShmn42DLms5cQp/hxOh6jWD/1r9U1AQAAYLOgggMAAAAA4Kby+xDatp3NZg3DUBQlk8nwlK5lWYlEgieRubt5cnJydnZWURRFUUqlz5IklZoRjkajHDFzOizuomlaOp2enZ1NJBKpVIrXkMlk5ufnuUKaW6RnZmbm5+f5JU3TuB9DXFyE4+L6bu5K60o4LvyhROcGD2gbhrHkKHfRyy7r/FJSqdR//Md/VHjy8DDF4yRJNDCwJjcvjkehl9EKfbRk+lzicDnHbu86DiKikV6SHJIcGunlDHqzFwQAAABrABPQ2xNXcGz2KgAAAAC2mJ6enpMnT5Z6VcwXezwekepypDs/P891HEveIq9zQ1zEtm2ea+bM2uv1EpFpmjMzM7wtYdFB5gpxhG2aZpls17Ztd3lI+asVHuT0uejJfNlKYuXVRM8TExPJZHJsbCwcDo+NjV2/fl2SJE3TXn311V/4hV/4wAc+UP7t/f3U30+StIx0eGV4FLq3lwYGlhqFHqKi478xoqNE/USdVLzM4gRRnOh4sR0I13sOerV6R2hogE4eplicypd1AAAAwNaBABoAAAAA4KZ77rmnzKumaXq9Xu7c4EhX9EtwhUXRBNaNOzfcMStXYbhLnD0eTzKZjEajnFMnEgmx8+EK8DrLzyBz6Fx+/Ll8NOzxeEpVbfj9fr/fX0l0XuoWpbq5ReJ8/vz5sbGxpqYmXj9H/KFQiIgikQgRvfXWW6FQ6L777qtgDUuesjZ6e5dqhe4vkj7HKqtyjhH1EvUTDRbbtPAYUax4sr1scYoP0zARnaSTI0Xi7hXpH6b+YX4YW8mcNwAAANx2EEBvT21tbWNjY5u9CgAAAIAtpnwNNA84m6YZCARocRSaX+JYOZfLcQZdOErM+xOSa9iZGyoK78Lj1cuqwihUychz3kdzHMfj8eQNcVfydrElIxGJ4W7HcWRZDgaDRYPpopdd8l4TExPnz5+3bfvChQvj4+M7d+7kQF+SpPb2dnf6XPjtvf32262tra2trUWvPDBAw8O8hvJLWEs8Ck1UIoMeKjifaLkN1YNE/UR9BYPSx4h6l1/iEac47zR4la6KLQfX1RE6st63AAAAgA2AABoAAAAA4KaGhoYyLRwcs/L2g3ktHOIBT0nnvZFjWc6dTdNccqLZfYXCvo7yOAdfbllHXk/0cu8oAmhajNr9fj9PH6/ggoW++c1vXr9+vampSVxKjEXz7dyhs3jAXx2foOv6K6+8kkgkIpFIT09Pd3e3+/qcPvf2rnKZK8E7Ew4M0MiI6+iJ/NNiy0+fxRtPFGTQcaJjRSLufJwyxym+lgPOFTtKR7EDIQAAwPaAABoAAAAA4B33339/mRpo27ZF9Fy08dm2bcuyRB7K08G6rhuGUep8WtzhkB/z5HJeirqkSqo2SrEsS+wiuLKwWMx3y7Ls8XhKDT67V1v5xdPpdC6X48SZv3mROLs3cpQWFa6NH2QyGdu2E4nEf/3Xf0WjUfc0NC+HY+iNF4vR0JCrjqOXqDf/nJWlzzevXyyDHiY6cut9xIAzrW2lxgqM9J7oPdpb+C0AAADA1oQAentqb29/9dVXN3sVAAAAAFvPnj17yrzKyWkul5MkKRgMctZMi7PPRCTLMk9J86C0pmkiWSYiy7LciXPelcUcsWmaiqLwBHH5JJevudz9CflT8L34vny8kk0UC3HozI/9fj/3kxTersJVFT7t6uoSITIXZDc3N1dyncIw2ufz2badTqdfeOGFeNcvqr5IU1AmonvqfI1Bub9/0/5yxHUc/f3U10fxgtqJgnno5V+f6CjRwK0HjxHFaXizBpwLxSh2hI4M0iCSZwAAgG0GATQAAAAAwDt6enp6enpOnTpV9FUR3WazWR5q9nq9XOUsdiDkMLry1NXdXyEoipLNZoPBYGGeK95Y4cizs4hujZvXCl/T4/GEQqHlFoawwslrd3bs8Xh8Pp8kSaZp2rZd6gsp+t48vEhu3645P/KJr//9/9f03/782f+NiA4duHTgf+68t9b7SEvg3trN+VtSLEYnTlBn7JaDvUXmoW+Kx0tep1A/0XG6JWYeofhIfii9Cd7JnQEAAGCbQgANAAAAAHAL0S9ciMNYH4vzAAAgAElEQVRWjjgty0okEsFg0Ov1itCzwvTZcSl1jmVZiqKoqppXKm2appikLrwsFRttrtCK+zdCoZDI3yu57LJulMlkeKI8EAhw0u3e/rEMWZbFdLbX6/V6vZyPLywsSJIUtbOhKmnsWT+f/NXTT979q1ee//ATT+9/+G/e+wuPNvuf6AxVvsi1MhLLP3J07S5+lPLmnGNE/UTDa3eHZeDcuZ/6Y67dEPn/Rv39NLRkQTUAAABsHQigt6e2trbx8fHNXgUAAADAlvSxj33smWeeKfWqZVler9e2bU6iufvC6/VyqLpk+lx05Jmf8jgzp6sej8dxHMMwxMBv3shz3kTz6kebl1sALctyMBgMh8Puz7WaBZR6eyQSkWVZRP9+v9/j8fD3n7ceWZY5rPd6ve6EOm+XwkAgoOs6EZ3+xCeGXhoYElPAk/TE8a88QTTd3PHFr/3LdHbvE52hxuBKZrpX7HjBkd61u3gvUW9+Bn1kbQPoGMW4u3m4xGU5d+6lXlQ8AwAAvHsggAYAAAAAuMWSLRwi/eSfIoMuTEXd73Lnznwmp9W8b6H7ZL6UruscqpqmmcvlxNvXo0aDXPmvuGneCRzp+v1+HkbOm0EulV+vfql79+7lAJrXwBFzNpsNBAI84CxJUt6QuHtV7uiZLxIOhzmAzuzYMblvX/P583nvapy89hd/+PHnP/zEF3/nv2/wKHT81qf9a339w0WGoFcuRrEYxQ7TYSLKy5TFfobizEpy53X4fQ0AAACbDwE0AAAAAEC+J5988nOf+1zRlzg45mSTiGzblmXZMAxVVUOhkN/vzzuZWZYlEufyxc28jaE4R1XV9YibhY997GMvv/wyt1qbphkIBHw+H88ai6YRr9fr/lz8WQovlZdBuzP6PJWXcjzyyCOJRCISiUQiEc7lafE7500aS11BlG+4j/MKZVn2+Xz8Df/1J77+lfO/NEQD/bdO7DZOXnvi+FceffbpL37tX4i6NiyDjt/69PBaX7+X6NgtB2LLejsPOO+m3UtGyYfpMAfQvdR7mA6j4hkAAODdDAH09oQKDgAAAIDVKD8ETYuFGBxo6rrOwaiiKJqmcQzNc82GYSyZOBcS08dFi55Xr6WlpaWlpaen58knnzx9+nQymezs7PzhD39oGIYou6DFkWf3A+YuwnbjI2sYl7e1tXV3d7/88svNzc0848xfOA+D67ru3pCQX+J/GHDvhZgXi/PTqqoqXddVVd23b3Lfvsne8yNFF8Cj0BuWQccLjvQu/yIxipeJlYu9ECt2Z34hRkRH6AgVDDgvqZ/6iWhZufPAAA0PExGNjhbfRxEAAAC2KATQAAAAAABFlBmCFrim2X3Etm1FURRFWfF9JUla29y5paVl79693d3dkUhk3759PT09qVSKiKqrq4kokUhcvny5sbGxsbFxeno6r8Oa017TNDnS5bWJ0eaiGXReAL2aPLqvry+dTqfTadu2ee9BEUATkaZpeQG0mHqmYoPPeWdWVVUFg8F0Ov3Nh/8sdj5eag0bmUGPrOK9MYofoeF+Oh6jOA0PUX//Mt66GECLSo3VdzTHKLbcqeeRkcX3xlZzZwAAALjtIIAGAAAAAChiySHodbKaxJa3BNy7d+++ffv27Nmzb9++ffv2uU945ZVXvva1r8myXF1d3dbWduHChddeey2VSv30pz994IEHnnvuOV3XeQtEWmy7psVxb94XUSyPH+TVK9PyNzPMwyPYuq7ff//90Wj0hz/84fz8vK7rkiTx3oPi+lxU4vP5RPTsvm8gEOCnfr+fe0X4MVdw6Lo+OztLRNFo1Hz/+zM/+EHV7GypJXEG/df/81/vqbvr3tp1/AtUrIIjbqOji4+ODcaGXdUax46VCqALL9hPR3evReK8eu98HAAAANheVvWnQ7iddXd3X7hwYbNXAQAAALCFTUxM/Mqv/MpG3pEz1gr/iB4OhyORyJ49e2pqanp6evbu3VtTU7Nr167CMzliTqVSL7300h133EFEkiRZlmWa5uXLl998881QKNTZ2alp2sWLFznq5aJkd6zMNdB5mxOKsovC9mdWOM3NcXbeQW4s4RA5m806jvOJT3ziZz/72Y0bN4LB4Mc+9rHY4lgsz5jzLQzDeO9738shuN/v5xX6fD6RPovEnH/Oz89nMhluRPH7/Q8++KDjOIqiXDly5H/53vfKf9vPf/iJp48+9a2Hasqf5haPUzxOvb0Vn0/UeeuR0SVLmkdGqK+vyPH+fhoaWptbAAAAAKwOJqABAAAAAIpraWn50pe+9OUvf3ljbuful+DGCferVVVV4XB47969juP09vbu3Lmzo6OjaNzMFhYWzpw5Mzk5eePGDXH9WCyWSqUaGho46rVtu66ujnPb0dHRvr6+aDR66tQpLrvg4guxj6JpmlzE7Fa+iKPyYRdOvYlI1/WqqqpHHnnkZz/72cTEhBh2fuSRR+rq6vjkTCbzox/9KJPJ1NbW8jeQFzTnFW7kcrlUKpVIJPKO88+f/OQndNddS67w0Weffv7DTzzd/ItlijjicRoZoXicTp58p1CCiFY88xMvnw6XSp+JaHiYjhwpDL9Hipx6W0ABNAAAwDaGAHrb4n0I29raNnshAAAAAFvYY489duPGjW9961vrfSPukeDkV5blSCQSDocbGxubm5u5T6O1tbWjo6PCq125cuUf//Efm5qaOGb1er1cVUFE09PTLS0tYiPB1tbWlpaW6elpIvrJT35yxx13/MZv/MbJkyenpqZkWfZ6vfwue1HejfKKONwfp1T6nHfcXeKRzWZ7enruv//+H/7whxMTE3y8trZWluXr16+Hw2Eufa6qqvrIRz5y8eLF06dPz87O7tixo/CO/NQ0zYWFhXQ6XbiYbDabSCTm5+enp6fDO3ZU8q3+7//357/43jcebQk0BmVaHHDmoDkvcV6ZWMGRkfL7EPb2Un//zeC20MBAJa0WhTfdFCiABgAA2MYQQAMAAAAAlPOxj33s1KlT61cGLSqMc7mcx+PZv3//b//2b1dVVVVVVZUZcC7j0qVLTz31VDgc5sZkr9cbDAZFV0ZjY+PU1JTIpsPhcHt7ezKZzGazmUzm7Nmzo6Ojjz766Pnz59944w1+C6fVlmVZlhUMBslVD03LLK0WU95iPUIwGPzgBz9YXV39zDPPiPTZcZxAIBCJRHRdv3DhQnd3t8igDx48eOedd547d26HKz4WuXMqlVpYWCi/tmQyeebMGSJSdu6cuuuupnPnyi++cfLao//P//V/9B59+3ho9XFzUb23DimfXPINR4/eHLouFI/T4CANDrqPHbv1lP7lrW4doQAaAABgG8v/Yx8AAAAAALhxEUdLS8uaX5l7J3w+H88++/3+b3zjG0899dT9999/1113rSx9npub++pXv5rL5TKZjGEYhmEQkeiVliQpGo2Gw2FVVX0+n8/n83g8e/fu3bNnj2j8UBTl+eefDwQCv/7rv3733XerqqqqajabzeVyPKDN2/oFg8FgMOj3+7mmQyqGiDweD89f+/3+YDAYCAQMw9A0TVEUcWW/33/vvfc+9thjU1NT3/3udycnJ92fKBS6WXmh6/r58+d1XRcvVVVVNTU1zc3NiSOmaU5PT1+7dm1hYUEcLBVDv/3226JOeqqCFg4ievTZpy8HjHVKn4no8K1PR5YszYjF6OjRkq8eP543mB0ve7vNMjCw2SsAAACA9YQAetviCo7NXgUAAADAdtDS0vLUU0/19PSs5iKRSIQfeDye2tpabrdobm6+5557BgYGvvGNb/z4xz8+ePDgKpf693//9+l02jAMy7I0TXMchzc25M0DOQ6uq6tTFIXP5xD8rrvuam1tFRdRFOXMmTMnTpxobm7+5Cc/+dGPfvTOO+8kIsuyMpmMeKMkSbquZ7NZVVW5IdqNg2Y+zrsa8pV5D0Aiqqqq6unp+dSnPvXRj35UkqTvfve7p0+fJldezA/q6up8Ph8fMQzDnUEnk8l//ud/np2dNU1zfn7+6tWrV69eTafTRb+ZwhiaW6fZdGUBdOPktQcmf9xwwFz61BXpLzhyfOn39Jfc6DAep2PvDD0Xxrwl3rbRRkZIkqigxwUAAAC2CVRwAAAAAAAsjeeg33rrrRdffPFHP/pRJW/hPQMjkUhfX9/OnTt37dq1a9euiYmJiYkJjp7XfKr69ddfP336tMfj4cA3l8txdMuVF+K4JEn19fVivxBZlu+88876+vp/+Id/4OvwOZlM5vnnn49Go52dnfv27Tt48ODExMTk5OT4+HgwGMxms5qmiVtns1ki4oIO27YzmQxH3pqm6boeCARCoZBhGIqiRKPRrq6u++67j4impqbOnDlz5cqVwnZpXnZNTY3jONyCzRPTiUTi/Pnz+/btCwQC//Zv/+b3+ycmJpLJZF5sLT6I+2p0a7ptmqZhGPzNZCqrgSaie19/edeHH5k7vS5/k4oVtHCMLNkETURDQ9TZWfylkREaHqb+/hGi4Vtf6b9tCqBHR0mSqL9/s9cBAAAA6wMBNAAAAABARVpaWlpaWh599NHf+Z3f+dd//de8YmjeNnDv3r3d3d2tra09PT1FOzT4Iuu0wm9/+9uO46iqKsuyYRhVVVXJZDIQCESjUa/Xyz3OXJcRiURSqZR44+Tk5L59+z71qU99//vf5yM8NO3xeBRFOXv2LH/AWCzW3d3NY9qZTCaTyaTTaX7AFyEij8eTTqerqqqIKBqNEhH3WfMg9sGDBxVFmZ6efuONN0THNN2aGrsfNzQ0ENHu3bt9Pl9NTU11dXVTU1Mul4vH46dPn75+/XooFBI1GnlvL3VNwzBSqVQ6nc7lcuFwOBKJSJKUq62tpAaaiO55/aXw/iJxeRmSRJUXZR+5NYCOEw0QLdGQHIvR0FDJJotjx6i391jB7n63Sf8GW06ROAAAAGwxCKC3LVRwAAAAAKyTlpaWJ598kogmJiZOnTp148aNvXv39vT01NTUbO7CXnvtNW5eNgwjGAzOz8/X1NRkMplcLtfe3k5EsizzJn62bVdVVQUCgfvvv5/DWU3TDhw4MDs7++KLL9q2LcqjRU8FJ9E8TM1peyQSaWxs5DHqxsZGIspkMhw98/liYYqiTE1Nzc7OPv3003wkb+S5aFjs9/vr6uqIqLa2VhxUFGV0dPTNN9/kmeu8SxWte+aDuVwulUqlUinRAcIH+QRFUc43NVUSQDdNXg81Ly+AXpbegiHoONEA0dASb+ul3l4q2k4djw8fOzYydMsFem+bHQiXlc4DAADAVoQAGgAAAABghVpaWh577LHNXsU7pMUaXQ5n5+fnw+EwTz1rmhYIBLxer0jJd+/ebdt2TU0NZ826rns8nnvuuWdiYoJHnguJqFdRFEVRZmZm4vE4H4lEIhzjFr7LcZzCXLjUxoDu421tbbIs79+/n5+eOXNmdHRU3IKTcS7ZsCyL90IsvE4ul0smk3m5c+Enmpube7utrZKh4MbJa+FlBtAFw8dlTyYaIsor1BgmovIZNA9Blyji6B8ePn7kyIirKrr0xoUbanCQiEiSaGgIFRwAAADbFjYhBAAAAADYDp555hn3U8MwdF3XdT2Xy3Ethm3buq6rqlpTU7N79+66urqGhob/+I//ELG1z+erra394Ac/+Eu/9Et8xB3p2rZdKjUmIkVRVFVd8eILezMcx6murpZlubm5+cyZM08//fTZs2dF+syD2ETEuTP3TbuvlsvlZmdnr1y5cuXKlbm5uaLpMxFZlkVEU1NT2Ww2UfEAe/kMOhaj3l46epSOHqUTJ8hxaHSJBo2CKxQLiIeJOoni5d4Wo6Mlg+UhV0HH0dtm+8HBwZvjz0ifAQAAtjFMQG9bbW1tY2Njm70KAAAAANggIkdmtm2n0+l0Oi3Lcn19vWVZ2Ww2GAy2trbu27cvmUxyXnzo0KGLFy/GYjEi8ng8Xq+3qqqqtbX1t37rt37wgx9wbC3LsuM4PCxcJoNesaLX3LFjh9/vtyzrwoULgUBAkiTxAfl8eRER8ZQ3Lc47J5PJUolzoZmZGdHmUaHGyWuh5veokzeneThx3r37Zg3GmugnOnlrEQcRxYn6iI4QDZZ8Wz8dP06LY+lusXh8aGBgYGiot8zbNwkqOAAAALY3BNAAAAAAANvBz3/+87wjtm3PzMz4/X5VVUOhkKqqwWDw7rvvrqqqqq6uzuVyqqqmUqkLFy7s3r1bkiTHcaqqqrq7u7u7uycmJojoBz/4gaqqvHth+btz/ssXKfqqOx/PO6dodUZdXR2HyD6fj7NvSZI4bhZkWeYiDtu2p6ameF/BvCB+SSKqXqipudLRcce1a0u+Zbq5449/R1Yn1zJxzhMjGiIaKJZBHyM6ThQjOkIUc80yx4koFhsZGurv6yt6zd6RkaMjI4PrtOLl6+y8GZUjgAYAANjeEEADAAAAAGxbmqYpijI7O9ve3p7L5SKRiNgk0Ofz1dTU1NTUfPzjH3/ppZfe//73cxQbiURqa2sDgcCLL774wAMPvPbaa5lMxn3NvDR5yePLwgF0fX09l0rzJoTiJZ50FoPPYoNEx3GSyaSmafxUWkSLg+HuI4W34ynvyhc53dzxF/8rNQZX/CkrEiuRQRNRnCjuOh5zV3P09lJ/f//wcJELxuODAwPLLgRZN5w+o3wDAABg20MH9LbV3t4+Pj6+2asAAAAAgE2WzWZzuVwikSCiqamp8+fP866Dwo4dO/bs2ZPL5VpaWlpaWvjVurq6z3zmM5lMZu/eva2tratZwJI7EBaewBPZRCTicveZtm2bpmnbttfr9Xg8PMotthPk02zbtizLsqxcLpfL5bgRO5vNci+2YRh8nE9QVVXTNNu2Rzs6KvxQjcGN+JtUjGiogg0D47c+PVa6CZri8Zsb/90GHIccp0xtNQAAAGwTCKABAAAAALazdDptWZaiKLZtZ7PZycnJK1euTE1Nuc+59957z5w5w4+z2SyPPNfV1T3yyCN+v3/Pnj179uyp5F4rGIJ2HCevgmP37t20OLkciUTcL/ED0zSTyeTCwsK1a9fOnTt36dKlq1evptPp8lcWB03TzOVyqVRqdnZ2bGxsenratm2OoafD4SUXPN3csTHpM4sRDRKNEsUqfks8FhsYGir5comS6I00PEzit0kstpkrAQAAgA2AAHrbamtrwwQ0AAAAAJimqWmaaZqJRMJxnIsXL/L8b95phw4dmpiY0HWdiHg6mIh6enp2796dl0GXanmufEniZH7gflpVVVVfX89Pq6qq/H4/f4RMJpNMJqempq5du3bjxg3eaVBc0LIs0zTFRQqjZ8uyDMNQFGVhYWFubm5ubi6TyWSzWfeZuq5fWqrqmojO7H/43tqNbjKMEZ0gOupqfC5vuL9/pFTXczxOAwNrtK4V4vuvuq8FAAAAtgYE0AAAAAAA29z8/LzjOFw9oWna/Py8e7KYhUKh8+fPcwBtWZaqqkRUV1f3+OOPc7vFnj17PvCBD4RCoSVvt+ImaMdxWlpaaLFkw3Gcqampq1evjo+Pz83NJZNJXl4h27YLc2ee+1YUhRPnRCKhKAoH67Zt51V25HK5whnqop7/8BOPtARW9gFXI0Y0SHSCaJToaNmB6BifUGYIemSEipVEbxj+VUL5BgAAwLsENiEEAAAAANgOOLotikeePR6P4ziJRGJubi4vgFZV9dq1ax0dHSMjI/fee280GuUhaJ/PV1dXt2fPntOnTxNRIBC49957r169Ojc3V/RGZSo4ymxdKB7X1dXJsrywsCCe6rrO7yozYW1ZlkiTLcvKZrNFR7wZR9V5B3k4mohmC3L5QmcPvH/jJ6DdYkSDRIOL1c/xxf/1EpF7RDoWo6NH6dix4lc5dmxTtv8bGSGezF7OxDwAAABsbQigty1UcAAAAAAA48pjj8dDRI7jXL582R3Cqqp6/fp1Po2Ipqam5ubmQqFQJpOJxWLPPfdcNpvduXPn1atXeSy6pqbGtu1UKmVVUFhRqNQOhIFAIBqNihnnhoYG92nu8DrvCiJ9np2ddc81F9631KuaplW4+Oc//MSjzf4KT15vMdfP4vr76eRJGhkp8hIXcZSZkl4fx45RXx8RAmgAAIB3E1RwAAAAAABsf5qmqaqq67plWel0+rnnnrt06VIqleL0WXQx19XVqarKgfUbb7wxNDQUj8eJqKGhgfcGJCJJkmpra+vq6sQYdeFMcZm8uJTq6mrxOBAIFJaEFF6cNw8sEzoLeZ0becQKZ5aagH76yJ9sSv/GCvEQdCnDw8Wz6fXENyxVTw0AAADbEiagAQAAAAC2P13Xbduem5vbuXOnJEnnzp0Lh8PT09Nnzpxxjwbz4HNXV1d1dfWlS5ds21ZV1ev1BoPBUCi0e/fu0dFRLtMIh8MejycUCmmalslkKl9J0Ty6vr4+EHgn2K2trS31Xtu2eUpajC3LshwMBiVJkmW5MGUu2rlReI6maV6vl/c8LOXpI39y74G9m9u/sWy9vdTfX7LxeWCARkc3cjn8S7HhuTcAAABsJkxAb1uo4AAAAAB4Vzl48GCZV7kug/uRJUnKZrNXrlzhXg7e8U/TNN6f0DCM06dPX7p0iYhkWQ4EAqZpZjKZmZkZVVVrampkWSYir9fr9Xo9Hk9VVVVdXZ24kUh7K9yK0HGcQCAQDofFkUgk4g6jOXFWVTWZTM7PzycSCV6q+wrZbNY0zbw72rZtWVaF89e8D2EymZwIFB9wPnPg4aeP/Mnv37V0SfRt5+hRisWKvxSP0+Bg/pH1iYf7+kj8+mACGgAA4F1lS/3rPQAAAAAAlNDc3FzmVdM0dV33er3pdDoUChHRxMSELMs+n483G/R4PKZpmqZJRLZtv/XWWw0NDZIkeTwej8fD+bVpmrIsRyIR3qLQ7/fzBoCmaVZVVamqWr4NQxR9iCN8/Z07d7pPE1sgmqZZai/Bwivncjl3AL2sfmqfz2dZViaTyeVyLYsl1Hme/m9/8n8ejFZ+zdsIF3EMDBR/9fhxunqV4vGb/yOi3t71SIg51u7roxMn1vzaAAAAcFtDAA0AAAAAsB20tLS0trbeuHGjzDmO43DSGo1GLcuanJxsb2/n6FmSJJ/P5/V6dV33+Xw8dOz1egOBAOez4gr81O/38/nT09NEJMtyOBxWVbXCiWOhtraWizX4p9/vX1hY4ChZBMp5TwtZlqWqqqZpjY2NeZ0bvHJOxi3LEh+E56N5vFrX9Ww2W2aRX/zav1Bv7xYr33Dr7aVY7Ga+nCcezy/oKHraqjkOSdLG73oIAAAAm2/L/hEKKsAtHG1tbZu9EAAAAADYCE1NTWUC6HQ6zU0Xqqpyb7JlWfPz8+76C0mSuHOjrq5uZmamrq5OzEeL6FaSJL/fr+s6d1/4/X7Ojk3T5AzafbXyeTTPYuuuoWOv10vFZqXd3MG0bdvZbDadTvORubk5csXNpe7LuxeapumOp0vh9Pkvtuj4MxsYWKdYuRKdnTeLppf5bxMAAACwTSCABgAAAADYJg4ePPjzn/+81KucEXPYqiiKLMter1dVVZ595vINZppmKBTy+Xz8rlQqZVlWNPpOAuvxeCRJSqVStm1zNs1NHX6/PxAIqKpqWZb7goK7IToUCnk8Ht7SkA/6fD4umC6PP0VuEV/Ttm3btpd8O79Rv7VngwN0WZYL+ze2Q/rc17e8WmeugV6jFo6+PorHSZKQPgMAALx7IYDezjABDQAAAPCuUn4fQtM0s9lsVVUVP06lUlzinEgkCk/m6WbLsrxeL5da6Lou9gbUdZ0noznJFZPO/CAYDNJi3s0Xybuyx+OJRCLiqQigAyU2AGSWZfF9ixZDW5ZVpqOjaO6cd4LjOO6Z6+nmji9+7V8a992xtdPnwcF12lSwQidOkCSV3AQRAAAA3g0QQAMAAAAAbBPl5385Ec7lcl6vV5IkSZIWFhbc/RvuMzlHzmazfE3HcTRN8/v9tm1rmsaZciAQkCRJ0zRZlkWXhXvGmfGYs+Dz+bh5Q+AMuuj4c/nQ2X2Fon0deVUb5TmOsz+RIKLp5o7nP/zE87/z33//rsgW7n1mx46t5F1rMQE9OEiDg0Ro3gAAAHjXW/o/cAMAAAAAgC2hvb09L9vNY5pmOp32er3coWFZlqiwENwhcjAYTCaTouMinU7Pz89zmCvS5KqqKhFSc7+H4ziGYaiqahiGbduSJMmyzB0dXq+XU2z3Hfn6YvyZdxRUVXV2dnZhYUFV1fLpMxWre+Zu6Ewmo+t6Jekzaw/XPn3kTz77/56mo0e/9VDNlk+fiWh0dCXjxydPrv7Ox46RJFHpqXQAAAB4t9j6f6ICAAAAAAAiImpoaNi3b1+ZGmjHcXK5XCqVqq6u5tiXw1muexYJslttba2qqpwO67qeTCaJiNNk3pzQ7/eHw2FN07htwz2t7L6a4ziWZfEkNRFxKs3z0dxGbVlWNpvNZrPltwQs9bnEHQ3DMAwj73jhU/djUVf94lee/tBdu77VEmgMbpdJnViMTpyggYFl10CvmuOQJNGJE6u/EgAAAGxtCKC3M+6A3uxVAAAAAMDGWXIfQo6AfT6f3++nxdCZC5T5Mf/kFJgj41QqVVNTw/PLkUiE9yQkIo6SiYhf4snlvNvxA8uyCqee+SKWZcmyzM0e4iUiKlPonPeSGNm2bXtmZqay76m4oY92rebtt6lYjIaGaHh4hXUcyxSPU2fnzdoNlG8AAAAAIYAGAAAAANhOyu9DKMZ+FUVxHCcQCHAQrOt60bljznZDoVAikaiqqjIMg2ef80otLMsyTdO2ba/XK6aJRR0Hp9iFF+dLcZpceELRt/BBEZoLoVBI9FCvjCzLTz311IrffruLxW72MVeYQcfjK66B7uwkIpIkpM8AAABwEwLo7aytrW1sbGyzVwEAAAAAG6e5ubn8CdzdbJomdzT7/X5ucPZ4PO7T3E3QtJj8WpaVyWR4ZjnvsoVcUaQAACAASURBVBw3e71eWZa5AYMz4sJcm8s3vF4vFWweWNhGTa7pad5EUcxNu89UFKV8+XV5bW1tr7zy5MGDB06cWP3ee7exwUGKxWhgYF1vws0b2/lrBAAAgGXaLtVmAAAAAABA1NLSUmYImseTRZ7LO/XlbfHnnll2Fvl8vlQqxekzlUiKmSzLXBjNF5EXSZLEjc8cUot4monyaF3Xs9mspmmZTIa3IuSnmqZxYs4jz3mfixs8ltyrsJTf+73vTU19hGi9s9nbQH9/pdsSLqszmigef2e/QcdB9TMAAAC8AwE0AAAAAMC28pGPfKTUS5ZlGYbBmbJIjTn5FQc5OM6bTfb5fKVGlfNmpTlEtm2ba6Y9t5IkiQeZdV03DIN3HVQUhYNmXddzuZy5iC9VKnTOw9sPLve7IqLHHnust5d6e8lxaHR0BRfYanhbwiUz6JMnl3XVvj4iotLF3QAAAPDuhQqO7ay9vf3VV1/d7FUAAAAAwIY6ePCg4zilNvHjuJnbn23b5jINbnAWObLY0088zmazpmn6fD6ebubjvG+hmJXmyNj9RpFo0+LAddFmZ3FBzr6LtlFXggerl/uuJ598kuidid3OzndBDM0ZdPltCSuZkiYiulkWPTqK5g0AAAAoDgE0AAAAAMC20tLS8uCDD7766qtFM2jHcTKZjOjBkGWZI2nRy5x3Mr/KT3VdJyLOoDmA5u0HDcMQuwLSYvvzkusUCfVqQufVkGX54x//eEtLCz8dHLyZxw4M0NDQxi9nY8Vi1N9PVPG2hCWMjNycfXYc7DoIAAAAxSGA3s7a2trGx8c3exUAAAAAsNF++7d/u8x/Ccc7EIZCIU6WeQg6bzY5L3pmkiQpipLL5Xw+n8/ny+VyCwsLlWTN7suuSejMddKiq5qI/H7/sio4QqHQZz/72d/6rd8SR/r76fhxisffBekzi8VocJCoRAZ95Egl18DIMwAAACwJATQAAAAAwHbT0tLS0dFx7dq1wiFoTmxN09Q0jVs1uJ2ZiHgg2nEcwzB4u8JCPp+P+zo4mzZNs1TXh/uOaxg6ix0US62wlEgkUl1dvX///kOHDu3du7f9/2/v/qOsrO87gX9nmAo6CgSFdPLM6KBECFljius14EEYkqZZ42kOc/wV6lRNk+Y02RsT2tBJmwp2aUKMS00nx7Qn20hC1rjEzpjq2UaXIKgk4a5NQqtJUBNGZ25I1wpoAorOzN0/nullGIZhmJl7n/vj9Tr8cX98730+g/wB7/P28zQ2Tp8+feiB5uZjlm90d499C0U5W7cu3HRTmDv3mBfXrj1ptJzviedygzk2AMCIBNAAAFBpzj777Kuuuuquu+4augw6fhwHuP39/XGROQ6d4xy5r69vWJ05LkeHEIamzPFHDh069Morr0yZMuX4xR3xtfKJ8yh7n08qDp3joDy+P+GJTg57q76+vqGhYc6cOQsXLpwzZ84ll1zS2Ng45ouGcFweXcniH3X79vDVr4Zly0IIJ02UW1rC9u1h06bBtRsCaABgFDUT+esgJS6bzba1tW3bti3pQQAAKLZ9+/a1trbW1tYODaDzeXS8v6K2tva00077jd/4jRDCa6+9Fm+CHuU78/cJzHeZa2pq4nXS+XdDCKe0lON4w0LnsXykvr5+7ty506dPX7RoUUNDw4IFC8YeNw/T3R1uvjls326j8cjiWw6GEGpqQnNzuPtuWzgAgJPQgAYAgArU0NDw7ne/++GHHx6aQcfRcE1NTb4NHee8R44cef3110+0TCNOlgcGBvILNOrq6uLHuVyur6+vtrZ24qFz/G11dXV9fX1xnXnE9Lm+vj6E0NzcPGXKlFQqNX369NmzZ1944YXjTpyHiUPV/PKNdevUe4+K79MYR/O5XNVsKQEAJkYDupJpQAMAVLN9+/Zdd911R44cqaurizdsHP+X/9ra2qEJdbwMOi+Onk912/IY5UPn2traUXZDx4lzXHBevnz5nDlzmpqaJituPtmEIYSwdq0M+qj498Q/IgGAsdOABgCAytTQ0NDS0vLtb387LimPWD2Je801NTVxEh2/WNDcOTY0dD4+fa6vr7/44ovjlRrFTJyH2rRp8IH0eWjxOW6IAwCMnQZ0hZs/f/6ePXuSngIAgGTkS9BjORwvX463PBdimFGaznHi3NjYOG/evFO6YWBBbdoUbrpp8HE17+LIr2bxb0cAYBwE0BVOAA0AUOU2b978xS9+sRDffNZZZ/3qV78a/Uy8b/r41+PEeeHChXPmzCmdxPlEqnPvxNDMvabGKhIAYJys4CgPjz322NKlS8fxwSiKstlsFEWTPhIAAGXhve997/79+++5555J/+YR0+f8HQ7j3DmfPjc0NMQd5ze/+c3z5s0r8cR5qKpNXW+77ejmjb173W8QABgnAXQZuOuuu77xjW889thjSQ8CAED5mTVr1u///u//8pe/LM69qXO5XHzbwLe//e1RFL3pTW9atGjR/Pnzi3DpAlm3LixfHpYvDyGEmprQ3BweeaRi09ju7nDzzeGRRwafNjcP9qAr9ecFAIpAAF3SDh48+LnPfe6hhx6K/xI/DhrQAAC84Q1v+NM//dMjR47s3Llzcr/5rLPOyuVyv/71r+On11133ZIlSxobG8uo4DwWcfo8d24IIXR3V3IaG/+MNTUhl6u6lSMAQIHUJj0Ao7nzzjtnzZr1mc98JulBAAAobzNnzrz11ls/+MEPTvyr6uvr582bt2TJkg9+8IPpdPrjH//47NmzFy9e/Od//udLly59xzveUWHpc94jj4S1a4/GsnPnhu7uJOeZLN3dYd26Y/ZcV3DCDgAUn5sQlrSBgYHa2todO3Z8+tOfHt8Kjra2tnQ6nUqlJn02AADK0de//vWvfOUrhw4dGuP5+H/Fu+CCCxoaGi655JJFixY1NTUNPfDyyy9Pnz598gctbZVxW8J8m3voj7NpU7jppuRmAgAqjhUcJa22VkUdAIDJdMMNN7zzne988MEH77nnnsOHDx9/oL6+fvbs2Q0NDS0tLbNnz25qahqWOA9Thelzd3dYvjxs3z74dO7csHZt+YW2cYM7n6E3Nw9Gz2X3gwAAJU4AXVrWr1/f2dkZQqivr5+Uuw7GO6An/j0AAFSMhoaGD33oQ1ddddVLL720b9++n/70py+88EJfX98ll1xywQUXzJgxY/TEmfg+hHnxjfvKIrft7g6bNoV16wYfB+ueAYDCE0CXllWrVq1YsSKEUFfnPw0AAAXU0NDQ0NCwYMGClpaWpGcpY3GYO3Qx9I03Dr5YOvKrNpqbw223hdtuGwydW1rCjTcmPBsAUPGknKXl/PPPP//88yfxC6Mo6u3tncQvBAAA8tatO9p9jjcpx+nzzTeHZcsSrkXnc+e5c0MIx2zbiA3tcQMAFIgVw+Wqvb29q6sr6SkAAKDa5fPctWuPvrhpU7j55qOPiyZerBFCaGkZzJ2HWbs27N1bvHkAAGpy1n2Vp2w229bWtm3bttGPdXR0hBDS6XRRhgIAAEL4jzZ0/I+tmprQ3DwY+8Y3+ptc+aZzS0vYvv3oRfMDlOZiEACgSmhAl6soiqIoOmkJurGx0U0IAQCgyPbuPebOfvli8s03D0bD8eNTKkfnvyR/I8EQQk3N0abz9u1HDzc3h+XLB4/t3St9BgASowFdxsZSgu7q6tq1a9eGDRuKNhUAAJDX3R22bx9sPeej5+NLysMKyyGEvXtDd3doaRmsTp/o8NDHIYSWlrBsmbgZACghGtBlbCwl6CiKNKABACApzc1Hd27s3RvuvvskIXJNTejuHgyd58492noeatin1q49mjg/8oj0GQAoLQLo8rZhw4Z4yzMAAFDihobRudzRmwHefXe46abBrHn58rB8+eDrN90UmptDS8vg+aFB89AVH+vWCZ0BgNJlBUfZa2tra21tXbly5YjvZjKZjo6OzZs3F3kqAAAAAAAN6LKnBA0AAAAAlCYBdNkbfRO0HdAAAAAAQFIE0JVACRoAAAAAKEEC6EowegkaAAAAACARAugKkU6nRyxBW8EBAAAAACRFAF0hUqmUEjQAAAAAUFIE0JVDCRoAAAAAKCkC6MqhBA0AAAAAlBQBdEU5UQkaAAAAAKD4BNAVZcQStBUcAAAAAEAiBNCVRgkaAAAAACgRAuhKYxM0AAAAAFAiBNAVaFgJ2goOAAAAACARAugKpAQNAAAAAJQCAXRlGlqCjqKot7c32XkAAAAAgCokgK5MStAAAAAAQOIE0BVr2CZoAAAAAIAiE0BXrLgEnclkGhsb3YQQAAAAACg+AXQlS6fT7e3tSU8BAAAAAFQpAXQli0vQu3btSnoQAAAAAKAaCaArXDqd7urqsoIDAAAAACg+AXSFS6VSqVQq6SkAAAAAgGokgK586XQ66REAAAAAgGokgK58URRZwQEAAAAAFJ8AGgAAAACAghBAAwAAAABQEALoymcFBwAAAACQCAE0AAAAAAAFIYCuCkrQAAAAAEDxCaABAAAAACgIATQAAAAAAAUhgK4KVnAAAAAAAMUngAYAAAAAoCAE0AAAAAAAFIQAuipYwQEAAAAAFJ8AGgAAAACAghBAAwAAAABQEALoqhBFUW9vb9JTAAAAAADVRQANAAAAAEBBCKABAAAAACgIAXRVaGxszGazSU8BAAAAAFQXATQAAAAAAAUhgK4KURRpQAMAAAAARSaABgAAAACgIATQAAAAAAAUhAC6KljBAQAAAAAUnwAaAAAAAICCEEADAAAAAFAQAuiqYAUHAAAAAFB8AmgAAAAAAApCAA0AAAAAQEEIoKuFLRwAAAAAQJEJoAEAAAAAKAgBdLXQgAYAAAAAikwADQAAAABAQQigAQAAAAAoCAE0AAAAAAAFIYCuFnZAAwAAAABFJoAGAAAAAKAgBNDVIoqi3t7epKcAAAAAAKqIABoAAAAAgIIQQAMAAAAAUBAC6GrR2NjoJoQAAAAAQDEJoAEAAAAAKAgBdLWIokgDGgAAAAAoJgE0AAAAAAAFIYAGAAAAAKAgBNDVwgoOAAAAAKDIBNAAAAAAABSEABoAAAAAgIIQQAMAAAAAUBAC6GoR74C2BhoAAAAAKBoBdBVZuXJlR0dH0lMAAAAAANVCAF1F0ul0JpNRggYAAAAAikMAXUWiKEqlUkrQAAAAAEBxCKCrS1yCTnoKAAAAAKAqCKCrS1yCbm9vT3oQAAAAAKDyCaCrjhI0AAAAAFAcAuiqowQNAAAAABSHALoaKUEDAAAAAEUggK5GStAAAAAAQBEIoKuUEjQAAAAAUGgC6CqlBA0AAAAAFJoAunopQQMAAAAABSWArl5xCbqrqyvpQQAAAACAylSTy+WSnoHEZLPZtra2bdu2JT0IAAAAAFCBNKCrWhRFURQpQQMAAAAAhaABXe2UoAEAAACAAtGArnZK0AAAAABAgWhAowQNAAAAABSEBjRK0AAAAABAQWhAE4ISNAAAAABQABrQhKAEDQAAAAAUgAY0g5SgAQAAAIDJpQHNICVoAAAAAGByCaA5Kp1Od3R0JD0FAAAAAFAhBNAclUqllKABAAAAgMkigOYYStAAAAAAwGQRQDMom81mMpldu3Zls1klaAAAAABg4mpyuVzSM5CMOHHu7e3NZDKZTCa+CWEqlYpf37ZtW9IDAgAAAADlTQBdLbLZbDab3bVrVwghnzjHS58vu+yyVCo19HBbW1tra+vKlSsTGhYAAAAAqAQC6Ip1ooJzCOH4xHmYTCbT3t6uBA0AAAAATERd0gMwOUYpOKfT6dHj5uPFH8xkMqf6QQAAAACAPA3oMtbV1TW04BxCiJdmnLTgPBZK0AAAAADABGlAl6u47zy+gvNYKEEDAAAAABOkAc0JKUEDAAAAABNRm/QAlK58CTrpQQAAAACAsiSAZjTpdLq9vT3pKQAAAACAsiSAZjRK0AAAAADAuAmgE9PT07N169Y9e/aMcqa7u3vr1q0/+clPijbV8ZSgAQAAAIDxmbJu3bqkZ6hGDzzwwMc//vHXXnvty1/+8sGDB9/xjnccf+buu+/+9Kc//dprr33ta1/76U9/umLFiuLPGUKIomjr1q2NjY1RFCUyAAAAAABQpmpyuVzSM1Sd/v7+Sy+9dMuWLfPmzdu/f/+KFSvuv//+5ubmoWcGBgYuuuii+++//81vfvPLL7+8ePHi++677y1veUsiA3d1dXV2dm7evDmRqwMAAAAAZcoKjgQ8+uijM2fOnDdvXghh1qxZV1xxxeOPP378sVwuN23atBDC6aefXltb+9prrxV70P+QSqVCCDZBAwAAAACnRACdgIMHDy5YsCD/9Mwzz3z66aeHnamtrV27du1HPvKRL3zhCzfccMN111138cUXF3fMo6Ioam1t7ejoSGoAAAAAAKAcCaAT0N/fX1t79He+trZ2YGDg+GNPPPHEGWecMXv27JkzZ/7sZz87fPhwEWccTgkaAAAAADhVAugiWb9+/aJFixYtWrR06dKpU6f29/fn3xoYGKirqxt2ftu2bT/84Q/vueeeVatW/d3f/V0I4Stf+UpRJz6WEjQAAAAAcKqG554UyKpVq1asWBFCqKury+VyTz75ZP6tAwcOXHnllcPOHzhw4MILL5wyZUr89Lzzzuvp6SnatCNKpVKdnZ2ZTCZuQwMAAAAAjE4DukjOP//8JUuWLFmyJJVKXXrppSGEHTt2hBCeeeaZ7373u4sXL46P7d69e9++fSGEhQsX7ty58+c//3kI4eWXX37iiSeKGftu3xpuaD3mV1CCBgAAAABO0ZR169YlPUPVqampeetb37pmzZpHH330S1/60mc/+9m3ve1t8Vuf+tSnpk2btnDhwtmzZ8+aNesTn/jEzp0777jjjt/5nd/5wz/8w6JNOO30MG9+uHRxuOSy8L//MVxwYXj3lSGEMH369K1btzY2NkZRVLRhAAAAAIAyVZPL5ZKeoXodPnx42rRpQ29IOMzAwMCrr746derU/C6OIvuvfxB6ng/f+j9HX+nq6urs7Ny8eXMi8wAAAAAAZcQKjiSdccYZo6TPIYTa2tozzjgjqfT5jr8KP/i/4ev/cMyLqVQqm81mMplERgIAAAAAyogAmpF1/q/wt38T7vuncNb0Y16PoiidTtsEDQAAAACclACaETy+I9zy4bDlwfCmkVY9K0EDAAAAAGMhgGYEf/P58Mrh8J6lYc60wV+PPXL0XSVoAAAAAGAsBNCMYMuD4d9fC//v1aO/lrYcc0AJGgAAAAA4KQE046EEDQAAAACclACacVKCBgAAAABGJ4BmnOISdGdnZ9KDAAAAAAAlSgDN+KVSqUwmowQNAAAAAIxIAM34KUEDAAAAAKMQQDMhStAAAAAAwIkIoJkQJWgAAAAA4EQE0EyUEjQAAAAAMCIBNMd4b0u4aG64aO4pfEQJGgAAAAAYkQCaYzzfHZ7vPuVPKUEDAAAAAMcTQDMJlKABAAAAgOMJoJkccQk6m80mPQgAAAAAUCoE0EyOKIpSqVRHR0fSgwAAAAAApUIAzaRJp9NK0AAAAABAngCaSaMEDQAAAAAMJYBmMilBAwAAAAB5AmgmkxI0AAAAAJAngGaSKUEDAAAAADEBNJNMCRoAAAAAiAmgmXxxCTrpKQAAAACAhAmgmXxxCbq9vT3pQQAAAACAJAmgKQglaAAAAABAAE1BKEEDAAAAAAJoCkUJGgAAAACqnACaQlGCBgAAAIAqJ4CmgJSgAQAAAKCaCaApICVoAAAAAKhmAmgKSwkaAAAAAKqWAJrCikvQXV1dSQ8CAAAAABSbAJqCS6fTHR0dSU8BAAAAABSbAJqCi6IoiiIlaAAAAACoNgJoimHDhg1K0AAAAABQbQTQFIMSNAAAAABUIQE0RaIEDQAAAADVRgBNkShBAwAAAEC1EUBTPErQAAAAAFBVBNAUjxI0AAAAAFQVATRFpQQNAAAAANVDAE1RKUEDAAAAQPUQQFNs6XRaCRoAAAAAqoEAmmJLpVJK0AAAAABQDQTQJEAJGgAAAACqgQCaBChBAwAAAEA1EECTDCVoAAAAAKh4dUkPQLXIZrMhhM7OzhBCJpPJZDIhhK6urpUrVyY8GQAAAABQGAJoCiWbzWaz2V27dsVxcxRFIYQ4bk6n06lUKpPJtLe3C6ABAAAAoFIJoJk02Wx2aME5iqIoilKpVGtra5w4Dzsfb4LOZDLHvwUAAAAAVICaXC6X9AyUkIvmhue7w7nN4V/3nuRkvuAcP4gT5zhTvuyyy8aYKccl6G3btk3C6AAAAABAidGAZqzilLm3t3dYwTmKotbW1vG1mJWgAQAAAKCCaUBzjOMb0F1dXZ2dneMrOI+FEjQAAAAAVCoNaE4iiqIRNzhPFiVoAAAAAKhUtUkPQKlLpVKFjobT6XR7e3tBL3Eid37/b//+h1/PP/3wg6t//MKeRCYBAAAAgMojgCZ5+RJ08S/dPPPczzz21/Hjf/m3px58+uGFs+cXfwwAAAAAqEgCaEpCUiXo353/npeP/Hpnz64Qwld+eE/b264t/gwAAAAAUKkE0JSEcZeguw8+v+lH31i3/faWr76v5rZz1m2//ZQ+XltT2/a2a//nv9w3kBv4xpP/8IHf+r1THQAAAAAAOBE3IaxwPT09e/bsaWpqmj//hJsl9u/f/6Mf/ai+vv6yyy4r5mzDtLa2dnR0bN68eZQz3Qef7z7Ys71753MvDT4YdmDHc8NfOamb3n798k3ve8+8d57/huYLz77gVD8OAAAAAJyIALqSPfDAAxs2bFiyZMk///M/v+9977vllluOP7Njx45PfepTS5Ysee6556ZOnRrC148/UxypVKqzszOTyeTvedh98PkQwqYf3RtC2PHczuPj5mGaZzYtO+/yU73u29741vPfcN6fPHzr6sUfOfWpAQAAAIATqsnlcknPQEH09/dfeumlW7ZsmTdv3v79+1esWHH//fc3NzcPO7N06dI777wzznyvuuqqnz7xzRf+7fRzm8O/7k1g5r+++wvbu3f+Vst/HmPc3Dzz3GXnXR4/WN58ytFz3hcz/2P1Q3/x72uenj71rHF/CQAAAAAwjAZ0xXr00Udnzpw5b968EMKsWbOuuOKKxx9/fFgAvWPHjiiK8o3jBx988KK5xZswv08jDC0414Z/3LHt+MPNM5tCCDde/P4QwvLmyycSNx/vtCmnXfPW35U+AwAAAMDkEkBXrIMHDy5YsCD/9Mwzz3z66aeHnTlw4EBTU9Ott976rW99a8qUKR/96EdD+IPCjdR98Pnt3Tu7D/aMseC8vPny82acO+lx81A9L2e37X3svz16x5Zr/r5AlwAAAACAqiWArlj9/f21tbX5p7W1tQMDA8POPPvssw899NCtt976l3/5l3v27LnhhhuOvPp7IUyblAFOesPAofL7NEIITz74gzXXrs73sgvqV0d+/cCeh9YtX7O48dIiXA4AAAAAqooAuqKsX7++s7MzhFBfX79mzZr+/v78WwMDA6eddtqw8+eee+5555133XXXhRDmz5//27/921+765XxBdDjuGHgiQrOXQe6Ojo6Nm/ePI4xTtXC2fPvu/buIlwIAAAAAKqQALqirFq1asWKFSGEurq6XC735JNP5t86cODAlVdeOez82WefPfRpbW1tzZivdar7NPI3DFzefHnzzHNHOZxKpTo7OzOZTHFK0AAAAABAgdTkcrmkZ6AgBgYGli1btn79+mXLlj3zzDNXX331d77znXPOOSeEsHv37jlz5jQ0NLz++utLly797Gc/29LSsn///pUrV+575uF/2zf13Obwr3uP+baRbxh4AkP3aYxvg3NXV1dnZ2dxStAAAAAAQIEIoCvZrl27Vq9ePW/evKeeemr9+vXvec974tdvvvnm9773vVdffXUI4YknnvjkJz/5xje+8dlnn/3ABz7wpc9/5PnucG5zeOCHz0/KPo3xyWazbW1tGzZsUIIGAAAAgPIlgK58hw8fnjZt2tAbEh7vlVdeOe2006ZMmXLR3PB8dxiY+fyvP77oRIcnXnAeCyVoAAAAACh3dkBXvjPOOOOkZ04//fT4wafWhn/52O2/+5ufv+5XofesEEJontkUQrjx4veHQsbNx0ulUh0dHTZBAwAAAED50oDmGIe23Pvi6nQI4ZdvaTr85Y647JzUMErQAAAAAFDWRlvLQBWauvjyqYsvDyH85k96Ls30JJg+hxBSqVQ2m81kMgnOAAAAAACMmwY0w/X19Pxi8aIQQl1j05u+/4Nkh1GCBgAAAIDypQHNcHVNTTNWfzKE0Nfb8+In0skOowQNAAAAAOVLAM0I6q95f11jUwjhyPd2vvq9nQlOEkVROp3u7OxMcAYAAAAAYHwE0Iygrqlpxuo1IYS+3p79JVCCzmQyStAAAAAAUHYE0Iys/trr47sR9vX2vLTx9gQnUYIGAAAAgDIlgOaEzt7YET84tOXevp6eBCdRggYAAACAciSA5oTqmpriDLqvt+fF1Uku4lCCBgAAAIByJIBmNFMXXx4v4kj8boRK0AAAAABQdmpyuVzSM1DS+np6frF4UQihrrHpTd//QYKTdHV17dq1a8OGDQnOAAAAAACMnQY0J1HX1FR/zfUhXsTxiSQXcShBAwAAAEB5EUBzcjNWr6lrbApJL+KwCRoAAAAAyosAmpOra2qasXpNCKGvt2d/CZSgs9lsgjMAAAAAAGMkgGZM6q+9Pr4bYV9vz0sbb09qjCiKVq5c2dHRkdQAAAAAAMDYCaAZq7M3Dsa+h7bc29fTk9QYra2tStAAAAAAUBYE0IxVXVNTnEEnXoJOpVJK0AAAAABQ+gTQnIKpiy+PF3Ec+ua9Cd6NMJ1OK0EDAAAAQOmryeVySc9AOenr6fnF4kUhhLrGpjd9/wdJjdHe3h5C2LBhQ1IDAAAAAAAnpQHNqalraqq/5voQQl9vz4ufSCc1hhI0Hdr51wAACIVJREFUAAAAAJQ+ATSnbMbqNXWNTSGEI9/bmdQiDpugAQAAAKD0CaA5ZXVNTTNWrwkh9PX27E+6BJ3U1QEAAACAkxJAMx71114f342wr7fn0JZ7E5khLkHHy6ABAAAAgBIkgGaczt44uP7ipY239/X0JDKDEjQAAAAAlDIBNONU19QUZ9B9vT0vbbw9kRmUoAEAAACglAmgGb+piy+PF3Ec+ua9Sd2NUAkaAAAAAEqWAJrxq2tqmrH6k/HjpO5GqAQNAAAAACVLAM2ETFt8ef0114cQ+np7Xkwog1aCBgAAAIDSJIBmomasXlPX2BRCOPK9nYks4lCCBgAAAIDSJIBmouqammasXhNC6OvtSWoRhxI0AAAAAJQgATSToP7a6+O7Efb19hzacm/xB4hL0F1dXcW/NAAAAABwIjW5XC7pGagEfT09v1i8KIRQ19g055vfqmtqKvIA2Wy2ra1t27ZtRb4uAAAAAHAiGtBMjrqmprM3doQQ+np7Xtp4e/EHiKIoiiIlaAAAAAAoHQJoJs3UxZfHizgOffPeRO5GuGHDho6OjuJfFwAAAAAYkQCaSVPX1DRj9SdDCHWNxd6/EVOCBgAAAICSYgc0k+zQlnvrr70+qavbBA0AAAAApUMDmkmWYPoclKABAAAAoJRoQFNplKABAAAAoERoQFNplKABAAAAoERoQFOBlKABAAAAoBRoQFOBlKABAAAAoBQIoKlM6XS6o6Mj6SkAAAAAoKoJoKlMqVRKCRoAAAAAkiWAphheefjbL65Oh4GBEMKrOx7Z/ye3xI8LSgkaAAAAAJIlgKYYTn/Xu1//8VMv3fnfB1588cVbPnL6u/9LqC34nz0laAAAAABIVk0ul0t6BqpC389/tu89K077TxeddtHFb7jtr4pz0Uwm097evm3btuJcDgAAAAAYSgOaIqk7/4Izr33/az/4wYzVnyzaRZWgAQAAACBBAmiK5PVnnzn0D9+ctmz5gdv+opjXtQkaAAAAAJIigKYoBgZe/MiHpqdvOftv7np1x/bD//Rg0a4cRVEIIZPJFO2KAAAAAEDMDmiK4eBn/tur3338Nx98KITwytaHX7zlow3bvztl9uxCXCubzWYymd7e3kwmk8lkoiiKoiibzdoEDQAAAABFJoCmvGWz2RBCZ2dnCCGfOMerny+77LJUKhUfa2trS6fT+acAAAAAQBEIoCkz2Ww2m83u2rUrHzeHEFauXBlCGJo4D5PJZNrb25WgAQAAAKCYBNCUuhFXaqRSqcbGxrjpPMbvUYIGAAAAgCITQFNa8gXnMOpKjXFQggYAAACAIqtLegAY1NXV1d7ePnSlxuQWluMUO5PJKEEDAAAAQHFoQFMqstns2PdpjI8SNAAAAAAUU23SA8CgQqfPYUgJutAXAgAAAACCAJpqk06nOzo6kp4CAAAAAKqCAJrqEveslaABAAAAoAgE0FSXKIpaW1uVoAEAAACgCATQTI6enp6tW7fu2bPnpCd37979wgsvFGGkE0mlUkEJGgAAAAAKTwDNJHjggQeuv/76hx566I/+6I++8IUvjHLy2WefveGGG3bv3l202Y6nBA0AAAAAxSGAZqL6+/vXrl371a9+9fOf//x999139913d3d3j3jy9ddf/+M//uNzzjmnuAOOQAkaAAAAAIpAAM1EPfroozNnzpw3b14IYdasWVdcccXjjz8+4smNGze+853vvPDCC4s74AiUoAEAAACgCATQTNTBgwcXLFiQf3rmmWc+/fTTxx/LZDK7du362Mc+VsTRRqMEDQAAAACFJoBmovr7+2trj/5Bqq2tHRgYGHbm5ZdfvvXWWzdu3Fjc0UajBA0AAAAAhSaAZjzWr1+/aNGiRYsWLV26dOrUqf39/fm3BgYG6urqhp2//fbbFy5c+Nxzz+3YsWP//v1PPfXUnj17ijvyCFKpVDabVYIGAAAAgAIZHhTCWKxatWrFihUhhLq6ulwu9+STT+bfOnDgwJVXXjns/OzZs3/84x/fc889IYRsNrtjx47p06fPnz+/mDMfL4qidDrd0dGxefPmZCcBAAAAgIpUk8vlkp6B8jYwMLBs2bL169cvW7bsmWeeufrqq7/zne+cc845IYTdu3fPmTOnoaFh6PkPf/jD11xzzbve9a6E5j1GNptta2vbsGFDvBIaAAAAAJhEVnAwUbW1tXfcccef/dmf3Xjjje9///s/97nPxelzCOHOO+/cuXNnsuONLl+CTnoQAAAAAKhAGtBMmsOHD0+bNm3oDQnLghI0AAAAABSIABpCV1dXZ2enTdAAAAAAMLnKrKwKhZBKpbLZbCaTSXoQAAAAAKgoAmiwCRoAAAAACkIADSEoQQMAAABAAQigIYT/KEF3dnYmPQgAAAAAVA4BNAxKpVKZTEYJGgAAAAAmiwAaBilBAwAAAMDkEkDDUUrQAAAAADCJBNBwlBI0AAAAAEwiATQcQwkaAAAAACaLABqOoQQNAAAAAJNFAA3DxSXobDab9CAAAAAAUN4E0DBcFEUrV67s6OhIehAAAAAAKG8CaBhBa2urEjQAAAAATJAAGkYQRVEqlVKCBgAAAICJEEDDyNLptBI0AAAAAEyEABpGpgQNAAAAABMkgIYTUoIGAAAAgIkQQMMJKUEDAAAAwEQIoGE0cQk66SkAAAAAoCwJoGE0cQm6vb096UEAAAAAoPwIoOEklKABAAAAYHwE0HASStAAAAAAMD4CaDg5JWgAAAAAGAcBNJycEjQAAAAAjIMAGsZECRoAAAAATpUAGsZECRoAAAAATpUAGsZKCRoAAAAATokAGsYqLkF3dHQkPQgAAAAAlIeaXC6X9AxQNrLZbFtb27Zt25IeBAAAAADKgAY0nIIoiqIo6urqSnoQAAAAACgDGtBwapSgAQAAAGCM/j9LhIyBnJxLxgAAAABJRU5ErkJggg==;clipPath=inset(20.24% 33.33% 20.24% 33.33%);" parent="1" vertex="1">
          <mxGeometry x="25" y="620" width="825" height="825" as="geometry" />
        </mxCell>
        <mxCell id="hXmGlQrBdRvzctw2T5mR-79" value="&lt;font size=&quot;1&quot;&gt;&lt;b&gt;&lt;i style=&quot;&quot;&gt;&lt;font style=&quot;font-size: 40px;&quot; color=&quot;#6600cc&quot;&gt;{s}&lt;/font&gt;&lt;/i&gt;&lt;/b&gt;&lt;/font&gt;" style="text;html=1;strokeColor=none;fillColor=none;align=center;verticalAlign=middle;whiteSpace=wrap;rounded=0;" parent="1" vertex="1">
          <mxGeometry x="180" y="960" width="65" height="50" as="geometry" />
        </mxCell>
        <mxCell id="S7IZpB0op00duPQ5i5Fw-2" value="" style="endArrow=classic;html=1;rounded=0;strokeWidth=10;strokeColor=#00FFFF;exitX=0.891;exitY=0.848;exitDx=0;exitDy=0;exitPerimeter=0;" parent="1" edge="1" source="S7IZpB0op00duPQ5i5Fw-1">
          <mxGeometry width="50" height="50" relative="1" as="geometry">
            <mxPoint x="900" y="1390" as="sourcePoint" />
            <mxPoint x="810" y="1390" as="targetPoint" />
          </mxGeometry>
        </mxCell>
        <mxCell id="S7IZpB0op00duPQ5i5Fw-3" value="&lt;b&gt;&lt;i style=&quot;&quot;&gt;&lt;font color=&quot;#00ffff&quot; style=&quot;font-size: 40px;&quot;&gt;Sa&lt;/font&gt;&lt;/i&gt;&lt;/b&gt;" style="text;html=1;strokeColor=none;fillColor=none;align=center;verticalAlign=middle;whiteSpace=wrap;rounded=0;strokeWidth=5;" parent="1" vertex="1">
          <mxGeometry x="710" y="1350.0000000000002" width="60" height="30" as="geometry" />
        </mxCell>
        <mxCell id="S7IZpB0op00duPQ5i5Fw-4" value="&lt;font size=&quot;1&quot;&gt;&lt;b&gt;&lt;i style=&quot;&quot;&gt;&lt;font style=&quot;font-size: 40px;&quot; color=&quot;#6600cc&quot;&gt;{a}&lt;/font&gt;&lt;/i&gt;&lt;/b&gt;&lt;/font&gt;" style="text;html=1;strokeColor=none;fillColor=none;align=center;verticalAlign=middle;whiteSpace=wrap;rounded=0;" parent="1" vertex="1">
          <mxGeometry x="670" y="1280" width="65" height="50" as="geometry" />
        </mxCell>
      </root>
    </mxGraphModel>
  </diagram>
</mxfile>
